<?xml version="1.0" standalone="no"?>
 <!DOCTYPE svg PUBLIC "-//W3C//DTD SVG 1.1//EN" 
 "http://www.w3.org/Graphics/SVG/1.1/DTD/svg11.dtd"> 
<svg xmlns="http://www.w3.org/2000/svg" version="1.1" 
    width="29.7002cm" height="21.0007cm" viewBox="0 0 116930 82680 ">
<title>SVG Picture created as LED_Board_PCB-B_Cu.svg date 2015/01/04 11:24:54 </title>
  <desc>Picture generated by PCBNEW </desc>
<g style="fill:#000000; fill-opacity:1;stroke:#000000; stroke-opacity:1;
stroke-linecap:round; stroke-linejoin:round; "
 transform="translate(0 0) scale(1 1)">
</g>
<g style="fill:#000000; fill-opacity:0.0; 
stroke:#000000; stroke-width:19.685; stroke-opacity:1; 
stroke-linecap:round; stroke-linejoin:round;">
</g>
<g style="fill:#000000; fill-opacity:0.0; 
stroke:#000000; stroke-width:59.0551; stroke-opacity:1; 
stroke-linecap:round; stroke-linejoin:round;">
<rect x="69685.9" y="65357.2" width="42519.7" height="12598.4" rx="0" />
</g>
<g style="fill:#000000; fill-opacity:0.0; 
stroke:#000000; stroke-width:19.685; stroke-opacity:1; 
stroke-linecap:round; stroke-linejoin:round;">
</g>
<g style="fill:#000000; fill-opacity:0.0; 
stroke:#000000; stroke-width:59.0551; stroke-opacity:1; 
stroke-linecap:round; stroke-linejoin:round;">
<rect x="3937.01" y="3937.01" width="109056" height="74806" rx="0" />
</g>
<g style="fill:#000000; fill-opacity:0.0; 
stroke:#000000; stroke-width:19.685; stroke-opacity:1; 
stroke-linecap:round; stroke-linejoin:round;">
</g>
<g style="fill:#000000; fill-opacity:0.0; 
stroke:#000000; stroke-width:59.0551; stroke-opacity:1; 
stroke-linecap:round; stroke-linejoin:round;">
<rect x="4724.41" y="4724.41" width="107481" height="73231.2" rx="0" />
</g>
<g style="fill:#000000; fill-opacity:0.0; 
stroke:#000000; stroke-width:19.685; stroke-opacity:1; 
stroke-linecap:round; stroke-linejoin:round;">
</g>
<g style="fill:#000000; fill-opacity:0.0; 
stroke:#000000; stroke-width:59.0551; stroke-opacity:1; 
stroke-linecap:round; stroke-linejoin:round;">
<path d="M23622 4724
L23622 3937
" />
</g>
<g style="fill:#000000; fill-opacity:0.0; 
stroke:#000000; stroke-width:19.685; stroke-opacity:1; 
stroke-linecap:round; stroke-linejoin:round;">
</g>
<g style="fill:#000000; fill-opacity:0.0; 
stroke:#000000; stroke-width:59.0551; stroke-opacity:1; 
stroke-linecap:round; stroke-linejoin:round;">
<path d="M43307 4724
L43307 3937
" />
</g>
<g style="fill:#000000; fill-opacity:0.0; 
stroke:#000000; stroke-width:19.685; stroke-opacity:1; 
stroke-linecap:round; stroke-linejoin:round;">
</g>
<g style="fill:#000000; fill-opacity:0.0; 
stroke:#000000; stroke-width:59.0551; stroke-opacity:1; 
stroke-linecap:round; stroke-linejoin:round;">
<path d="M62992 4724
L62992 3937
" />
</g>
<g style="fill:#000000; fill-opacity:0.0; 
stroke:#000000; stroke-width:19.685; stroke-opacity:1; 
stroke-linecap:round; stroke-linejoin:round;">
</g>
<g style="fill:#000000; fill-opacity:0.0; 
stroke:#000000; stroke-width:59.0551; stroke-opacity:1; 
stroke-linecap:round; stroke-linejoin:round;">
<path d="M82677 4724
L82677 3937
" />
</g>
<g style="fill:#000000; fill-opacity:0.0; 
stroke:#000000; stroke-width:19.685; stroke-opacity:1; 
stroke-linecap:round; stroke-linejoin:round;">
</g>
<g style="fill:#000000; fill-opacity:0.0; 
stroke:#000000; stroke-width:59.0551; stroke-opacity:1; 
stroke-linecap:round; stroke-linejoin:round;">
<path d="M102362 4724
L102362 3937
" />
</g>
<g style="fill:#000000; fill-opacity:0.0; 
stroke:#000000; stroke-width:19.685; stroke-opacity:1; 
stroke-linecap:round; stroke-linejoin:round;">
</g>
<g style="fill:#000000; fill-opacity:0.0; 
stroke:#000000; stroke-width:59.0551; stroke-opacity:1; 
stroke-linecap:round; stroke-linejoin:round;">
<path d="M14169 4562
L13877 4562
" />
<path d="M14023 4562
L14023 4050
L13974 4123
L13925 4172
L13877 4196
" />
</g>
<g style="fill:#000000; fill-opacity:0.0; 
stroke:#000000; stroke-width:19.685; stroke-opacity:1; 
stroke-linecap:round; stroke-linejoin:round;">
</g>
<g style="fill:#000000; fill-opacity:0.0; 
stroke:#000000; stroke-width:59.0551; stroke-opacity:1; 
stroke-linecap:round; stroke-linejoin:round;">
<path d="M33562 4099
L33586 4074
L33635 4050
L33757 4050
L33805 4074
L33830 4099
L33854 4147
L33854 4196
L33830 4269
L33537 4562
L33854 4562
" />
</g>
<g style="fill:#000000; fill-opacity:0.0; 
stroke:#000000; stroke-width:19.685; stroke-opacity:1; 
stroke-linecap:round; stroke-linejoin:round;">
</g>
<g style="fill:#000000; fill-opacity:0.0; 
stroke:#000000; stroke-width:59.0551; stroke-opacity:1; 
stroke-linecap:round; stroke-linejoin:round;">
<path d="M53222 4050
L53539 4050
L53368 4245
L53442 4245
L53490 4269
L53515 4294
L53539 4342
L53539 4464
L53515 4513
L53490 4537
L53442 4562
L53295 4562
L53247 4537
L53222 4513
" />
</g>
<g style="fill:#000000; fill-opacity:0.0; 
stroke:#000000; stroke-width:19.685; stroke-opacity:1; 
stroke-linecap:round; stroke-linejoin:round;">
</g>
<g style="fill:#000000; fill-opacity:0.0; 
stroke:#000000; stroke-width:59.0551; stroke-opacity:1; 
stroke-linecap:round; stroke-linejoin:round;">
<path d="M73175 4221
L73175 4562
" />
<path d="M73053 4026
L72932 4391
L73248 4391
" />
</g>
<g style="fill:#000000; fill-opacity:0.0; 
stroke:#000000; stroke-width:19.685; stroke-opacity:1; 
stroke-linecap:round; stroke-linejoin:round;">
</g>
<g style="fill:#000000; fill-opacity:0.0; 
stroke:#000000; stroke-width:59.0551; stroke-opacity:1; 
stroke-linecap:round; stroke-linejoin:round;">
<path d="M92885 4050
L92641 4050
L92617 4294
L92641 4269
L92690 4245
L92812 4245
L92860 4269
L92885 4294
L92909 4342
L92909 4464
L92885 4513
L92860 4537
L92812 4562
L92690 4562
L92641 4537
L92617 4513
" />
</g>
<g style="fill:#000000; fill-opacity:0.0; 
stroke:#000000; stroke-width:19.685; stroke-opacity:1; 
stroke-linecap:round; stroke-linejoin:round;">
</g>
<g style="fill:#000000; fill-opacity:0.0; 
stroke:#000000; stroke-width:59.0551; stroke-opacity:1; 
stroke-linecap:round; stroke-linejoin:round;">
<path d="M112545 4050
L112448 4050
L112399 4074
L112375 4099
L112326 4172
L112302 4269
L112302 4464
L112326 4513
L112350 4537
L112399 4562
L112497 4562
L112545 4537
L112570 4513
L112594 4464
L112594 4342
L112570 4294
L112545 4269
L112497 4245
L112399 4245
L112350 4269
L112326 4294
L112302 4342
" />
</g>
<g style="fill:#000000; fill-opacity:0.0; 
stroke:#000000; stroke-width:19.685; stroke-opacity:1; 
stroke-linecap:round; stroke-linejoin:round;">
</g>
<g style="fill:#000000; fill-opacity:0.0; 
stroke:#000000; stroke-width:59.0551; stroke-opacity:1; 
stroke-linecap:round; stroke-linejoin:round;">
<path d="M23622 77955
L23622 78742
" />
</g>
<g style="fill:#000000; fill-opacity:0.0; 
stroke:#000000; stroke-width:19.685; stroke-opacity:1; 
stroke-linecap:round; stroke-linejoin:round;">
</g>
<g style="fill:#000000; fill-opacity:0.0; 
stroke:#000000; stroke-width:59.0551; stroke-opacity:1; 
stroke-linecap:round; stroke-linejoin:round;">
<path d="M43307 77955
L43307 78742
" />
</g>
<g style="fill:#000000; fill-opacity:0.0; 
stroke:#000000; stroke-width:19.685; stroke-opacity:1; 
stroke-linecap:round; stroke-linejoin:round;">
</g>
<g style="fill:#000000; fill-opacity:0.0; 
stroke:#000000; stroke-width:59.0551; stroke-opacity:1; 
stroke-linecap:round; stroke-linejoin:round;">
<path d="M62992 77955
L62992 78742
" />
</g>
<g style="fill:#000000; fill-opacity:0.0; 
stroke:#000000; stroke-width:19.685; stroke-opacity:1; 
stroke-linecap:round; stroke-linejoin:round;">
</g>
<g style="fill:#000000; fill-opacity:0.0; 
stroke:#000000; stroke-width:59.0551; stroke-opacity:1; 
stroke-linecap:round; stroke-linejoin:round;">
<path d="M82677 77955
L82677 78742
" />
</g>
<g style="fill:#000000; fill-opacity:0.0; 
stroke:#000000; stroke-width:19.685; stroke-opacity:1; 
stroke-linecap:round; stroke-linejoin:round;">
</g>
<g style="fill:#000000; fill-opacity:0.0; 
stroke:#000000; stroke-width:59.0551; stroke-opacity:1; 
stroke-linecap:round; stroke-linejoin:round;">
<path d="M102362 77955
L102362 78742
" />
</g>
<g style="fill:#000000; fill-opacity:0.0; 
stroke:#000000; stroke-width:19.685; stroke-opacity:1; 
stroke-linecap:round; stroke-linejoin:round;">
</g>
<g style="fill:#000000; fill-opacity:0.0; 
stroke:#000000; stroke-width:59.0551; stroke-opacity:1; 
stroke-linecap:round; stroke-linejoin:round;">
<path d="M14169 78580
L13877 78580
" />
<path d="M14023 78580
L14023 78069
L13974 78142
L13925 78190
L13877 78215
" />
</g>
<g style="fill:#000000; fill-opacity:0.0; 
stroke:#000000; stroke-width:19.685; stroke-opacity:1; 
stroke-linecap:round; stroke-linejoin:round;">
</g>
<g style="fill:#000000; fill-opacity:0.0; 
stroke:#000000; stroke-width:59.0551; stroke-opacity:1; 
stroke-linecap:round; stroke-linejoin:round;">
<path d="M33562 78117
L33586 78093
L33635 78069
L33757 78069
L33805 78093
L33830 78117
L33854 78166
L33854 78215
L33830 78288
L33537 78580
L33854 78580
" />
</g>
<g style="fill:#000000; fill-opacity:0.0; 
stroke:#000000; stroke-width:19.685; stroke-opacity:1; 
stroke-linecap:round; stroke-linejoin:round;">
</g>
<g style="fill:#000000; fill-opacity:0.0; 
stroke:#000000; stroke-width:59.0551; stroke-opacity:1; 
stroke-linecap:round; stroke-linejoin:round;">
<path d="M53222 78069
L53539 78069
L53368 78263
L53442 78263
L53490 78288
L53515 78312
L53539 78361
L53539 78483
L53515 78532
L53490 78556
L53442 78580
L53295 78580
L53247 78556
L53222 78532
" />
</g>
<g style="fill:#000000; fill-opacity:0.0; 
stroke:#000000; stroke-width:19.685; stroke-opacity:1; 
stroke-linecap:round; stroke-linejoin:round;">
</g>
<g style="fill:#000000; fill-opacity:0.0; 
stroke:#000000; stroke-width:59.0551; stroke-opacity:1; 
stroke-linecap:round; stroke-linejoin:round;">
<path d="M73175 78239
L73175 78580
" />
<path d="M73053 78044
L72932 78410
L73248 78410
" />
</g>
<g style="fill:#000000; fill-opacity:0.0; 
stroke:#000000; stroke-width:19.685; stroke-opacity:1; 
stroke-linecap:round; stroke-linejoin:round;">
</g>
<g style="fill:#000000; fill-opacity:0.0; 
stroke:#000000; stroke-width:59.0551; stroke-opacity:1; 
stroke-linecap:round; stroke-linejoin:round;">
<path d="M92885 78069
L92641 78069
L92617 78312
L92641 78288
L92690 78263
L92812 78263
L92860 78288
L92885 78312
L92909 78361
L92909 78483
L92885 78532
L92860 78556
L92812 78580
L92690 78580
L92641 78556
L92617 78532
" />
</g>
<g style="fill:#000000; fill-opacity:0.0; 
stroke:#000000; stroke-width:19.685; stroke-opacity:1; 
stroke-linecap:round; stroke-linejoin:round;">
</g>
<g style="fill:#000000; fill-opacity:0.0; 
stroke:#000000; stroke-width:59.0551; stroke-opacity:1; 
stroke-linecap:round; stroke-linejoin:round;">
<path d="M112545 78069
L112448 78069
L112399 78093
L112375 78117
L112326 78190
L112302 78288
L112302 78483
L112326 78532
L112350 78556
L112399 78580
L112497 78580
L112545 78556
L112570 78532
L112594 78483
L112594 78361
L112570 78312
L112545 78288
L112497 78263
L112399 78263
L112350 78288
L112326 78312
L112302 78361
" />
</g>
<g style="fill:#000000; fill-opacity:0.0; 
stroke:#000000; stroke-width:19.685; stroke-opacity:1; 
stroke-linecap:round; stroke-linejoin:round;">
</g>
<g style="fill:#000000; fill-opacity:0.0; 
stroke:#000000; stroke-width:59.0551; stroke-opacity:1; 
stroke-linecap:round; stroke-linejoin:round;">
<path d="M3937 23622
L4724 23622
" />
</g>
<g style="fill:#000000; fill-opacity:0.0; 
stroke:#000000; stroke-width:19.685; stroke-opacity:1; 
stroke-linecap:round; stroke-linejoin:round;">
</g>
<g style="fill:#000000; fill-opacity:0.0; 
stroke:#000000; stroke-width:59.0551; stroke-opacity:1; 
stroke-linecap:round; stroke-linejoin:round;">
<path d="M3937 43307
L4724 43307
" />
</g>
<g style="fill:#000000; fill-opacity:0.0; 
stroke:#000000; stroke-width:19.685; stroke-opacity:1; 
stroke-linecap:round; stroke-linejoin:round;">
</g>
<g style="fill:#000000; fill-opacity:0.0; 
stroke:#000000; stroke-width:59.0551; stroke-opacity:1; 
stroke-linecap:round; stroke-linejoin:round;">
<path d="M3937 62992
L4724 62992
" />
</g>
<g style="fill:#000000; fill-opacity:0.0; 
stroke:#000000; stroke-width:19.685; stroke-opacity:1; 
stroke-linecap:round; stroke-linejoin:round;">
</g>
<g style="fill:#000000; fill-opacity:0.0; 
stroke:#000000; stroke-width:59.0551; stroke-opacity:1; 
stroke-linecap:round; stroke-linejoin:round;">
<path d="M4208 13864
L4452 13864
" />
<path d="M4160 14011
L4330 13499
L4501 14011
" />
</g>
<g style="fill:#000000; fill-opacity:0.0; 
stroke:#000000; stroke-width:19.685; stroke-opacity:1; 
stroke-linecap:round; stroke-linejoin:round;">
</g>
<g style="fill:#000000; fill-opacity:0.0; 
stroke:#000000; stroke-width:59.0551; stroke-opacity:1; 
stroke-linecap:round; stroke-linejoin:round;">
<path d="M4367 33428
L4440 33452
L4464 33476
L4489 33525
L4489 33598
L4464 33647
L4440 33671
L4391 33696
L4196 33696
L4196 33184
L4367 33184
L4416 33208
L4440 33233
L4464 33281
L4464 33330
L4440 33379
L4416 33403
L4367 33428
L4196 33428
" />
</g>
<g style="fill:#000000; fill-opacity:0.0; 
stroke:#000000; stroke-width:19.685; stroke-opacity:1; 
stroke-linecap:round; stroke-linejoin:round;">
</g>
<g style="fill:#000000; fill-opacity:0.0; 
stroke:#000000; stroke-width:59.0551; stroke-opacity:1; 
stroke-linecap:round; stroke-linejoin:round;">
<path d="M4489 53332
L4464 53356
L4391 53381
L4342 53381
L4269 53356
L4221 53308
L4196 53259
L4172 53161
L4172 53088
L4196 52991
L4221 52942
L4269 52893
L4342 52869
L4391 52869
L4464 52893
L4489 52918
" />
</g>
<g style="fill:#000000; fill-opacity:0.0; 
stroke:#000000; stroke-width:19.685; stroke-opacity:1; 
stroke-linecap:round; stroke-linejoin:round;">
</g>
<g style="fill:#000000; fill-opacity:0.0; 
stroke:#000000; stroke-width:59.0551; stroke-opacity:1; 
stroke-linecap:round; stroke-linejoin:round;">
<path d="M4196 73066
L4196 72554
L4318 72554
L4391 72578
L4440 72627
L4464 72676
L4489 72773
L4489 72846
L4464 72944
L4440 72993
L4391 73041
L4318 73066
L4196 73066
" />
</g>
<g style="fill:#000000; fill-opacity:0.0; 
stroke:#000000; stroke-width:19.685; stroke-opacity:1; 
stroke-linecap:round; stroke-linejoin:round;">
</g>
<g style="fill:#000000; fill-opacity:0.0; 
stroke:#000000; stroke-width:59.0551; stroke-opacity:1; 
stroke-linecap:round; stroke-linejoin:round;">
<path d="M112992 23622
L112205 23622
" />
</g>
<g style="fill:#000000; fill-opacity:0.0; 
stroke:#000000; stroke-width:19.685; stroke-opacity:1; 
stroke-linecap:round; stroke-linejoin:round;">
</g>
<g style="fill:#000000; fill-opacity:0.0; 
stroke:#000000; stroke-width:59.0551; stroke-opacity:1; 
stroke-linecap:round; stroke-linejoin:round;">
<path d="M112992 43307
L112205 43307
" />
</g>
<g style="fill:#000000; fill-opacity:0.0; 
stroke:#000000; stroke-width:19.685; stroke-opacity:1; 
stroke-linecap:round; stroke-linejoin:round;">
</g>
<g style="fill:#000000; fill-opacity:0.0; 
stroke:#000000; stroke-width:59.0551; stroke-opacity:1; 
stroke-linecap:round; stroke-linejoin:round;">
<path d="M112992 62992
L112205 62992
" />
</g>
<g style="fill:#000000; fill-opacity:0.0; 
stroke:#000000; stroke-width:19.685; stroke-opacity:1; 
stroke-linecap:round; stroke-linejoin:round;">
</g>
<g style="fill:#000000; fill-opacity:0.0; 
stroke:#000000; stroke-width:59.0551; stroke-opacity:1; 
stroke-linecap:round; stroke-linejoin:round;">
<path d="M112477 13864
L112721 13864
" />
<path d="M112428 14011
L112599 13499
L112769 14011
" />
</g>
<g style="fill:#000000; fill-opacity:0.0; 
stroke:#000000; stroke-width:19.685; stroke-opacity:1; 
stroke-linecap:round; stroke-linejoin:round;">
</g>
<g style="fill:#000000; fill-opacity:0.0; 
stroke:#000000; stroke-width:59.0551; stroke-opacity:1; 
stroke-linecap:round; stroke-linejoin:round;">
<path d="M112635 33428
L112708 33452
L112733 33476
L112757 33525
L112757 33598
L112733 33647
L112708 33671
L112660 33696
L112465 33696
L112465 33184
L112635 33184
L112684 33208
L112708 33233
L112733 33281
L112733 33330
L112708 33379
L112684 33403
L112635 33428
L112465 33428
" />
</g>
<g style="fill:#000000; fill-opacity:0.0; 
stroke:#000000; stroke-width:19.685; stroke-opacity:1; 
stroke-linecap:round; stroke-linejoin:round;">
</g>
<g style="fill:#000000; fill-opacity:0.0; 
stroke:#000000; stroke-width:59.0551; stroke-opacity:1; 
stroke-linecap:round; stroke-linejoin:round;">
<path d="M112757 53332
L112733 53356
L112660 53381
L112611 53381
L112538 53356
L112489 53308
L112465 53259
L112440 53161
L112440 53088
L112465 52991
L112489 52942
L112538 52893
L112611 52869
L112660 52869
L112733 52893
L112757 52918
" />
</g>
<g style="fill:#000000; fill-opacity:0.0; 
stroke:#000000; stroke-width:19.685; stroke-opacity:1; 
stroke-linecap:round; stroke-linejoin:round;">
</g>
<g style="fill:#000000; fill-opacity:0.0; 
stroke:#000000; stroke-width:59.0551; stroke-opacity:1; 
stroke-linecap:round; stroke-linejoin:round;">
<path d="M112465 73066
L112465 72554
L112587 72554
L112660 72578
L112708 72627
L112733 72676
L112757 72773
L112757 72846
L112733 72944
L112708 72993
L112660 73041
L112587 73066
L112465 73066
" />
</g>
<g style="fill:#000000; fill-opacity:0.0; 
stroke:#000000; stroke-width:19.685; stroke-opacity:1; 
stroke-linecap:round; stroke-linejoin:round;">
</g>
<g style="fill:#000000; fill-opacity:0.0; 
stroke:#000000; stroke-width:59.0551; stroke-opacity:1; 
stroke-linecap:round; stroke-linejoin:round;">
<path d="M78881 76293
L78881 75703
L79022 75703
L79106 75731
L79162 75787
L79190 75843
L79219 75956
L79219 76040
L79190 76153
L79162 76209
L79106 76265
L79022 76293
L78881 76293
" />
<path d="M79725 76293
L79725 75984
L79697 75928
L79640 75899
L79528 75899
L79472 75928
" />
<path d="M79725 76265
L79669 76293
L79528 76293
L79472 76265
L79444 76209
L79444 76153
L79472 76096
L79528 76068
L79669 76068
L79725 76040
" />
<path d="M79922 75899
L80147 75899
" />
<path d="M80006 75703
L80006 76209
L80034 76265
L80090 76293
L80147 76293
" />
<path d="M80568 76265
L80512 76293
L80400 76293
L80343 76265
L80315 76209
L80315 75984
L80343 75928
L80400 75899
L80512 75899
L80568 75928
L80597 75984
L80597 76040
L80315 76096
" />
<path d="M80850 76237
L80878 76265
L80850 76293
L80822 76265
L80850 76237
L80850 76293
" />
<path d="M80850 75928
L80878 75956
L80850 75984
L80822 75956
L80850 75928
L80850 75984
" />
<path d="M81553 75759
L81581 75731
L81637 75703
L81778 75703
L81834 75731
L81862 75759
L81890 75815
L81890 75871
L81862 75956
L81525 76293
L81890 76293
" />
<path d="M82453 76293
L82115 76293
" />
<path d="M82284 76293
L82284 75703
L82228 75787
L82171 75843
L82115 75871
" />
<path d="M83156 76293
L83156 75703
L83296 75703
L83381 75731
L83437 75787
L83465 75843
L83493 75956
L83493 76040
L83465 76153
L83437 76209
L83381 76265
L83296 76293
L83156 76293
" />
<path d="M83971 76265
L83915 76293
L83802 76293
L83746 76265
L83718 76209
L83718 75984
L83746 75928
L83802 75899
L83915 75899
L83971 75928
L83999 75984
L83999 76040
L83718 76096
" />
<path d="M84505 76265
L84449 76293
L84337 76293
L84280 76265
L84252 76237
L84224 76181
L84224 76012
L84252 75956
L84280 75928
L84337 75899
L84449 75899
L84505 75928
" />
<path d="M84983 76265
L84927 76293
L84815 76293
L84759 76265
L84730 76209
L84730 75984
L84759 75928
L84815 75899
L84927 75899
L84983 75928
L85012 75984
L85012 76040
L84730 76096
" />
<path d="M85265 76293
L85265 75899
" />
<path d="M85265 75956
L85293 75928
L85349 75899
L85433 75899
L85490 75928
L85518 75984
L85518 76293
" />
<path d="M85518 75984
L85546 75928
L85602 75899
L85687 75899
L85743 75928
L85771 75984
L85771 76293
" />
<path d="M86052 76293
L86052 75703
" />
<path d="M86052 75928
L86108 75899
L86221 75899
L86277 75928
L86305 75956
L86333 76012
L86333 76181
L86305 76237
L86277 76265
L86221 76293
L86108 76293
L86052 76265
" />
<path d="M86811 76265
L86755 76293
L86643 76293
L86586 76265
L86558 76209
L86558 75984
L86586 75928
L86643 75899
L86755 75899
L86811 75928
L86840 75984
L86840 76040
L86558 76096
" />
<path d="M87093 76293
L87093 75899
" />
<path d="M87093 76012
L87121 75956
L87149 75928
L87205 75899
L87261 75899
" />
<path d="M87880 75759
L87908 75731
L87964 75703
L88105 75703
L88161 75731
L88189 75759
L88217 75815
L88217 75871
L88189 75956
L87852 76293
L88217 76293
" />
<path d="M88583 75703
L88639 75703
L88696 75731
L88724 75759
L88752 75815
L88780 75928
L88780 76068
L88752 76181
L88724 76237
L88696 76265
L88639 76293
L88583 76293
L88527 76265
L88499 76237
L88471 76181
L88442 76068
L88442 75928
L88471 75815
L88499 75759
L88527 75731
L88583 75703
" />
<path d="M89342 76293
L89005 76293
" />
<path d="M89174 76293
L89174 75703
L89117 75787
L89061 75843
L89005 75871
" />
<path d="M89849 75899
L89849 76293
" />
<path d="M89708 75674
L89567 76096
L89933 76096
" />
</g>
<g style="fill:#000000; fill-opacity:0.0; 
stroke:#000000; stroke-width:19.685; stroke-opacity:1; 
stroke-linecap:round; stroke-linejoin:round;">
</g>
<g style="fill:#000000; fill-opacity:0.0; 
stroke:#000000; stroke-width:59.0551; stroke-opacity:1; 
stroke-linecap:round; stroke-linejoin:round;">
<path d="M69685 76577
L112205 76577
" />
</g>
<g style="fill:#000000; fill-opacity:0.0; 
stroke:#000000; stroke-width:19.685; stroke-opacity:1; 
stroke-linecap:round; stroke-linejoin:round;">
</g>
<g style="fill:#000000; fill-opacity:0.0; 
stroke:#000000; stroke-width:59.0551; stroke-opacity:1; 
stroke-linecap:round; stroke-linejoin:round;">
<path d="M70220 77395
L70220 76805
" />
<path d="M70557 77395
L70304 77058
" />
<path d="M70557 76805
L70220 77142
" />
<path d="M70810 77395
L70810 77002
" />
<path d="M70810 76805
L70782 76833
L70810 76861
L70838 76833
L70810 76805
L70810 76861
" />
<path d="M71429 77339
L71401 77367
L71316 77395
L71260 77395
L71176 77367
L71120 77311
L71091 77255
L71063 77142
L71063 77058
L71091 76946
L71120 76889
L71176 76833
L71260 76805
L71316 76805
L71401 76833
L71429 76861
" />
<path d="M71935 77395
L71935 77086
L71907 77030
L71851 77002
L71738 77002
L71682 77030
" />
<path d="M71935 77367
L71879 77395
L71738 77395
L71682 77367
L71654 77311
L71654 77255
L71682 77199
L71738 77171
L71879 77171
L71935 77142
" />
<path d="M72469 77395
L72469 76805
" />
<path d="M72469 77367
L72413 77395
L72301 77395
L72244 77367
L72216 77339
L72188 77283
L72188 77114
L72216 77058
L72244 77030
L72301 77002
L72413 77002
L72469 77030
" />
<path d="M73201 77086
L73397 77086
" />
<path d="M73482 77395
L73201 77395
L73201 76805
L73482 76805
" />
<path d="M73735 77339
L73763 77367
L73735 77395
L73707 77367
L73735 77339
L73735 77395
" />
<path d="M74016 77395
L74016 76805
L74157 76805
L74241 76833
L74297 76889
L74325 76946
L74354 77058
L74354 77142
L74325 77255
L74297 77311
L74241 77367
L74157 77395
L74016 77395
" />
<path d="M74607 77339
L74635 77367
L74607 77395
L74579 77367
L74607 77339
L74607 77395
" />
<path d="M74860 77227
L75141 77227
" />
<path d="M74804 77395
L75000 76805
L75197 77395
" />
<path d="M75394 77339
L75422 77367
L75394 77395
L75366 77367
L75394 77339
L75394 77395
" />
<path d="M76575 77395
L76575 76805
" />
<path d="M76631 77171
L76800 77395
" />
<path d="M76800 77002
L76575 77227
" />
<path d="M77053 77395
L77053 77002
" />
<path d="M77053 76805
L77025 76833
L77053 76861
L77081 76833
L77053 76805
L77053 76861
" />
<path d="M77588 77367
L77531 77395
L77419 77395
L77363 77367
L77334 77339
L77306 77283
L77306 77114
L77334 77058
L77363 77030
L77419 77002
L77531 77002
L77588 77030
" />
<path d="M78094 77395
L78094 77086
L78066 77030
L78009 77002
L77897 77002
L77841 77030
" />
<path d="M78094 77367
L78037 77395
L77897 77395
L77841 77367
L77813 77311
L77813 77255
L77841 77199
L77897 77171
L78037 77171
L78094 77142
" />
<path d="M78628 77395
L78628 76805
" />
<path d="M78628 77367
L78572 77395
L78459 77395
L78403 77367
L78375 77339
L78347 77283
L78347 77114
L78375 77058
L78403 77030
L78459 77002
L78572 77002
L78628 77030
" />
<path d="M79528 77620
L79500 77592
L79444 77508
L79415 77452
L79387 77367
L79359 77227
L79359 77114
L79387 76974
L79415 76889
L79444 76833
L79500 76749
L79528 76721
" />
<path d="M79725 76861
L79753 76833
L79809 76805
L79950 76805
L80006 76833
L80034 76861
L80062 76917
L80062 76974
L80034 77058
L79697 77395
L80062 77395
" />
<path d="M80428 76805
L80484 76805
L80540 76833
L80568 76861
L80597 76917
L80625 77030
L80625 77171
L80597 77283
L80568 77339
L80540 77367
L80484 77395
L80428 77395
L80372 77367
L80343 77339
L80315 77283
L80287 77171
L80287 77030
L80315 76917
L80343 76861
L80372 76833
L80428 76805
" />
<path d="M81187 77395
L80850 77395
" />
<path d="M81018 77395
L81018 76805
L80962 76889
L80906 76946
L80850 76974
" />
<path d="M81693 77002
L81693 77395
" />
<path d="M81553 76777
L81412 77199
L81778 77199
" />
<path d="M82003 77171
L82453 77171
" />
<path d="M83043 77395
L82706 77395
" />
<path d="M82874 77395
L82874 76805
L82818 76889
L82762 76946
L82706 76974
" />
<path d="M83268 76861
L83296 76833
L83352 76805
L83493 76805
L83549 76833
L83577 76861
L83606 76917
L83606 76974
L83577 77058
L83240 77395
L83606 77395
" />
<path d="M83859 77171
L84309 77171
" />
<path d="M84562 76861
L84590 76833
L84646 76805
L84787 76805
L84843 76833
L84871 76861
L84899 76917
L84899 76974
L84871 77058
L84534 77395
L84899 77395
" />
<path d="M85405 76805
L85293 76805
L85237 76833
L85208 76861
L85152 76946
L85124 77058
L85124 77283
L85152 77339
L85180 77367
L85237 77395
L85349 77395
L85405 77367
L85433 77339
L85462 77283
L85462 77142
L85433 77086
L85405 77058
L85349 77030
L85237 77030
L85180 77058
L85152 77086
L85124 77142
" />
<path d="M86361 77086
L86446 77114
L86474 77142
L86502 77199
L86502 77283
L86474 77339
L86446 77367
L86390 77395
L86165 77395
L86165 76805
L86361 76805
L86418 76833
L86446 76861
L86474 76917
L86474 76974
L86446 77030
L86418 77058
L86361 77086
L86165 77086
" />
<path d="M86699 76805
L87093 76805
L86699 77395
L87093 77395
" />
<path d="M87655 77395
L87458 77114
" />
<path d="M87318 77395
L87318 76805
L87543 76805
L87599 76833
L87627 76861
L87655 76917
L87655 77002
L87627 77058
L87599 77086
L87543 77114
L87318 77114
" />
<path d="M88639 76805
L88358 76805
L88330 77086
L88358 77058
L88414 77030
L88555 77030
L88611 77058
L88639 77086
L88667 77142
L88667 77283
L88639 77339
L88611 77367
L88555 77395
L88414 77395
L88358 77367
L88330 77339
" />
<path d="M88864 76805
L89230 76805
L89033 77030
L89117 77030
L89174 77058
L89202 77086
L89230 77142
L89230 77283
L89202 77339
L89174 77367
L89117 77395
L88949 77395
L88892 77367
L88864 77339
" />
<path d="M89427 76805
L89792 76805
L89595 77030
L89680 77030
L89736 77058
L89764 77086
L89792 77142
L89792 77283
L89764 77339
L89736 77367
L89680 77395
L89511 77395
L89455 77367
L89427 77339
" />
<path d="M90130 77058
L90073 77030
L90045 77002
L90017 76946
L90017 76917
L90045 76861
L90073 76833
L90130 76805
L90242 76805
L90298 76833
L90327 76861
L90355 76917
L90355 76946
L90327 77002
L90298 77030
L90242 77058
L90130 77058
L90073 77086
L90045 77114
L90017 77171
L90017 77283
L90045 77339
L90073 77367
L90130 77395
L90242 77395
L90298 77367
L90327 77339
L90355 77283
L90355 77171
L90327 77114
L90298 77086
L90242 77058
" />
<path d="M90552 77620
L90580 77592
L90636 77508
L90664 77452
L90692 77367
L90720 77227
L90720 77114
L90692 76974
L90664 76889
L90636 76833
L90580 76749
L90552 76721
" />
<path d="M91001 77171
L91451 77171
" />
<path d="M91733 77002
L91733 77592
" />
<path d="M91733 77030
L91789 77002
L91901 77002
L91958 77030
L91986 77058
L92014 77114
L92014 77283
L91986 77339
L91958 77367
L91901 77395
L91789 77395
L91733 77367
" />
<path d="M92267 77395
L92267 77002
" />
<path d="M92267 77114
L92295 77058
L92323 77030
L92379 77002
L92436 77002
" />
<path d="M92717 77395
L92661 77367
L92633 77339
L92604 77283
L92604 77114
L92633 77058
L92661 77030
L92717 77002
L92801 77002
L92858 77030
L92886 77058
L92914 77114
L92914 77283
L92886 77339
L92858 77367
L92801 77395
L92717 77395
" />
<path d="M93420 77395
L93420 76805
" />
<path d="M93420 77367
L93364 77395
L93251 77395
L93195 77367
L93167 77339
L93139 77283
L93139 77114
L93167 77058
L93195 77030
L93251 77002
L93364 77002
L93420 77030
" />
<path d="M93954 77002
L93954 77395
" />
<path d="M93701 77002
L93701 77311
L93729 77367
L93786 77395
L93870 77395
L93926 77367
L93954 77339
" />
<path d="M94489 77367
L94432 77395
L94320 77395
L94264 77367
L94235 77339
L94207 77283
L94207 77114
L94235 77058
L94264 77030
L94320 77002
L94432 77002
L94489 77030
" />
<path d="M94657 77002
L94882 77002
" />
<path d="M94742 76805
L94742 77311
L94770 77367
L94826 77395
L94882 77395
" />
</g>
<g style="fill:#000000; fill-opacity:0.0; 
stroke:#000000; stroke-width:19.685; stroke-opacity:1; 
stroke-linecap:round; stroke-linejoin:round;">
</g>
<g style="fill:#000000; fill-opacity:0.0; 
stroke:#000000; stroke-width:59.0551; stroke-opacity:1; 
stroke-linecap:round; stroke-linejoin:round;">
<path d="M69685 75396
L112205 75396
" />
</g>
<g style="fill:#000000; fill-opacity:0.0; 
stroke:#000000; stroke-width:19.685; stroke-opacity:1; 
stroke-linecap:round; stroke-linejoin:round;">
</g>
<g style="fill:#000000; fill-opacity:0.0; 
stroke:#000000; stroke-width:118.11; stroke-opacity:1; 
stroke-linecap:round; stroke-linejoin:round;">
<path d="M104022 76293
L103825 76012
" />
<path d="M103684 76293
L103684 75703
L103909 75703
L103965 75731
L103994 75759
L104022 75815
L104022 75899
L103994 75956
L103965 75984
L103909 76012
L103684 76012
" />
<path d="M104500 76265
L104444 76293
L104331 76293
L104275 76265
L104247 76209
L104247 75984
L104275 75928
L104331 75899
L104444 75899
L104500 75928
L104528 75984
L104528 76040
L104247 76096
" />
<path d="M104725 75899
L104865 76293
L105006 75899
" />
<path d="M105231 76237
L105259 76265
L105231 76293
L105203 76265
L105231 76237
L105231 76293
" />
<path d="M105231 75928
L105259 75956
L105231 75984
L105203 75956
L105231 75928
L105231 75984
" />
<path d="M106075 75703
L106131 75703
L106187 75731
L106215 75759
L106243 75815
L106271 75928
L106271 76068
L106243 76181
L106215 76237
L106187 76265
L106131 76293
L106075 76293
L106018 76265
L105990 76237
L105962 76181
L105934 76068
L105934 75928
L105962 75815
L105990 75759
L106018 75731
L106075 75703
" />
<path d="M106525 76237
L106553 76265
L106525 76293
L106496 76265
L106525 76237
L106525 76293
" />
<path d="M107115 76293
L106778 76293
" />
<path d="M106946 76293
L106946 75703
L106890 75787
L106834 75843
L106778 75871
" />
</g>
<g style="fill:#000000; fill-opacity:0.0; 
stroke:#000000; stroke-width:19.685; stroke-opacity:1; 
stroke-linecap:round; stroke-linejoin:round;">
</g>
<g style="fill:#000000; fill-opacity:0.0; 
stroke:#000000; stroke-width:59.0551; stroke-opacity:1; 
stroke-linecap:round; stroke-linejoin:round;">
<path d="M70192 76265
L70276 76293
L70417 76293
L70473 76265
L70501 76237
L70529 76181
L70529 76124
L70501 76068
L70473 76040
L70417 76012
L70304 75984
L70248 75956
L70220 75928
L70192 75871
L70192 75815
L70220 75759
L70248 75731
L70304 75703
L70445 75703
L70529 75731
" />
<path d="M70782 76293
L70782 75899
" />
<path d="M70782 75703
L70754 75731
L70782 75759
L70810 75731
L70782 75703
L70782 75759
" />
<path d="M71007 75899
L71316 75899
L71007 76293
L71316 76293
" />
<path d="M71766 76265
L71710 76293
L71598 76293
L71541 76265
L71513 76209
L71513 75984
L71541 75928
L71598 75899
L71710 75899
L71766 75928
L71795 75984
L71795 76040
L71513 76096
" />
<path d="M72048 76237
L72076 76265
L72048 76293
L72019 76265
L72048 76237
L72048 76293
" />
<path d="M72048 75928
L72076 75956
L72048 75984
L72019 75956
L72048 75928
L72048 75984
" />
<path d="M72751 76124
L73032 76124
" />
<path d="M72694 76293
L72891 75703
L73088 76293
" />
<path d="M73538 75899
L73538 76293
" />
<path d="M73397 75674
L73257 76096
L73622 76096
" />
</g>
<g style="fill:#000000; fill-opacity:0.0; 
stroke:#000000; stroke-width:19.685; stroke-opacity:1; 
stroke-linecap:round; stroke-linejoin:round;">
</g>
<g style="fill:#000000; fill-opacity:0.0; 
stroke:#000000; stroke-width:59.0551; stroke-opacity:1; 
stroke-linecap:round; stroke-linejoin:round;">
<path d="M103684 77395
L103684 76805
" />
<path d="M104219 77395
L104219 76805
" />
<path d="M104219 77367
L104162 77395
L104050 77395
L103994 77367
L103965 77339
L103937 77283
L103937 77114
L103965 77058
L103994 77030
L104050 77002
L104162 77002
L104219 77030
" />
<path d="M104500 77339
L104528 77367
L104500 77395
L104472 77367
L104500 77339
L104500 77395
" />
<path d="M104500 77030
L104528 77058
L104500 77086
L104472 77058
L104500 77030
L104500 77086
" />
<path d="M105540 77395
L105203 77395
" />
<path d="M105372 77395
L105372 76805
L105315 76889
L105259 76946
L105203 76974
" />
<path d="M106215 76777
L105709 77536
" />
<path d="M106721 77395
L106384 77395
" />
<path d="M106553 77395
L106553 76805
L106496 76889
L106440 76946
L106384 76974
" />
</g>
<g style="fill:#000000; fill-opacity:0.0; 
stroke:#000000; stroke-width:19.685; stroke-opacity:1; 
stroke-linecap:round; stroke-linejoin:round;">
</g>
<g style="fill:#000000; fill-opacity:0.0; 
stroke:#000000; stroke-width:59.0551; stroke-opacity:1; 
stroke-linecap:round; stroke-linejoin:round;">
<path d="M69685 73821
L112205 73821
" />
</g>
<g style="fill:#000000; fill-opacity:0.0; 
stroke:#000000; stroke-width:19.685; stroke-opacity:1; 
stroke-linecap:round; stroke-linejoin:round;">
</g>
<g style="fill:#000000; fill-opacity:0.0; 
stroke:#000000; stroke-width:157.48; stroke-opacity:1; 
stroke-linecap:round; stroke-linejoin:round;">
<path d="M70257 74099
L70707 74099
" />
<path d="M70384 74886
L70482 74099
" />
<path d="M70871 74886
L70937 74361
" />
<path d="M70970 74099
L70927 74136
L70960 74174
L71002 74136
L70970 74099
L70960 74174
" />
<path d="M71199 74361
L71499 74361
" />
<path d="M71345 74099
L71260 74774
L71288 74849
L71359 74886
L71434 74886
" />
<path d="M71809 74886
L71738 74849
L71710 74774
L71795 74099
" />
<path d="M72413 74849
L72334 74886
L72184 74886
L72113 74849
L72085 74774
L72123 74474
L72169 74399
L72249 74361
L72399 74361
L72469 74399
L72498 74474
L72488 74549
L72104 74624
" />
<path d="M72793 74811
L72826 74849
L72783 74886
L72751 74849
L72793 74811
L72783 74886
" />
<path d="M72844 74399
L72877 74436
L72835 74474
L72802 74436
L72844 74399
L72835 74474
" />
<path d="M74133 74886
L73758 74886
L73857 74099
" />
<path d="M74447 74474
L74710 74474
" />
<path d="M74771 74886
L74396 74886
L74494 74099
L74869 74099
" />
<path d="M75108 74886
L75207 74099
L75394 74099
L75502 74136
L75567 74211
L75596 74286
L75614 74436
L75600 74549
L75544 74699
L75497 74774
L75413 74849
L75296 74886
L75108 74886
" />
<path d="M76810 74474
L76917 74511
L76950 74549
L76978 74624
L76964 74736
L76917 74811
L76875 74849
L76795 74886
L76495 74886
L76594 74099
L76856 74099
L76927 74136
L76959 74174
L76988 74249
L76978 74324
L76931 74399
L76889 74436
L76810 74474
L76547 74474
" />
<path d="M77395 74886
L77325 74849
L77292 74811
L77264 74736
L77292 74511
L77339 74436
L77381 74399
L77461 74361
L77573 74361
L77644 74399
L77677 74436
L77705 74511
L77677 74736
L77630 74811
L77588 74849
L77508 74886
L77395 74886
" />
<path d="M78333 74886
L78384 74474
L78356 74399
L78286 74361
L78136 74361
L78056 74399
" />
<path d="M78337 74849
L78258 74886
L78070 74886
L78000 74849
L77972 74774
L77981 74699
L78028 74624
L78108 74586
L78295 74586
L78375 74549
" />
<path d="M78708 74886
L78773 74361
" />
<path d="M78755 74511
L78801 74436
L78844 74399
L78923 74361
L78998 74361
" />
<path d="M79533 74886
L79631 74099
" />
<path d="M79537 74849
L79458 74886
L79308 74886
L79237 74849
L79205 74811
L79176 74736
L79205 74511
L79251 74436
L79294 74399
L79373 74361
L79523 74361
L79594 74399
" />
<path d="M80507 74886
L80606 74099
L80906 74099
L80976 74136
L81009 74174
L81037 74249
L81023 74361
L80976 74436
L80934 74474
L80854 74511
L80554 74511
" />
<path d="M81754 74811
L81712 74849
L81595 74886
L81520 74886
L81412 74849
L81346 74774
L81318 74699
L81300 74549
L81314 74436
L81370 74286
L81417 74211
L81501 74136
L81618 74099
L81693 74099
L81801 74136
L81834 74174
" />
<path d="M82396 74474
L82504 74511
L82537 74549
L82565 74624
L82551 74736
L82504 74811
L82462 74849
L82382 74886
L82082 74886
L82181 74099
L82443 74099
L82513 74136
L82546 74174
L82574 74249
L82565 74324
L82518 74399
L82476 74436
L82396 74474
L82134 74474
" />
</g>
<g style="fill:#000000; fill-opacity:0.0; 
stroke:#000000; stroke-width:19.685; stroke-opacity:1; 
stroke-linecap:round; stroke-linejoin:round;">
</g>
<g style="fill:#000000; fill-opacity:0.0; 
stroke:#000000; stroke-width:59.0551; stroke-opacity:1; 
stroke-linecap:round; stroke-linejoin:round;">
<path d="M70417 73070
L70220 73070
" />
<path d="M70220 73380
L70220 72789
L70501 72789
" />
<path d="M70726 73380
L70726 72986
" />
<path d="M70726 72789
L70698 72817
L70726 72845
L70754 72817
L70726 72789
L70726 72845
" />
<path d="M71091 73380
L71035 73352
L71007 73295
L71007 72789
" />
<path d="M71541 73352
L71485 73380
L71373 73380
L71316 73352
L71288 73295
L71288 73070
L71316 73014
L71373 72986
L71485 72986
L71541 73014
L71570 73070
L71570 73127
L71288 73183
" />
<path d="M71823 73323
L71851 73352
L71823 73380
L71795 73352
L71823 73323
L71823 73380
" />
<path d="M71823 73014
L71851 73042
L71823 73070
L71795 73042
L71823 73014
L71823 73070
" />
<path d="M72835 73380
L72554 73380
L72554 72789
" />
<path d="M73032 73070
L73229 73070
" />
<path d="M73313 73380
L73032 73380
L73032 72789
L73313 72789
" />
<path d="M73566 73380
L73566 72789
L73707 72789
L73791 72817
L73847 72874
L73876 72930
L73904 73042
L73904 73127
L73876 73239
L73847 73295
L73791 73352
L73707 73380
L73566 73380
" />
<path d="M74016 73436
L74466 73436
" />
<path d="M74804 73070
L74888 73099
L74916 73127
L74944 73183
L74944 73267
L74916 73323
L74888 73352
L74832 73380
L74607 73380
L74607 72789
L74804 72789
L74860 72817
L74888 72845
L74916 72902
L74916 72958
L74888 73014
L74860 73042
L74804 73070
L74607 73070
" />
<path d="M75282 73380
L75225 73352
L75197 73323
L75169 73267
L75169 73099
L75197 73042
L75225 73014
L75282 72986
L75366 72986
L75422 73014
L75450 73042
L75478 73099
L75478 73267
L75450 73323
L75422 73352
L75366 73380
L75282 73380
" />
<path d="M75985 73380
L75985 73070
L75956 73014
L75900 72986
L75788 72986
L75732 73014
" />
<path d="M75985 73352
L75928 73380
L75788 73380
L75732 73352
L75703 73295
L75703 73239
L75732 73183
L75788 73155
L75928 73155
L75985 73127
" />
<path d="M76266 73380
L76266 72986
" />
<path d="M76266 73099
L76294 73042
L76322 73014
L76378 72986
L76435 72986
" />
<path d="M76885 73380
L76885 72789
" />
<path d="M76885 73352
L76828 73380
L76716 73380
L76660 73352
L76631 73323
L76603 73267
L76603 73099
L76631 73042
L76660 73014
L76716 72986
L76828 72986
L76885 73014
" />
<path d="M77025 73436
L77475 73436
" />
<path d="M77616 73380
L77616 72789
L77841 72789
L77897 72817
L77925 72845
L77953 72902
L77953 72986
L77925 73042
L77897 73070
L77841 73099
L77616 73099
" />
<path d="M78544 73323
L78516 73352
L78431 73380
L78375 73380
L78291 73352
L78234 73295
L78206 73239
L78178 73127
L78178 73042
L78206 72930
L78234 72874
L78291 72817
L78375 72789
L78431 72789
L78516 72817
L78544 72845
" />
<path d="M78994 73070
L79078 73099
L79106 73127
L79134 73183
L79134 73267
L79106 73323
L79078 73352
L79022 73380
L78797 73380
L78797 72789
L78994 72789
L79050 72817
L79078 72845
L79106 72902
L79106 72958
L79078 73014
L79050 73042
L78994 73070
L78797 73070
" />
<path d="M79387 73323
L79415 73352
L79387 73380
L79359 73352
L79387 73323
L79387 73380
" />
<path d="M79669 73380
L79669 72789
" />
<path d="M79725 73155
L79894 73380
" />
<path d="M79894 72986
L79669 73211
" />
<path d="M80147 73380
L80147 72986
" />
<path d="M80147 72789
L80118 72817
L80147 72845
L80175 72817
L80147 72789
L80147 72845
" />
<path d="M80681 73352
L80625 73380
L80512 73380
L80456 73352
L80428 73323
L80400 73267
L80400 73099
L80428 73042
L80456 73014
L80512 72986
L80625 72986
L80681 73014
" />
<path d="M81187 73380
L81187 73070
L81159 73014
L81103 72986
L80990 72986
L80934 73014
" />
<path d="M81187 73352
L81131 73380
L80990 73380
L80934 73352
L80906 73295
L80906 73239
L80934 73183
L80990 73155
L81131 73155
L81187 73127
" />
<path d="M81721 73380
L81721 72789
" />
<path d="M81721 73352
L81665 73380
L81553 73380
L81496 73352
L81468 73323
L81440 73267
L81440 73099
L81468 73042
L81496 73014
L81553 72986
L81665 72986
L81721 73014
" />
<path d="M81862 73436
L82312 73436
" />
<path d="M82453 72986
L82453 73577
" />
<path d="M82453 73014
L82509 72986
L82621 72986
L82678 73014
L82706 73042
L82734 73099
L82734 73267
L82706 73323
L82678 73352
L82621 73380
L82509 73380
L82453 73352
" />
<path d="M83240 73352
L83184 73380
L83071 73380
L83015 73352
L82987 73323
L82959 73267
L82959 73099
L82987 73042
L83015 73014
L83071 72986
L83184 72986
L83240 73014
" />
<path d="M83493 73380
L83493 72789
" />
<path d="M83493 73014
L83549 72986
L83662 72986
L83718 73014
L83746 73042
L83774 73099
L83774 73267
L83746 73323
L83718 73352
L83662 73380
L83549 73380
L83493 73352
" />
</g>
<g style="fill:#000000; fill-opacity:0.0; 
stroke:#000000; stroke-width:19.685; stroke-opacity:1; 
stroke-linecap:round; stroke-linejoin:round;">
</g>
<g style="fill:#000000; fill-opacity:0.0; 
stroke:#000000; stroke-width:59.0551; stroke-opacity:1; 
stroke-linecap:round; stroke-linejoin:round;">
<path d="M69685 71459
L112205 71459
" />
</g>
<g style="fill:#000000; fill-opacity:0.0; 
stroke:#000000; stroke-width:19.685; stroke-opacity:1; 
stroke-linecap:round; stroke-linejoin:round;">
</g>
<g style="fill:#000000; fill-opacity:0.0; 
stroke:#000000; stroke-width:59.0551; stroke-opacity:1; 
stroke-linecap:round; stroke-linejoin:round;">
<path d="M70192 72289
L70276 72317
L70417 72317
L70473 72289
L70501 72260
L70529 72204
L70529 72148
L70501 72092
L70473 72064
L70417 72036
L70304 72007
L70248 71979
L70220 71951
L70192 71895
L70192 71839
L70220 71782
L70248 71754
L70304 71726
L70445 71726
L70529 71754
" />
<path d="M70782 72317
L70782 71726
" />
<path d="M71035 72317
L71035 72007
L71007 71951
L70951 71923
L70867 71923
L70810 71951
L70782 71979
" />
<path d="M71541 72289
L71485 72317
L71373 72317
L71316 72289
L71288 72232
L71288 72007
L71316 71951
L71373 71923
L71485 71923
L71541 71951
L71570 72007
L71570 72064
L71288 72120
" />
<path d="M72048 72289
L71991 72317
L71879 72317
L71823 72289
L71795 72232
L71795 72007
L71823 71951
L71879 71923
L71991 71923
L72048 71951
L72076 72007
L72076 72064
L71795 72120
" />
<path d="M72244 71923
L72469 71923
" />
<path d="M72329 71726
L72329 72232
L72357 72289
L72413 72317
L72469 72317
" />
<path d="M72666 72260
L72694 72289
L72666 72317
L72638 72289
L72666 72260
L72666 72317
" />
<path d="M72666 71951
L72694 71979
L72666 72007
L72638 71979
L72666 71951
L72666 72007
" />
</g>
<g style="fill:#000000; fill-opacity:0.0; 
stroke:#000000; stroke-width:19.685; stroke-opacity:1; 
stroke-linecap:round; stroke-linejoin:round;">
</g>
<g style="fill:#000000; fill-opacity:0.0; 
stroke:#000000; stroke-width:118.11; stroke-opacity:1; 
stroke-linecap:round; stroke-linejoin:round;">
<path d="M70192 71108
L70248 71136
L70360 71136
L70417 71108
L70445 71051
L70445 71023
L70417 70967
L70360 70939
L70276 70939
L70220 70911
L70192 70854
L70192 70826
L70220 70770
L70276 70742
L70360 70742
L70417 70770
" />
<path d="M70698 70911
L71148 70911
" />
<path d="M71513 71136
L71457 71108
L71429 71051
L71429 70545
" />
<path d="M71738 71136
L71738 70742
" />
<path d="M71738 70545
L71710 70573
L71738 70601
L71766 70573
L71738 70545
L71738 70601
" />
<path d="M72273 70742
L72273 71220
L72244 71276
L72216 71304
L72160 71332
L72076 71332
L72019 71304
" />
<path d="M72273 71108
L72216 71136
L72104 71136
L72048 71108
L72019 71079
L71991 71023
L71991 70854
L72019 70798
L72048 70770
L72104 70742
L72216 70742
L72273 70770
" />
<path d="M72554 71136
L72554 70545
" />
<path d="M72807 71136
L72807 70826
L72779 70770
L72723 70742
L72638 70742
L72582 70770
L72554 70798
" />
<path d="M73004 70742
L73229 70742
" />
<path d="M73088 70545
L73088 71051
L73116 71108
L73172 71136
L73229 71136
" />
<path d="M73426 71079
L73454 71108
L73426 71136
L73397 71108
L73426 71079
L73426 71136
" />
<path d="M73932 71108
L73876 71136
L73763 71136
L73707 71108
L73679 71051
L73679 70826
L73707 70770
L73763 70742
L73876 70742
L73932 70770
L73960 70826
L73960 70883
L73679 70939
" />
<path d="M74466 70742
L74466 71136
" />
<path d="M74213 70742
L74213 71051
L74241 71108
L74297 71136
L74382 71136
L74438 71108
L74466 71079
" />
</g>
<g style="fill:#000000; fill-opacity:0.0; 
stroke:#000000; stroke-width:19.685; stroke-opacity:1; 
stroke-linecap:round; stroke-linejoin:round;">
</g>
<g style="fill:#000000; fill-opacity:0.0; 
stroke:#000000; stroke-width:59.0551; stroke-opacity:1; 
stroke-linecap:round; stroke-linejoin:round;">
<path d="M77559 75396
L77559 76577
" />
</g>
<g style="fill:#000000; fill-opacity:0.0; 
stroke:#000000; stroke-width:19.685; stroke-opacity:1; 
stroke-linecap:round; stroke-linejoin:round;">
</g>
<g style="fill:#000000; fill-opacity:0.0; 
stroke:#000000; stroke-width:59.0551; stroke-opacity:1; 
stroke-linecap:round; stroke-linejoin:round;">
<path d="M102756 75396
L102756 77955
" />
</g>
<g style="fill:#008400; fill-opacity:0.0; 
stroke:#008400; stroke-width:39.3701; stroke-opacity:1; 
stroke-linecap:round; stroke-linejoin:round;">
<path d="M22234 14262
L22234 14065
" />
<path d="M22234 14140
L22215 14131
L22178 14131
L22159 14140
L22150 14149
L22140 14168
L22140 14224
L22150 14243
L22159 14252
L22178 14262
L22215 14262
L22234 14252
" />
<path d="M22028 14262
L22047 14252
L22056 14243
L22065 14224
L22065 14168
L22056 14149
L22047 14140
L22028 14131
L22000 14131
L21981 14140
L21972 14149
L21962 14168
L21962 14224
L21972 14243
L21981 14252
L22000 14262
L22028 14262
" />
<path d="M21906 14131
L21831 14131
" />
<path d="M21878 14065
L21878 14234
L21869 14252
L21850 14262
L21831 14262
" />
</g>
<g style="fill:#C1C100; fill-opacity:0.0; 
stroke:#C1C100; stroke-width:39.3701; stroke-opacity:1; 
stroke-linecap:round; stroke-linejoin:round;">
<circle cx="19685" cy="19685" r="6692.91" /> 
</g>
<g style="fill:#840000; fill-opacity:0.0; 
stroke:#840000; stroke-width:19.685; stroke-opacity:1; 
stroke-linecap:round; stroke-linejoin:round;">
</g>
<g style="fill:#840000; fill-opacity:1.0; 
stroke:#840000; stroke-width:19.685; stroke-opacity:1; 
stroke-linecap:round; stroke-linejoin:round;">
<circle cx="21929.1" cy="19185" r="320.157" /> 
<circle cx="21929.1" cy="20185" r="320.157" /> 
</g>
<g style="fill:#008400; fill-opacity:1.0; 
stroke:#008400; stroke-width:19.685; stroke-opacity:1; 
stroke-linecap:round; stroke-linejoin:round;">
<polyline style="fill-rule:evenodd;"
points="17332,19399
17332,18789
18100,18789
18100,19399
17332,19399
" /> 
<polyline style="fill-rule:evenodd;"
points="18907,19399
18907,18789
19675,18789
19675,19399
18907,19399
" /> 
<polyline style="fill-rule:evenodd;"
points="19675,19950
19675,20600
18907,20600
18907,19950
19675,19950
" /> 
<polyline style="fill-rule:evenodd;"
points="18100,19950
18100,20600
17332,20600
17332,19950
18100,19950
" /> 
<polyline style="fill-rule:evenodd;"
points="23179,15285
23828,15285
23828,16053
23179,16053
23179,15285
" /> 
<polyline style="fill-rule:evenodd;"
points="23179,16860
23828,16860
23828,17627
23179,17627
23179,16860
" /> 
<polyline style="fill-rule:evenodd;"
points="23198,21742
23809,21742
23809,22509
23198,22509
23198,21742
" /> 
<polyline style="fill-rule:evenodd;"
points="23198,23316
23809,23316
23809,24084
23198,24084
23198,23316
" /> 
<polyline style="fill-rule:evenodd;"
points="21781,21742
22391,21742
22391,22509
21781,22509
21781,21742
" /> 
<polyline style="fill-rule:evenodd;"
points="21781,23316
22391,23316
22391,24084
21781,24084
21781,23316
" /> 
<polyline style="fill-rule:evenodd;"
points="21761,15285
22411,15285
22411,16053
21761,16053
21761,15285
" /> 
<polyline style="fill-rule:evenodd;"
points="21761,16860
22411,16860
22411,17627
21761,17627
21761,16860
" /> 
<polyline style="fill-rule:evenodd;"
points="24104,20856
23454,20856
23454,20088
24104,20088
24104,20856
" /> 
<polyline style="fill-rule:evenodd;"
points="24104,19281
23454,19281
23454,18513
24104,18513
24104,19281
" /> 
</g>
<g style="fill:#840000; fill-opacity:1.0; 
stroke:#840000; stroke-width:19.685; stroke-opacity:1; 
stroke-linecap:round; stroke-linejoin:round;">
<polyline style="fill-rule:evenodd;"
points="25587,21975
24806,21975
24806,21315
25587,21315
25587,21975
" /> 
</g>
<g style="fill:#840000; fill-opacity:1.0; 
stroke:#840000; stroke-width:680; stroke-opacity:1; 
stroke-linecap:round; stroke-linejoin:round;">
</g>
<g style="fill:#840000; fill-opacity:0.0; 
stroke:#840000; stroke-width:680; stroke-opacity:1; 
stroke-linecap:round; stroke-linejoin:round;">
<path d="M25136 20645
L25256 20645
" />
<path d="M25136 19645
L25256 19645
" />
<path d="M25136 18645
L25256 18645
" />
<path d="M25136 17645
L25256 17645
" />
</g>
<g style="fill:#840000; fill-opacity:0.0; 
stroke:#840000; stroke-width:19.685; stroke-opacity:1; 
stroke-linecap:round; stroke-linejoin:round;">
</g>
<g style="fill:#840000; fill-opacity:1.0; 
stroke:#840000; stroke-width:19.685; stroke-opacity:1; 
stroke-linecap:round; stroke-linejoin:round;">
<polyline style="fill-rule:evenodd;"
points="16215,14295
16767,14847
16300,15314
15748,14762
16215,14295
" /> 
</g>
<g style="fill:#840000; fill-opacity:1.0; 
stroke:#840000; stroke-width:680; stroke-opacity:1; 
stroke-linecap:round; stroke-linejoin:round;">
</g>
<g style="fill:#840000; fill-opacity:0.0; 
stroke:#840000; stroke-width:680; stroke-opacity:1; 
stroke-linecap:round; stroke-linejoin:round;">
<path d="M15593 15554
L15508 15469
" />
<path d="M14886 16261
L14801 16176
" />
</g>
<g style="fill:#008400; fill-opacity:0.0; 
stroke:#008400; stroke-width:19.685; stroke-opacity:1; 
stroke-linecap:round; stroke-linejoin:round;">
</g>
<g style="fill:#008400; fill-opacity:1.0; 
stroke:#008400; stroke-width:19.685; stroke-opacity:1; 
stroke-linecap:round; stroke-linejoin:round;">
<polyline style="fill-rule:evenodd;"
points="20127,24133
20127,23818
20757,23818
20757,24133
20127,24133
" /> 
<polyline style="fill-rule:evenodd;"
points="20127,24566
20127,24251
20757,24251
20757,24566
20127,24566
" /> 
<polyline style="fill-rule:evenodd;"
points="20127,25000
20127,24685
20757,24685
20757,25000
20127,25000
" /> 
<polyline style="fill-rule:evenodd;"
points="18612,24133
18612,23818
19242,23818
19242,24133
18612,24133
" /> 
<polyline style="fill-rule:evenodd;"
points="18612,24566
18612,24251
19242,24251
19242,24566
18612,24566
" /> 
<polyline style="fill-rule:evenodd;"
points="18612,25000
18612,24685
19242,24685
19242,25000
18612,25000
" /> 
<polyline style="fill-rule:evenodd;"
points="20127,14685
20127,14370
20757,14370
20757,14685
20127,14685
" /> 
<polyline style="fill-rule:evenodd;"
points="20127,15118
20127,14803
20757,14803
20757,15118
20127,15118
" /> 
<polyline style="fill-rule:evenodd;"
points="20127,15551
20127,15236
20757,15236
20757,15551
20127,15551
" /> 
<polyline style="fill-rule:evenodd;"
points="18612,14685
18612,14370
19242,14370
19242,14685
18612,14685
" /> 
<polyline style="fill-rule:evenodd;"
points="18612,15118
18612,14803
19242,14803
19242,15118
18612,15118
" /> 
<polyline style="fill-rule:evenodd;"
points="18612,15551
18612,15236
19242,15236
19242,15551
18612,15551
" /> 
<polyline style="fill-rule:evenodd;"
points="16555,21328
16456,21328
16456,20561
16555,20561
16555,21328
" /> 
<polyline style="fill-rule:evenodd;"
points="16299,21328
16200,21328
16200,20561
16299,20561
16299,21328
" /> 
<polyline style="fill-rule:evenodd;"
points="16043,21328
15944,21328
15944,20561
16043,20561
16043,21328
" /> 
<polyline style="fill-rule:evenodd;"
points="15787,21328
15688,21328
15688,20561
15787,20561
15787,21328
" /> 
<polyline style="fill-rule:evenodd;"
points="15531,21328
15433,21328
15433,20561
15531,20561
15531,21328
" /> 
<polyline style="fill-rule:evenodd;"
points="15275,21328
15177,21328
15177,20561
15275,20561
15275,21328
" /> 
<polyline style="fill-rule:evenodd;"
points="15019,21328
14921,21328
14921,20561
15019,20561
15019,21328
" /> 
<polyline style="fill-rule:evenodd;"
points="14763,21328
14665,21328
14665,20561
14763,20561
14763,21328
" /> 
<polyline style="fill-rule:evenodd;"
points="14507,21328
14409,21328
14409,20561
14507,20561
14507,21328
" /> 
<polyline style="fill-rule:evenodd;"
points="14251,21328
14153,21328
14153,20561
14251,20561
14251,21328
" /> 
<polyline style="fill-rule:evenodd;"
points="16555,18809
16456,18809
16456,18041
16555,18041
16555,18809
" /> 
<polyline style="fill-rule:evenodd;"
points="16299,18809
16200,18809
16200,18041
16299,18041
16299,18809
" /> 
<polyline style="fill-rule:evenodd;"
points="16043,18809
15944,18809
15944,18041
16043,18041
16043,18809
" /> 
<polyline style="fill-rule:evenodd;"
points="15787,18809
15688,18809
15688,18041
15787,18041
15787,18809
" /> 
<polyline style="fill-rule:evenodd;"
points="15531,18809
15433,18809
15433,18041
15531,18041
15531,18809
" /> 
<polyline style="fill-rule:evenodd;"
points="15275,18809
15177,18809
15177,18041
15275,18041
15275,18809
" /> 
<polyline style="fill-rule:evenodd;"
points="15019,18809
14921,18809
14921,18041
15019,18041
15019,18809
" /> 
<polyline style="fill-rule:evenodd;"
points="14763,18809
14665,18809
14665,18041
14763,18041
14763,18809
" /> 
<polyline style="fill-rule:evenodd;"
points="14507,18809
14409,18809
14409,18041
14507,18041
14507,18809
" /> 
<polyline style="fill-rule:evenodd;"
points="14251,18809
14153,18809
14153,18041
14251,18041
14251,18809
" /> 
</g>
<g style="fill:#840000; fill-opacity:1.0; 
stroke:#840000; stroke-width:19.685; stroke-opacity:1; 
stroke-linecap:round; stroke-linejoin:round;">
<polyline style="fill-rule:evenodd;"
points="16019,20216
14688,20216
14688,19153
16019,19153
16019,20216
" /> 
<polyline style="fill-rule:evenodd;"
points="16624,20344
14084,20344
14084,19025
16624,19025
16624,20344
" /> 
</g>
<g style="fill:#C1C1C1; fill-opacity:1.0; 
stroke:#C1C1C1; stroke-width:19.685; stroke-opacity:1; 
stroke-linecap:round; stroke-linejoin:round;">
<circle cx="21102.4" cy="17716.5" r="167.323" /> 
<circle cx="21102.4" cy="18149.6" r="167.323" /> 
<circle cx="21102.4" cy="17283.5" r="167.323" /> 
<circle cx="21102.4" cy="21220.5" r="167.323" /> 
<circle cx="21102.4" cy="21653.5" r="167.323" /> 
<circle cx="21102.4" cy="22086.6" r="167.323" /> 
<circle cx="16378" cy="19173.2" r="108.268" /> 
<circle cx="14330.7" cy="19173.2" r="108.268" /> 
<circle cx="15354.3" cy="19173.2" r="108.268" /> 
<circle cx="14842.5" cy="19173.2" r="108.268" /> 
<circle cx="16378" cy="20196.9" r="108.268" /> 
<circle cx="16378" cy="19685" r="108.268" /> 
<circle cx="14330.7" cy="20196.9" r="108.268" /> 
<circle cx="14842.5" cy="20196.9" r="108.268" /> 
<circle cx="15354.3" cy="20196.9" r="108.268" /> 
<circle cx="15866.1" cy="19685" r="108.268" /> 
<circle cx="15354.3" cy="19685" r="108.268" /> 
<circle cx="14842.5" cy="19685" r="108.268" /> 
<circle cx="14330.7" cy="19685" r="108.268" /> 
<circle cx="15866.1" cy="19173.2" r="108.268" /> 
<circle cx="15866.1" cy="20196.9" r="108.268" /> 
<circle cx="20236.2" cy="19685" r="167.323" /> 
<circle cx="22086.6" cy="16417.3" r="167.323" /> 
<circle cx="21535.4" cy="14527.6" r="167.323" /> 
<circle cx="21535.4" cy="23700.8" r="167.323" /> 
<circle cx="21535.4" cy="24842.5" r="167.323" /> 
<circle cx="13740.2" cy="19685" r="167.323" /> 
<circle cx="16889.8" cy="19685" r="167.323" /> 
<circle cx="16850.4" cy="17598.4" r="167.323" /> 
<circle cx="20472.4" cy="16299.2" r="167.323" /> 
<circle cx="23110.2" cy="24842.5" r="167.323" /> 
<circle cx="18582.7" cy="22204.7" r="108.268" /> 
<circle cx="17598.4" cy="22204.7" r="108.268" /> 
<circle cx="19606.3" cy="21692.9" r="108.268" /> 
<circle cx="19606.3" cy="17677.2" r="108.268" /> 
<circle cx="17598.4" cy="17165.4" r="108.268" /> 
<circle cx="18582.7" cy="17165.4" r="108.268" /> 
<circle cx="16653.5" cy="24685" r="108.268" /> 
<circle cx="16220.5" cy="24015.7" r="108.268" /> 
<circle cx="23346.5" cy="16456.7" r="108.268" /> 
<circle cx="22795.3" cy="17598.4" r="108.268" /> 
</g>
<g style="fill:#008400; fill-opacity:1.0; 
stroke:#008400; stroke-width:196.85; stroke-opacity:1; 
stroke-linecap:round; stroke-linejoin:round;">
</g>
<g style="fill:#008400; fill-opacity:0.0; 
stroke:#008400; stroke-width:196.85; stroke-opacity:1; 
stroke-linecap:round; stroke-linejoin:round;">
<path d="M23503 22125
L24716 22125
" />
<path d="M24716 22125
L25196 21645
" />
</g>
<g style="fill:#008400; fill-opacity:0.0; 
stroke:#008400; stroke-width:118.11; stroke-opacity:1; 
stroke-linecap:round; stroke-linejoin:round;">
<path d="M16505 18425
L16250 18425
" />
</g>
<g style="fill:#008400; fill-opacity:0.0; 
stroke:#008400; stroke-width:196.85; stroke-opacity:1; 
stroke-linecap:round; stroke-linejoin:round;">
<path d="M16505 18425
L17047 18425
" />
<path d="M17047 18425
L17716 19094
" />
<path d="M23503 22125
L23503 21889
" />
<path d="M22086 22125
L23503 22125
" />
<path d="M21102 17716
L21102 18149
" />
<path d="M18267 19094
L18858 18503
" />
<path d="M17716 19094
L18267 19094
" />
<path d="M18858 18503
L21102 18503
" />
<path d="M21102 18503
L21102 18149
" />
<path d="M21102 18503
L21102 19173
" />
<path d="M21917 19173
L21929 19185
" />
<path d="M21102 19173
L21917 19173
" />
<path d="M21102 17716
L21102 17283
" />
<path d="M21102 14527
L20442 14527
" />
<path d="M21088 14960
L20442 14960
" />
<path d="M21102 14974
L21088 14960
" />
<path d="M21102 14974
L21102 14527
" />
<path d="M21085 15393
L20442 15393
" />
<path d="M21102 15376
L21085 15393
" />
<path d="M21102 17283
L21102 15376
" />
<path d="M21102 15376
L21102 14974
" />
<path d="M21102 19173
L21102 21220
" />
<path d="M21102 21417
L21102 21653
" />
<path d="M21102 21220
L21102 21653
" />
<path d="M22047 22086
L21102 22086
" />
<path d="M21102 21850
L21102 22086
" />
<path d="M21102 21653
L21102 22086
" />
<path d="M22086 22125
L21141 22125
" />
<path d="M21141 22125
L21102 22086
" />
<path d="M21102 24842
L20442 24842
" />
<path d="M21083 24409
L20442 24409
" />
<path d="M21102 24390
L21083 24409
" />
<path d="M21102 24390
L21102 24842
" />
<path d="M21094 23976
L21102 23969
" />
<path d="M20442 23976
L21094 23976
" />
<path d="M21102 23969
L21102 24390
" />
<path d="M21102 22086
L21102 23969
" />
</g>
<g style="fill:#008400; fill-opacity:0.0; 
stroke:#008400; stroke-width:118.11; stroke-opacity:1; 
stroke-linecap:round; stroke-linejoin:round;">
<path d="M16377 19173
L15866 19173
" />
<path d="M15866 19173
L15354 19173
" />
<path d="M15354 19173
L14842 19173
" />
<path d="M14842 19173
L14330 19173
" />
<path d="M16377 19685
L16377 20196
" />
<path d="M16377 19685
L15866 19685
" />
<path d="M15866 19685
L15354 19685
" />
<path d="M15354 19685
L14842 19685
" />
<path d="M14842 19685
L14330 19685
" />
<path d="M14330 20196
L16377 20196
" />
<path d="M14330 19173
L14330 20196
" />
<path d="M16377 19173
L16377 19685
" />
<path d="M16250 20944
L16250 20364
" />
<path d="M16250 20364
L16259 20354
" />
<path d="M16259 20354
L15354 19685
" />
</g>
<g style="fill:#008400; fill-opacity:0.0; 
stroke:#008400; stroke-width:196.85; stroke-opacity:1; 
stroke-linecap:round; stroke-linejoin:round;">
<path d="M20236 19685
L19291 19685
" />
<path d="M22086 16417
L22086 15669
" />
<path d="M19291 19094
L19212 19094
" />
<path d="M19291 19685
L19291 20275
" />
<path d="M19291 19094
L19291 19685
" />
<path d="M19291 19685
L16929 19685
" />
<path d="M16929 19685
L15354 19685
" />
</g>
<g style="fill:#008400; fill-opacity:0.0; 
stroke:#008400; stroke-width:118.11; stroke-opacity:1; 
stroke-linecap:round; stroke-linejoin:round;">
<path d="M15452 19685
L15354 19685
" />
</g>
<g style="fill:#008400; fill-opacity:0.0; 
stroke:#008400; stroke-width:196.85; stroke-opacity:1; 
stroke-linecap:round; stroke-linejoin:round;">
<path d="M23503 23700
L22086 23700
" />
<path d="M22086 23700
L21535 23700
" />
<path d="M15354 19685
L13740 19685
" />
<path d="M16889 19685
L16929 19685
" />
<path d="M16889 19685
L15354 19685
" />
<path d="M21535 24842
L23110 24842
" />
</g>
<g style="fill:#008400; fill-opacity:0.0; 
stroke:#008400; stroke-width:118.11; stroke-opacity:1; 
stroke-linecap:round; stroke-linejoin:round;">
<path d="M18110 22204
L18070 22165
" />
<path d="M18070 22165
L17834 21929
" />
<path d="M17834 21929
L17401 21929
" />
<path d="M17401 21929
L17007 22322
" />
<path d="M17007 22322
L16535 22322
" />
<path d="M16535 22322
L15994 21781
" />
<path d="M15994 21781
L15994 20944
" />
<path d="M18582 22204
L18110 22204
" />
<path d="M15738 20944
L15738 21801
" />
<path d="M16456 22519
L15738 21801
" />
<path d="M17125 22519
L16456 22519
" />
<path d="M17440 22204
L17125 22519
" />
<path d="M17440 22204
L17598 22204
" />
<path d="M17244 22716
L17244 22716
" />
<path d="M17244 22716
L16377 22716
" />
<path d="M16377 22716
L15482 21820
" />
<path d="M15482 21820
L15482 20944
" />
<path d="M17598 22480
L17755 22480
" />
<path d="M17834 22480
L17755 22480
" />
<path d="M19488 22480
L17834 22480
" />
<path d="M19606 22362
L19488 22480
" />
<path d="M19606 21692
L19606 22362
" />
<path d="M17244 22716
L17322 22716
" />
<path d="M17598 22480
L17559 22480
" />
<path d="M17559 22480
L17322 22716
" />
<path d="M15226 21840
L15226 20944
" />
<path d="M17755 22913
L16299 22913
" />
<path d="M16299 22913
L15226 21840
" />
<path d="M16220 23110
L14970 21860
" />
<path d="M17322 23110
L16220 23110
" />
<path d="M17440 23228
L17322 23110
" />
<path d="M17440 23307
L17440 23228
" />
<path d="M14970 21860
L14970 20944
" />
<path d="M17874 25708
L17480 25708
" />
<path d="M17480 25708
L17165 25393
" />
<path d="M17165 25393
L17165 23385
" />
<path d="M17165 23385
L17086 23307
" />
<path d="M17086 23307
L16141 23307
" />
<path d="M16141 23307
L14714 21879
" />
<path d="M14714 21879
L14714 20944
" />
<path d="M19025 24842
L18740 24842
" />
<path d="M18740 24842
L17874 25708
" />
<path d="M14714 17529
L14714 18425
" />
<path d="M17795 13661
L17519 13661
" />
<path d="M16141 16102
L14714 17529
" />
<path d="M17086 16102
L16141 16102
" />
<path d="M17165 16023
L17086 16102
" />
<path d="M17165 14015
L17165 16023
" />
<path d="M17519 13661
L17165 14015
" />
<path d="M14970 17549
L14970 18425
" />
<path d="M17440 16102
L17440 16181
" />
<path d="M17440 16181
L17322 16299
" />
<path d="M17322 16299
L16220 16299
" />
<path d="M16220 16299
L14970 17549
" />
<path d="M15226 17568
L15226 18425
" />
<path d="M17716 16496
L16299 16496
" />
<path d="M16299 16496
L15226 17568
" />
<path d="M17519 16850
L17362 16692
" />
<path d="M17362 16692
L16417 16692
" />
<path d="M16417 16692
L15482 17627
" />
<path d="M15482 17627
L15482 18425
" />
<path d="M19527 16850
L18740 16850
" />
<path d="M19606 16929
L19527 16850
" />
<path d="M19606 17677
L19606 16929
" />
<path d="M18740 16850
L17519 16850
" />
<path d="M17440 17165
L17598 17165
" />
<path d="M17440 17165
L17165 16889
" />
<path d="M17165 16889
L16535 16889
" />
<path d="M16535 16889
L15738 17687
" />
<path d="M15738 18425
L15738 17687
" />
<path d="M18031 17165
L18582 17165
" />
<path d="M18031 17165
L17716 17480
" />
<path d="M17716 17480
L17401 17480
" />
<path d="M17401 17480
L17047 17125
" />
<path d="M17047 17125
L16653 17125
" />
<path d="M16653 17125
L15994 17785
" />
<path d="M15994 18425
L15994 17785
" />
</g>
<g style="fill:#008400; fill-opacity:0.0; 
stroke:#008400; stroke-width:78.7402; stroke-opacity:1; 
stroke-linecap:round; stroke-linejoin:round;">
<path d="M14458 22253
L14458 20944
" />
<path d="M15866 23661
L14458 22253
" />
<path d="M16377 23661
L15866 23661
" />
<path d="M16614 23897
L16377 23661
" />
<path d="M16614 24645
L16614 23897
" />
<path d="M16653 24685
L16614 24645
" />
<path d="M14202 20944
L14202 22204
" />
<path d="M14202 22204
L16014 24015
" />
<path d="M16014 24015
L16053 24015
" />
<path d="M16053 24015
L16220 24015
" />
</g>
<g style="fill:#008400; fill-opacity:0.0; 
stroke:#008400; stroke-width:118.11; stroke-opacity:1; 
stroke-linecap:round; stroke-linejoin:round;">
<path d="M24488 17913
L24488 17937
" />
<path d="M24488 17937
L25196 18645
" />
<path d="M24488 17007
L24488 17913
" />
<path d="M23503 15669
L23503 16023
" />
<path d="M23503 16023
L24488 17007
" />
</g>
<g style="fill:#008400; fill-opacity:0.0; 
stroke:#008400; stroke-width:78.7402; stroke-opacity:1; 
stroke-linecap:round; stroke-linejoin:round;">
<path d="M15551 15511
L15551 16417
" />
<path d="M14458 17509
L14458 18425
" />
<path d="M15551 16417
L14458 17509
" />
<path d="M14844 16218
L14844 16888
" />
<path d="M14202 17529
L14202 18425
" />
<path d="M14844 16888
L14202 17529
" />
<path d="M22086 17244
L23503 17244
" />
<path d="M23503 17244
L23503 16614
" />
<path d="M23503 16614
L23346 16456
" />
<path d="M22086 17244
L22086 17165
" />
</g>
<g style="fill:#008400; fill-opacity:0.0; 
stroke:#008400; stroke-width:118.11; stroke-opacity:1; 
stroke-linecap:round; stroke-linejoin:round;">
<path d="M22795 17598
L22795 17874
" />
<path d="M22795 17874
L23779 18858
" />
<path d="M23779 18858
L23779 18897
" />
<path d="M22825 17598
L22795 17598
" />
<path d="M22834 17607
L22825 17598
" />
<path d="M23779 18897
L23779 18838
" />
<path d="M22216 20472
L21929 20185
" />
<path d="M23779 20472
L22216 20472
" />
</g>
<g style="fill:#008400; fill-opacity:0.0; 
stroke:#008400; stroke-width:196.85; stroke-opacity:1; 
stroke-linecap:round; stroke-linejoin:round;">
<path d="M17716 20275
L17755 20275
" />
</g>
<g style="fill:#008400; fill-opacity:0.0; 
stroke:#008400; stroke-width:100; stroke-opacity:1; 
stroke-linecap:round; stroke-linejoin:round;">
<path d="M17047 20944
L17716 20275
" />
<path d="M16505 20944
L17047 20944
" />
</g>
<g style="fill:#008400; fill-opacity:1.0; 
stroke:#008400; stroke-width:59.0551; stroke-opacity:1; 
stroke-linecap:round; stroke-linejoin:round;">
<polyline style="fill-rule:evenodd;"
points="19222,15088
18609,15088
17507,16190
17413,16190
17352,16129
17352,14067
17492,13927
17664,13927
18570,14832
19222,14832
19222,15088
" /> 
<polyline style="fill-rule:evenodd;"
points="20403,13609
19821,14191
19357,14655
19251,14655
18634,14655
17706,13727
17706,13594
17768,13533
18870,13533
19106,13297
20342,13297
20403,13358
20403,13609
" /> 
<polyline style="fill-rule:evenodd;"
points="19812,16641
19751,16702
19527,16702
18740,16702
17610,16702
17549,16641
17549,16350
18634,15265
19251,15265
19357,15265
19812,15720
19812,16641
" /> 
<polyline style="fill-rule:evenodd;"
points="19222,24537
18609,24537
17664,25482
17531,25482
17352,25302
17352,23279
17413,23218
17507,23218
18570,24281
19222,24281
19222,24537
" /> 
<polyline style="fill-rule:evenodd;"
points="20403,26011
20342,26072
19106,26072
18870,25836
17768,25836
17706,25775
17706,25642
18634,24714
19251,24714
19357,24714
19821,25178
20403,25760
20403,26011
" /> 
<polyline style="fill-rule:evenodd;"
points="19812,23649
19357,24104
19251,24104
18634,24104
17549,23019
17549,22728
17610,22667
19751,22667
19812,22728
19812,23649
" /> 
<polyline style="fill-rule:evenodd;"
points="26269,19685
25768,22204
25732,22257
25732,17750
25732,17540
25718,17486
25622,17321
25470,17206
25286,17158
25226,17158
25226,17616
25706,17616
25732,17540
25732,17750
25706,17675
25226,17675
25226,18133
25286,18133
25470,18084
25622,17969
25718,17805
25732,17750
25732,22257
25695,22314
25695,20645
25695,19645
25695,18645
25662,18481
25569,18342
25430,18249
25266,18217
25167,18217
25167,18133
25167,17675
25167,17616
25167,17158
25107,17158
24922,17206
24771,17321
24675,17486
24660,17540
24687,17616
25167,17616
25167,17675
24687,17675
24660,17750
24675,17805
24771,17969
24922,18084
25107,18133
25167,18133
25167,18217
25127,18217
25001,18242
24635,17875
24635,17007
24624,16951
24624,16951
24592,16903
23841,16152
23872,16146
23902,16127
23921,16097
23928,16062
23928,15275
23922,15241
23902,15212
23873,15192
23838,15185
23169,15185
23135,15191
23105,15211
23085,15240
23078,15275
23078,16062
23085,16096
23105,16126
23134,16146
23169,16153
23424,16153
24340,17069
24340,17913
24340,17937
24351,17993
24383,18041
24768,18426
24731,18481
24698,18645
24731,18809
24824,18948
24963,19041
25127,19074
25266,19074
25430,19041
25569,18948
25662,18809
25695,18645
25695,19645
25662,19481
25569,19342
25430,19249
25266,19217
25127,19217
24963,19249
24824,19342
24731,19481
24698,19645
24731,19809
24824,19948
24963,20041
25127,20074
25266,20074
25430,20041
25569,19948
25662,19809
25695,19645
25695,20645
25662,20481
25569,20342
25430,20249
25266,20217
25127,20217
24963,20249
24824,20342
24731,20481
24698,20645
24731,20809
24824,20948
24963,21041
25127,21074
25266,21074
25430,21041
25569,20948
25662,20809
25695,20645
25695,22314
24341,24341
23966,24591
23966,24123
23966,23767
23966,23634
23966,23277
23944,23223
23902,23181
23848,23159
23789,23159
23570,23159
23533,23196
23533,23671
23929,23671
23966,23634
23966,23767
23929,23730
23533,23730
23533,24205
23570,24242
23789,24242
23848,24242
23902,24219
23944,24178
23966,24123
23966,24591
23474,24920
23474,24205
23474,23730
23474,23671
23474,23196
23437,23159
23218,23159
23159,23159
23105,23181
23063,23223
23041,23277
23041,23634
23078,23671
23474,23671
23474,23730
23078,23730
23041,23767
23041,24123
23063,24178
23105,24219
23159,24242
23218,24242
23437,24242
23474,24205
23474,24920
22549,25538
22549,24123
22549,23767
22549,23634
22549,23277
22526,23223
22485,23181
22430,23159
22372,23159
22153,23159
22116,23196
22116,23671
22512,23671
22549,23634
22549,23767
22512,23730
22116,23730
22116,24205
22153,24242
22372,24242
22430,24242
22485,24219
22526,24178
22549,24123
22549,25538
22204,25768
22057,25797
22057,24205
22057,23730
22057,23671
22057,23196
22020,23159
21801,23159
21742,23159
21688,23181
21646,23223
21624,23277
21624,23634
21660,23671
22057,23671
22057,23730
21660,23730
21624,23767
21624,24123
21646,24178
21688,24219
21742,24242
21801,24242
22020,24242
22057,24205
22057,25797
20511,26105
20541,26075
20541,25696
19399,24554
19399,24264
19950,23713
19950,22625
19854,22529
19832,22529
19832,20639
19832,20580
19832,20342
19832,20209
19832,19970
19832,19911
19832,19438
19832,19380
19832,19160
19795,19124
19320,19124
19320,19520
19357,19557
19714,19557
19768,19534
19810,19493
19832,19438
19832,19911
19810,19857
19768,19815
19714,19793
19357,19793
19320,19830
19320,20246
19795,20246
19832,20209
19832,20342
19795,20305
19320,20305
19320,20720
19357,20757
19714,20757
19768,20735
19810,20693
19832,20639
19832,22529
19647,22529
19710,22466
19742,22418
19742,22418
19753,22362
19753,21837
19781,21810
19812,21734
19813,21651
19781,21575
19723,21517
19647,21486
19565,21486
19489,21517
19431,21575
19399,21651
19399,21733
19430,21809
19458,21837
19458,22301
19427,22332
19261,22332
19261,20720
19261,20305
19261,20246
19261,19830
19261,19520
19261,19124
18786,19124
18750,19160
18750,19380
18750,19438
18772,19493
18814,19534
18868,19557
19224,19557
19261,19520
19261,19830
19224,19793
18868,19793
18814,19815
18772,19857
18750,19911
18750,19970
18750,20209
18786,20246
19261,20246
19261,20305
18786,20305
18750,20342
18750,20580
18750,20639
18772,20693
18814,20735
18868,20757
19224,20757
19261,20720
19261,22332
18747,22332
18757,22321
18789,22246
18789,22163
18758,22087
18699,22029
18623,21998
18541,21997
18465,22029
18438,22057
18200,22057
18200,20610
18200,19940
18194,19907
18174,19877
18145,19857
18110,19850
17322,19850
17289,19857
17259,19876
17239,19906
17232,19940
17232,20563
16989,20806
16655,20806
16655,20551
16648,20517
16629,20487
16599,20467
16564,20460
16446,20460
16430,20464
16392,20426
16338,20403
16316,20403
16279,20440
16279,20915
16287,20915
16287,20974
16279,20974
16279,21449
16316,21486
16338,21486
16392,21463
16430,21425
16446,21428
16564,21428
16598,21422
16628,21402
16648,21373
16655,21338
16655,21083
17047,21083
17047,21083
17047,21083
17100,21072
17145,21042
17487,20700
18110,20700
18144,20694
18173,20674
18193,20645
18200,20610
18200,22057
18171,22057
17939,21824
17891,21792
17834,21781
17401,21781
17345,21792
17297,21824
16946,22175
16596,22175
16141,21720
16141,21478
16161,21486
16183,21486
16220,21449
16220,20974
16212,20974
16212,20915
16220,20915
16220,20440
16183,20403
16161,20403
16107,20426
16069,20464
16053,20460
15935,20460
15901,20467
15871,20486
15866,20494
15861,20487
15832,20467
15797,20460
15679,20460
15645,20467
15615,20486
15610,20494
15605,20487
15576,20467
15541,20460
15423,20460
15389,20467
15359,20486
15354,20494
15349,20487
15320,20467
15285,20460
15167,20460
15133,20467
15103,20486
15098,20494
15093,20487
15064,20467
15029,20460
14911,20460
14877,20467
14847,20486
14842,20494
14837,20487
14808,20467
14773,20460
14655,20460
14621,20467
14592,20486
14586,20494
14581,20487
14552,20467
14517,20460
14399,20460
14365,20467
14336,20486
14330,20494
14326,20487
14296,20467
14261,20460
14143,20460
14109,20467
14080,20486
14060,20516
14053,20551
14053,21338
14059,21372
14074,21394
14074,22204
14084,22253
14112,22294
15923,24106
15965,24133
16014,24143
16053,24143
16056,24143
16103,24190
16179,24222
16261,24222
16337,24191
16395,24132
16427,24057
16427,23974
16395,23898
16337,23840
16261,23809
16179,23809
16103,23840
16061,23882
15968,23789
16324,23789
16486,23950
16486,24560
16478,24567
16446,24643
16446,24725
16478,24801
16536,24860
16612,24891
16694,24891
16770,24860
16828,24802
16860,24726
16860,24644
16828,24568
16770,24509
16742,24498
16742,23897
16732,23848
16704,23807
16468,23570
16426,23543
16377,23533
15919,23533
14586,22200
14586,21949
14610,21984
16037,23411
16085,23443
16085,23443
16141,23454
17017,23454
17017,25393
17028,25450
17060,25498
17372,25809
17165,25768
15028,24341
13601,22204
13100,19685
13601,17165
15028,15028
15723,14564
15609,14678
15587,14732
15587,14791
15609,14845
15651,14887
15866,15102
15918,15102
16216,14804
16210,14799
16252,14757
16258,14762
16556,14465
16556,14412
16341,14197
16313,14170
17165,13601
17426,13549
17415,13557
17060,13911
17028,13959
17017,14015
17017,15954
16929,15954
16929,14817
16906,14763
16865,14721
16650,14506
16597,14506
16300,14804
16640,15144
16692,15144
16906,14930
16929,14876
16929,14817
16929,15954
16598,15954
16598,15238
16598,15186
16258,14846
15960,15144
15960,15196
16175,15411
16217,15453
16271,15475
16330,15475
16384,15453
16598,15238
16598,15954
16141,15954
16085,15965
16037,15997
15679,16356
15679,15973
15764,15956
15903,15864
15996,15725
16028,15561
15996,15396
15903,15257
15805,15159
15665,15066
15501,15034
15337,15066
15198,15159
15106,15298
15073,15462
15106,15626
15198,15765
15297,15864
15423,15948
15423,16364
14972,16815
14972,16681
15057,16664
15196,16571
15289,16432
15321,16268
15289,16104
15196,15965
15097,15866
14958,15773
14794,15741
14630,15773
14491,15866
14398,16005
14366,16169
14398,16333
14491,16472
14590,16571
14716,16655
14716,16835
14112,17439
14084,17480
14074,17529
14074,17975
14060,17996
14053,18031
14053,18818
14059,18852
14079,18882
14108,18902
14143,18909
14261,18909
14295,18902
14325,18883
14330,18875
14335,18882
14364,18902
14399,18909
14517,18909
14551,18902
14581,18883
14586,18875
14591,18882
14620,18902
14655,18909
14773,18909
14807,18902
14837,18883
14842,18875
14847,18882
14876,18902
14911,18909
15029,18909
15063,18902
15092,18883
15098,18875
15103,18882
15132,18902
15167,18909
15285,18909
15319,18902
15348,18883
15354,18875
15358,18882
15388,18902
15423,18909
15541,18909
15575,18902
15604,18883
15610,18875
15614,18882
15644,18902
15679,18909
15797,18909
15831,18902
15860,18883
15866,18875
15870,18882
15900,18902
15935,18909
16053,18909
16086,18902
16116,18883
16121,18875
16126,18882
16156,18902
16190,18909
16309,18909
16342,18902
16372,18883
16377,18875
16382,18882
16412,18902
16446,18909
16564,18909
16598,18902
16628,18883
16648,18853
16655,18818
16655,18612
16969,18612
17232,18874
17232,19409
17239,19443
17258,19472
17288,19492
17322,19499
18110,19499
18144,19493
18173,19473
18193,19444
18200,19409
18200,19281
18267,19281
18339,19267
18399,19226
18750,18876
18750,19028
18786,19064
19261,19064
19261,19057
19320,19057
19320,19064
19795,19064
19832,19028
19832,18808
19832,18750
19810,18695
19805,18690
20915,18690
20915,19173
20915,21031
20877,21069
20836,21167
20836,21273
20876,21370
20915,21409
20915,21417
20915,21464
20877,21502
20836,21600
20836,21706
20876,21803
20915,21842
20915,21850
20915,21897
20877,21935
20836,22033
20836,22139
20876,22236
20915,22275
20915,23789
20854,23789
20851,23775
20831,23745
20802,23725
20767,23718
20118,23718
20084,23725
20054,23744
20034,23774
20027,23809
20027,24143
20034,24177
20044,24192
20034,24207
20027,24242
20027,24576
20034,24610
20044,24625
20034,24640
20027,24675
20027,25009
20034,25043
20053,25073
20083,25093
20118,25100
20767,25100
20801,25093
20831,25074
20851,25044
20854,25029
21102,25029
21173,25015
21234,24974
21275,24914
21289,24842
21289,24390
21289,23969
21289,22312
21681,22312
21681,22519
21687,22553
21707,22583
21736,22603
21771,22610
22401,22610
22435,22603
22465,22583
22484,22554
22491,22519
22491,22312
23098,22312
23098,22519
23105,22553
23124,22583
23154,22603
23188,22610
23818,22610
23852,22603
23882,22583
23902,22554
23909,22519
23909,22312
24716,22312
24788,22298
24848,22258
25031,22075
25596,22075
25630,22069
25660,22049
25680,22020
25687,21985
25687,21305
25680,21271
25661,21242
25631,21222
25596,21215
24796,21215
24763,21221
24733,21241
24713,21270
24706,21305
24706,21871
24639,21938
24204,21938
24204,20866
24204,20078
24204,19291
24204,18503
24197,18470
24178,18440
24148,18420
24114,18413
23928,18413
23928,17637
23928,16850
23922,16816
23902,16786
23873,16767
23838,16760
23631,16760
23631,16614
23622,16565
23622,16565
23611,16548
23594,16523
23594,16523
23553,16482
23553,16415
23521,16339
23463,16281
23387,16250
23305,16249
23229,16281
23171,16339
23139,16415
23139,16497
23171,16573
23229,16631
23305,16663
23372,16663
23375,16667
23375,16760
23169,16760
23135,16766
23105,16786
23085,16815
23078,16850
23078,17116
22568,17116
22568,16092
22568,15735
22568,15602
22568,15246
22546,15191
22504,15150
22450,15127
22391,15127
22389,15127
22389,14419
22389,13887
21704,13887
21704,14419
22389,14419
22389,15127
22153,15127
22116,15164
22116,15639
22531,15639
22568,15602
22568,15735
22531,15698
22116,15698
22116,16173
22153,16210
22391,16210
22450,16210
22504,16188
22546,16146
22568,16092
22568,17116
22511,17116
22511,16850
22505,16816
22485,16786
22456,16767
22421,16760
22057,16760
22057,16173
22057,15698
22057,15639
22057,15164
22020,15127
21781,15127
21722,15127
21668,15150
21626,15191
21604,15246
21604,15602
21641,15639
22057,15639
22057,15698
21641,15698
21604,15735
21604,16092
21626,16146
21668,16188
21722,16210
21781,16210
22020,16210
22057,16173
22057,16760
21751,16760
21718,16766
21688,16786
21668,16815
21661,16850
21661,17637
21668,17671
21687,17701
21717,17721
21751,17728
22421,17728
22455,17721
22484,17702
22504,17672
22511,17637
22511,17372
23078,17372
23078,17637
23085,17671
23105,17701
23134,17721
23169,17728
23838,17728
23872,17721
23902,17702
23921,17672
23928,17637
23928,18413
23543,18413
22942,17812
22942,17743
22970,17715
23001,17639
23002,17557
22970,17481
22912,17423
22836,17391
22754,17391
22678,17423
22620,17481
22588,17557
22588,17639
22619,17715
22647,17743
22647,17874
22658,17930
22690,17978
23354,18642
23354,19291
23361,19325
23380,19354
23410,19374
23444,19381
24114,19381
24147,19375
24177,19355
24197,19326
24204,19291
24204,20078
24197,20044
24178,20015
24148,19995
24114,19988
23444,19988
23411,19994
23381,20014
23361,20043
23354,20078
23354,20324
22324,20324
22347,20268
22347,20102
22284,19948
22166,19830
22012,19766
21846,19766
21692,19829
21574,19947
21510,20101
21510,20267
21574,20421
21691,20539
21845,20603
22012,20603
22101,20566
22112,20576
22160,20608
22160,20608
22216,20620
23354,20620
23354,20866
23361,20899
23380,20929
23410,20949
23444,20956
24114,20956
24147,20949
24177,20930
24197,20900
24204,20866
24204,21938
23909,21938
23909,21732
23902,21698
23883,21668
23853,21648
23818,21641
23188,21641
23155,21648
23125,21668
23105,21697
23098,21732
23098,21938
22491,21938
22491,21732
22485,21698
22465,21668
22436,21648
22401,21641
21771,21641
21737,21648
21708,21668
21688,21697
21681,21732
21681,21899
21291,21899
21289,21897
21289,21850
21289,21842
21327,21804
21368,21706
21368,21600
21327,21503
21289,21464
21289,21417
21289,21409
21327,21371
21368,21273
21368,21167
21327,21070
21289,21031
21289,19360
21548,19360
21574,19421
21691,19539
21845,19603
22012,19603
22165,19540
22283,19422
22347,19268
22347,19102
22284,18948
22166,18830
22012,18766
21846,18766
21692,18829
21574,18947
21558,18986
21289,18986
21289,18503
21289,18338
21327,18300
21368,18202
21368,18096
21327,17999
21289,17960
21289,17905
21327,17867
21368,17769
21368,17663
21327,17566
21289,17527
21289,17472
21327,17434
21368,17336
21368,17230
21327,17133
21289,17094
21289,15376
21289,14974
21289,14974
21289,14974
21289,14974
21289,14527
21275,14455
21234,14395
21173,14354
21102,14340
20854,14340
20851,14326
20831,14296
20802,14276
20767,14269
20118,14269
20084,14276
20054,14295
20034,14325
20027,14360
20027,14694
20034,14728
20044,14744
20034,14758
20027,14793
20027,15127
20034,15161
20044,15177
20034,15191
20027,15226
20027,15561
20034,15594
20053,15624
20083,15644
20118,15651
20767,15651
20801,15644
20831,15625
20851,15595
20854,15580
20915,15580
20915,17094
20877,17132
20836,17230
20836,17336
20876,17433
20915,17472
20915,17527
20877,17565
20836,17663
20836,17769
20876,17866
20915,17905
20915,17960
20877,17998
20836,18096
20836,18202
20876,18299
20893,18316
18858,18316
18786,18331
18726,18371
18726,18371
18200,18897
18200,18779
18194,18745
18174,18716
18145,18696
18110,18689
17575,18689
17179,18292
17118,18252
17047,18238
16655,18238
16655,18031
16648,17997
16629,17968
16599,17948
16564,17941
16446,17941
16413,17947
16383,17967
16378,17975
16373,17968
16343,17948
16309,17941
16190,17941
16157,17947
16141,17957
16141,17846
16714,17273
16986,17273
17297,17584
17345,17616
17345,17616
17401,17627
17716,17627
17773,17616
17773,17616
17820,17584
18092,17312
18438,17312
18465,17340
18541,17372
18623,17372
18699,17340
18757,17282
18789,17206
18789,17124
18758,17048
18707,16998
18740,16998
19458,16998
19458,17532
19431,17559
19399,17635
19399,17718
19430,17794
19489,17852
19565,17883
19647,17883
19723,17852
19781,17794
19812,17718
19813,17636
19781,17560
19753,17532
19753,16929
19742,16872
19721,16840
19815,16840
19950,16705
19950,15657
19360,15066
19360,14854
20541,13673
20541,13294
20511,13264
22204,13601
24341,15028
25768,17165
26269,19685
" /> 
</g>
<g style="fill:#FFFFFF; fill-opacity:1.0; 
stroke:#FFFFFF; stroke-width:19.685; stroke-opacity:1; 
stroke-linecap:round; stroke-linejoin:round;">
<circle cx="21102.4" cy="17716.5" r="88.5827" /> 
<circle cx="21102.4" cy="18149.6" r="88.5827" /> 
<circle cx="21102.4" cy="17283.5" r="88.5827" /> 
<circle cx="21102.4" cy="21220.5" r="88.5827" /> 
<circle cx="21102.4" cy="21653.5" r="88.5827" /> 
<circle cx="21102.4" cy="22086.6" r="88.5827" /> 
<circle cx="16378" cy="19173.2" r="49.2126" /> 
<circle cx="14330.7" cy="19173.2" r="49.2126" /> 
<circle cx="15354.3" cy="19173.2" r="49.2126" /> 
<circle cx="14842.5" cy="19173.2" r="49.2126" /> 
<circle cx="16378" cy="20196.9" r="49.2126" /> 
<circle cx="16378" cy="19685" r="49.2126" /> 
<circle cx="14330.7" cy="20196.9" r="49.2126" /> 
<circle cx="14842.5" cy="20196.9" r="49.2126" /> 
<circle cx="15354.3" cy="20196.9" r="49.2126" /> 
<circle cx="15866.1" cy="19685" r="49.2126" /> 
<circle cx="15354.3" cy="19685" r="49.2126" /> 
<circle cx="14842.5" cy="19685" r="49.2126" /> 
<circle cx="14330.7" cy="19685" r="49.2126" /> 
<circle cx="15866.1" cy="19173.2" r="49.2126" /> 
<circle cx="15866.1" cy="20196.9" r="49.2126" /> 
<circle cx="20236.2" cy="19685" r="88.5827" /> 
<circle cx="22086.6" cy="16417.3" r="88.5827" /> 
<circle cx="21535.4" cy="14527.6" r="88.5827" /> 
<circle cx="21535.4" cy="23700.8" r="88.5827" /> 
<circle cx="21535.4" cy="24842.5" r="88.5827" /> 
<circle cx="13740.2" cy="19685" r="88.5827" /> 
<circle cx="16889.8" cy="19685" r="88.5827" /> 
<circle cx="16850.4" cy="17598.4" r="88.5827" /> 
<circle cx="20472.4" cy="16299.2" r="88.5827" /> 
<circle cx="23110.2" cy="24842.5" r="88.5827" /> 
<circle cx="18582.7" cy="22204.7" r="49.2126" /> 
<circle cx="17598.4" cy="22204.7" r="49.2126" /> 
<circle cx="19606.3" cy="21692.9" r="49.2126" /> 
<circle cx="19606.3" cy="17677.2" r="49.2126" /> 
<circle cx="17598.4" cy="17165.4" r="49.2126" /> 
<circle cx="18582.7" cy="17165.4" r="49.2126" /> 
<circle cx="16653.5" cy="24685" r="49.2126" /> 
<circle cx="16220.5" cy="24015.7" r="49.2126" /> 
<circle cx="23346.5" cy="16456.7" r="49.2126" /> 
<circle cx="22795.3" cy="17598.4" r="49.2126" /> 
<circle cx="21929.1" cy="19185" r="150.157" /> 
<circle cx="21929.1" cy="20185" r="150.157" /> 
<circle cx="25196.9" cy="21645.7" r="190.157" /> 
<circle cx="25196.9" cy="20645.7" r="190.157" /> 
<circle cx="25196.9" cy="19645.7" r="190.157" /> 
<circle cx="25196.9" cy="18645.7" r="190.157" /> 
<circle cx="25196.9" cy="17645.7" r="190.157" /> 
<circle cx="16258.3" cy="14804.7" r="190.157" /> 
<circle cx="15551.2" cy="15511.8" r="190.157" /> 
<circle cx="14844.1" cy="16218.9" r="190.157" /> 
</g> 
</svg>
