<?xml version="1.0" standalone="no"?>
 <!DOCTYPE svg PUBLIC "-//W3C//DTD SVG 1.1//EN" 
 "http://www.w3.org/Graphics/SVG/1.1/DTD/svg11.dtd"> 
<svg xmlns="http://www.w3.org/2000/svg" version="1.1" 
    width="29.7002cm" height="21.0007cm" viewBox="0 0 116930 82680 ">
<title>SVG Picture created as LED_Board_PCB-F_Cu.svg date 2015/01/04 11:24:54 </title>
  <desc>Picture generated by PCBNEW </desc>
<g style="fill:#000000; fill-opacity:1;stroke:#000000; stroke-opacity:1;
stroke-linecap:round; stroke-linejoin:round; "
 transform="translate(0 0) scale(1 1)">
</g>
<g style="fill:#000000; fill-opacity:0.0; 
stroke:#000000; stroke-width:19.685; stroke-opacity:1; 
stroke-linecap:round; stroke-linejoin:round;">
</g>
<g style="fill:#000000; fill-opacity:0.0; 
stroke:#000000; stroke-width:59.0551; stroke-opacity:1; 
stroke-linecap:round; stroke-linejoin:round;">
<rect x="69685.9" y="65357.2" width="42519.7" height="12598.4" rx="0" />
</g>
<g style="fill:#000000; fill-opacity:0.0; 
stroke:#000000; stroke-width:19.685; stroke-opacity:1; 
stroke-linecap:round; stroke-linejoin:round;">
</g>
<g style="fill:#000000; fill-opacity:0.0; 
stroke:#000000; stroke-width:59.0551; stroke-opacity:1; 
stroke-linecap:round; stroke-linejoin:round;">
<rect x="3937.01" y="3937.01" width="109056" height="74806" rx="0" />
</g>
<g style="fill:#000000; fill-opacity:0.0; 
stroke:#000000; stroke-width:19.685; stroke-opacity:1; 
stroke-linecap:round; stroke-linejoin:round;">
</g>
<g style="fill:#000000; fill-opacity:0.0; 
stroke:#000000; stroke-width:59.0551; stroke-opacity:1; 
stroke-linecap:round; stroke-linejoin:round;">
<rect x="4724.41" y="4724.41" width="107481" height="73231.2" rx="0" />
</g>
<g style="fill:#000000; fill-opacity:0.0; 
stroke:#000000; stroke-width:19.685; stroke-opacity:1; 
stroke-linecap:round; stroke-linejoin:round;">
</g>
<g style="fill:#000000; fill-opacity:0.0; 
stroke:#000000; stroke-width:59.0551; stroke-opacity:1; 
stroke-linecap:round; stroke-linejoin:round;">
<path d="M23622 4724
L23622 3937
" />
</g>
<g style="fill:#000000; fill-opacity:0.0; 
stroke:#000000; stroke-width:19.685; stroke-opacity:1; 
stroke-linecap:round; stroke-linejoin:round;">
</g>
<g style="fill:#000000; fill-opacity:0.0; 
stroke:#000000; stroke-width:59.0551; stroke-opacity:1; 
stroke-linecap:round; stroke-linejoin:round;">
<path d="M43307 4724
L43307 3937
" />
</g>
<g style="fill:#000000; fill-opacity:0.0; 
stroke:#000000; stroke-width:19.685; stroke-opacity:1; 
stroke-linecap:round; stroke-linejoin:round;">
</g>
<g style="fill:#000000; fill-opacity:0.0; 
stroke:#000000; stroke-width:59.0551; stroke-opacity:1; 
stroke-linecap:round; stroke-linejoin:round;">
<path d="M62992 4724
L62992 3937
" />
</g>
<g style="fill:#000000; fill-opacity:0.0; 
stroke:#000000; stroke-width:19.685; stroke-opacity:1; 
stroke-linecap:round; stroke-linejoin:round;">
</g>
<g style="fill:#000000; fill-opacity:0.0; 
stroke:#000000; stroke-width:59.0551; stroke-opacity:1; 
stroke-linecap:round; stroke-linejoin:round;">
<path d="M82677 4724
L82677 3937
" />
</g>
<g style="fill:#000000; fill-opacity:0.0; 
stroke:#000000; stroke-width:19.685; stroke-opacity:1; 
stroke-linecap:round; stroke-linejoin:round;">
</g>
<g style="fill:#000000; fill-opacity:0.0; 
stroke:#000000; stroke-width:59.0551; stroke-opacity:1; 
stroke-linecap:round; stroke-linejoin:round;">
<path d="M102362 4724
L102362 3937
" />
</g>
<g style="fill:#000000; fill-opacity:0.0; 
stroke:#000000; stroke-width:19.685; stroke-opacity:1; 
stroke-linecap:round; stroke-linejoin:round;">
</g>
<g style="fill:#000000; fill-opacity:0.0; 
stroke:#000000; stroke-width:59.0551; stroke-opacity:1; 
stroke-linecap:round; stroke-linejoin:round;">
<path d="M14169 4562
L13877 4562
" />
<path d="M14023 4562
L14023 4050
L13974 4123
L13925 4172
L13877 4196
" />
</g>
<g style="fill:#000000; fill-opacity:0.0; 
stroke:#000000; stroke-width:19.685; stroke-opacity:1; 
stroke-linecap:round; stroke-linejoin:round;">
</g>
<g style="fill:#000000; fill-opacity:0.0; 
stroke:#000000; stroke-width:59.0551; stroke-opacity:1; 
stroke-linecap:round; stroke-linejoin:round;">
<path d="M33562 4099
L33586 4074
L33635 4050
L33757 4050
L33805 4074
L33830 4099
L33854 4147
L33854 4196
L33830 4269
L33537 4562
L33854 4562
" />
</g>
<g style="fill:#000000; fill-opacity:0.0; 
stroke:#000000; stroke-width:19.685; stroke-opacity:1; 
stroke-linecap:round; stroke-linejoin:round;">
</g>
<g style="fill:#000000; fill-opacity:0.0; 
stroke:#000000; stroke-width:59.0551; stroke-opacity:1; 
stroke-linecap:round; stroke-linejoin:round;">
<path d="M53222 4050
L53539 4050
L53368 4245
L53442 4245
L53490 4269
L53515 4294
L53539 4342
L53539 4464
L53515 4513
L53490 4537
L53442 4562
L53295 4562
L53247 4537
L53222 4513
" />
</g>
<g style="fill:#000000; fill-opacity:0.0; 
stroke:#000000; stroke-width:19.685; stroke-opacity:1; 
stroke-linecap:round; stroke-linejoin:round;">
</g>
<g style="fill:#000000; fill-opacity:0.0; 
stroke:#000000; stroke-width:59.0551; stroke-opacity:1; 
stroke-linecap:round; stroke-linejoin:round;">
<path d="M73175 4221
L73175 4562
" />
<path d="M73053 4026
L72932 4391
L73248 4391
" />
</g>
<g style="fill:#000000; fill-opacity:0.0; 
stroke:#000000; stroke-width:19.685; stroke-opacity:1; 
stroke-linecap:round; stroke-linejoin:round;">
</g>
<g style="fill:#000000; fill-opacity:0.0; 
stroke:#000000; stroke-width:59.0551; stroke-opacity:1; 
stroke-linecap:round; stroke-linejoin:round;">
<path d="M92885 4050
L92641 4050
L92617 4294
L92641 4269
L92690 4245
L92812 4245
L92860 4269
L92885 4294
L92909 4342
L92909 4464
L92885 4513
L92860 4537
L92812 4562
L92690 4562
L92641 4537
L92617 4513
" />
</g>
<g style="fill:#000000; fill-opacity:0.0; 
stroke:#000000; stroke-width:19.685; stroke-opacity:1; 
stroke-linecap:round; stroke-linejoin:round;">
</g>
<g style="fill:#000000; fill-opacity:0.0; 
stroke:#000000; stroke-width:59.0551; stroke-opacity:1; 
stroke-linecap:round; stroke-linejoin:round;">
<path d="M112545 4050
L112448 4050
L112399 4074
L112375 4099
L112326 4172
L112302 4269
L112302 4464
L112326 4513
L112350 4537
L112399 4562
L112497 4562
L112545 4537
L112570 4513
L112594 4464
L112594 4342
L112570 4294
L112545 4269
L112497 4245
L112399 4245
L112350 4269
L112326 4294
L112302 4342
" />
</g>
<g style="fill:#000000; fill-opacity:0.0; 
stroke:#000000; stroke-width:19.685; stroke-opacity:1; 
stroke-linecap:round; stroke-linejoin:round;">
</g>
<g style="fill:#000000; fill-opacity:0.0; 
stroke:#000000; stroke-width:59.0551; stroke-opacity:1; 
stroke-linecap:round; stroke-linejoin:round;">
<path d="M23622 77955
L23622 78742
" />
</g>
<g style="fill:#000000; fill-opacity:0.0; 
stroke:#000000; stroke-width:19.685; stroke-opacity:1; 
stroke-linecap:round; stroke-linejoin:round;">
</g>
<g style="fill:#000000; fill-opacity:0.0; 
stroke:#000000; stroke-width:59.0551; stroke-opacity:1; 
stroke-linecap:round; stroke-linejoin:round;">
<path d="M43307 77955
L43307 78742
" />
</g>
<g style="fill:#000000; fill-opacity:0.0; 
stroke:#000000; stroke-width:19.685; stroke-opacity:1; 
stroke-linecap:round; stroke-linejoin:round;">
</g>
<g style="fill:#000000; fill-opacity:0.0; 
stroke:#000000; stroke-width:59.0551; stroke-opacity:1; 
stroke-linecap:round; stroke-linejoin:round;">
<path d="M62992 77955
L62992 78742
" />
</g>
<g style="fill:#000000; fill-opacity:0.0; 
stroke:#000000; stroke-width:19.685; stroke-opacity:1; 
stroke-linecap:round; stroke-linejoin:round;">
</g>
<g style="fill:#000000; fill-opacity:0.0; 
stroke:#000000; stroke-width:59.0551; stroke-opacity:1; 
stroke-linecap:round; stroke-linejoin:round;">
<path d="M82677 77955
L82677 78742
" />
</g>
<g style="fill:#000000; fill-opacity:0.0; 
stroke:#000000; stroke-width:19.685; stroke-opacity:1; 
stroke-linecap:round; stroke-linejoin:round;">
</g>
<g style="fill:#000000; fill-opacity:0.0; 
stroke:#000000; stroke-width:59.0551; stroke-opacity:1; 
stroke-linecap:round; stroke-linejoin:round;">
<path d="M102362 77955
L102362 78742
" />
</g>
<g style="fill:#000000; fill-opacity:0.0; 
stroke:#000000; stroke-width:19.685; stroke-opacity:1; 
stroke-linecap:round; stroke-linejoin:round;">
</g>
<g style="fill:#000000; fill-opacity:0.0; 
stroke:#000000; stroke-width:59.0551; stroke-opacity:1; 
stroke-linecap:round; stroke-linejoin:round;">
<path d="M14169 78580
L13877 78580
" />
<path d="M14023 78580
L14023 78069
L13974 78142
L13925 78190
L13877 78215
" />
</g>
<g style="fill:#000000; fill-opacity:0.0; 
stroke:#000000; stroke-width:19.685; stroke-opacity:1; 
stroke-linecap:round; stroke-linejoin:round;">
</g>
<g style="fill:#000000; fill-opacity:0.0; 
stroke:#000000; stroke-width:59.0551; stroke-opacity:1; 
stroke-linecap:round; stroke-linejoin:round;">
<path d="M33562 78117
L33586 78093
L33635 78069
L33757 78069
L33805 78093
L33830 78117
L33854 78166
L33854 78215
L33830 78288
L33537 78580
L33854 78580
" />
</g>
<g style="fill:#000000; fill-opacity:0.0; 
stroke:#000000; stroke-width:19.685; stroke-opacity:1; 
stroke-linecap:round; stroke-linejoin:round;">
</g>
<g style="fill:#000000; fill-opacity:0.0; 
stroke:#000000; stroke-width:59.0551; stroke-opacity:1; 
stroke-linecap:round; stroke-linejoin:round;">
<path d="M53222 78069
L53539 78069
L53368 78263
L53442 78263
L53490 78288
L53515 78312
L53539 78361
L53539 78483
L53515 78532
L53490 78556
L53442 78580
L53295 78580
L53247 78556
L53222 78532
" />
</g>
<g style="fill:#000000; fill-opacity:0.0; 
stroke:#000000; stroke-width:19.685; stroke-opacity:1; 
stroke-linecap:round; stroke-linejoin:round;">
</g>
<g style="fill:#000000; fill-opacity:0.0; 
stroke:#000000; stroke-width:59.0551; stroke-opacity:1; 
stroke-linecap:round; stroke-linejoin:round;">
<path d="M73175 78239
L73175 78580
" />
<path d="M73053 78044
L72932 78410
L73248 78410
" />
</g>
<g style="fill:#000000; fill-opacity:0.0; 
stroke:#000000; stroke-width:19.685; stroke-opacity:1; 
stroke-linecap:round; stroke-linejoin:round;">
</g>
<g style="fill:#000000; fill-opacity:0.0; 
stroke:#000000; stroke-width:59.0551; stroke-opacity:1; 
stroke-linecap:round; stroke-linejoin:round;">
<path d="M92885 78069
L92641 78069
L92617 78312
L92641 78288
L92690 78263
L92812 78263
L92860 78288
L92885 78312
L92909 78361
L92909 78483
L92885 78532
L92860 78556
L92812 78580
L92690 78580
L92641 78556
L92617 78532
" />
</g>
<g style="fill:#000000; fill-opacity:0.0; 
stroke:#000000; stroke-width:19.685; stroke-opacity:1; 
stroke-linecap:round; stroke-linejoin:round;">
</g>
<g style="fill:#000000; fill-opacity:0.0; 
stroke:#000000; stroke-width:59.0551; stroke-opacity:1; 
stroke-linecap:round; stroke-linejoin:round;">
<path d="M112545 78069
L112448 78069
L112399 78093
L112375 78117
L112326 78190
L112302 78288
L112302 78483
L112326 78532
L112350 78556
L112399 78580
L112497 78580
L112545 78556
L112570 78532
L112594 78483
L112594 78361
L112570 78312
L112545 78288
L112497 78263
L112399 78263
L112350 78288
L112326 78312
L112302 78361
" />
</g>
<g style="fill:#000000; fill-opacity:0.0; 
stroke:#000000; stroke-width:19.685; stroke-opacity:1; 
stroke-linecap:round; stroke-linejoin:round;">
</g>
<g style="fill:#000000; fill-opacity:0.0; 
stroke:#000000; stroke-width:59.0551; stroke-opacity:1; 
stroke-linecap:round; stroke-linejoin:round;">
<path d="M3937 23622
L4724 23622
" />
</g>
<g style="fill:#000000; fill-opacity:0.0; 
stroke:#000000; stroke-width:19.685; stroke-opacity:1; 
stroke-linecap:round; stroke-linejoin:round;">
</g>
<g style="fill:#000000; fill-opacity:0.0; 
stroke:#000000; stroke-width:59.0551; stroke-opacity:1; 
stroke-linecap:round; stroke-linejoin:round;">
<path d="M3937 43307
L4724 43307
" />
</g>
<g style="fill:#000000; fill-opacity:0.0; 
stroke:#000000; stroke-width:19.685; stroke-opacity:1; 
stroke-linecap:round; stroke-linejoin:round;">
</g>
<g style="fill:#000000; fill-opacity:0.0; 
stroke:#000000; stroke-width:59.0551; stroke-opacity:1; 
stroke-linecap:round; stroke-linejoin:round;">
<path d="M3937 62992
L4724 62992
" />
</g>
<g style="fill:#000000; fill-opacity:0.0; 
stroke:#000000; stroke-width:19.685; stroke-opacity:1; 
stroke-linecap:round; stroke-linejoin:round;">
</g>
<g style="fill:#000000; fill-opacity:0.0; 
stroke:#000000; stroke-width:59.0551; stroke-opacity:1; 
stroke-linecap:round; stroke-linejoin:round;">
<path d="M4208 13864
L4452 13864
" />
<path d="M4160 14011
L4330 13499
L4501 14011
" />
</g>
<g style="fill:#000000; fill-opacity:0.0; 
stroke:#000000; stroke-width:19.685; stroke-opacity:1; 
stroke-linecap:round; stroke-linejoin:round;">
</g>
<g style="fill:#000000; fill-opacity:0.0; 
stroke:#000000; stroke-width:59.0551; stroke-opacity:1; 
stroke-linecap:round; stroke-linejoin:round;">
<path d="M4367 33428
L4440 33452
L4464 33476
L4489 33525
L4489 33598
L4464 33647
L4440 33671
L4391 33696
L4196 33696
L4196 33184
L4367 33184
L4416 33208
L4440 33233
L4464 33281
L4464 33330
L4440 33379
L4416 33403
L4367 33428
L4196 33428
" />
</g>
<g style="fill:#000000; fill-opacity:0.0; 
stroke:#000000; stroke-width:19.685; stroke-opacity:1; 
stroke-linecap:round; stroke-linejoin:round;">
</g>
<g style="fill:#000000; fill-opacity:0.0; 
stroke:#000000; stroke-width:59.0551; stroke-opacity:1; 
stroke-linecap:round; stroke-linejoin:round;">
<path d="M4489 53332
L4464 53356
L4391 53381
L4342 53381
L4269 53356
L4221 53308
L4196 53259
L4172 53161
L4172 53088
L4196 52991
L4221 52942
L4269 52893
L4342 52869
L4391 52869
L4464 52893
L4489 52918
" />
</g>
<g style="fill:#000000; fill-opacity:0.0; 
stroke:#000000; stroke-width:19.685; stroke-opacity:1; 
stroke-linecap:round; stroke-linejoin:round;">
</g>
<g style="fill:#000000; fill-opacity:0.0; 
stroke:#000000; stroke-width:59.0551; stroke-opacity:1; 
stroke-linecap:round; stroke-linejoin:round;">
<path d="M4196 73066
L4196 72554
L4318 72554
L4391 72578
L4440 72627
L4464 72676
L4489 72773
L4489 72846
L4464 72944
L4440 72993
L4391 73041
L4318 73066
L4196 73066
" />
</g>
<g style="fill:#000000; fill-opacity:0.0; 
stroke:#000000; stroke-width:19.685; stroke-opacity:1; 
stroke-linecap:round; stroke-linejoin:round;">
</g>
<g style="fill:#000000; fill-opacity:0.0; 
stroke:#000000; stroke-width:59.0551; stroke-opacity:1; 
stroke-linecap:round; stroke-linejoin:round;">
<path d="M112992 23622
L112205 23622
" />
</g>
<g style="fill:#000000; fill-opacity:0.0; 
stroke:#000000; stroke-width:19.685; stroke-opacity:1; 
stroke-linecap:round; stroke-linejoin:round;">
</g>
<g style="fill:#000000; fill-opacity:0.0; 
stroke:#000000; stroke-width:59.0551; stroke-opacity:1; 
stroke-linecap:round; stroke-linejoin:round;">
<path d="M112992 43307
L112205 43307
" />
</g>
<g style="fill:#000000; fill-opacity:0.0; 
stroke:#000000; stroke-width:19.685; stroke-opacity:1; 
stroke-linecap:round; stroke-linejoin:round;">
</g>
<g style="fill:#000000; fill-opacity:0.0; 
stroke:#000000; stroke-width:59.0551; stroke-opacity:1; 
stroke-linecap:round; stroke-linejoin:round;">
<path d="M112992 62992
L112205 62992
" />
</g>
<g style="fill:#000000; fill-opacity:0.0; 
stroke:#000000; stroke-width:19.685; stroke-opacity:1; 
stroke-linecap:round; stroke-linejoin:round;">
</g>
<g style="fill:#000000; fill-opacity:0.0; 
stroke:#000000; stroke-width:59.0551; stroke-opacity:1; 
stroke-linecap:round; stroke-linejoin:round;">
<path d="M112477 13864
L112721 13864
" />
<path d="M112428 14011
L112599 13499
L112769 14011
" />
</g>
<g style="fill:#000000; fill-opacity:0.0; 
stroke:#000000; stroke-width:19.685; stroke-opacity:1; 
stroke-linecap:round; stroke-linejoin:round;">
</g>
<g style="fill:#000000; fill-opacity:0.0; 
stroke:#000000; stroke-width:59.0551; stroke-opacity:1; 
stroke-linecap:round; stroke-linejoin:round;">
<path d="M112635 33428
L112708 33452
L112733 33476
L112757 33525
L112757 33598
L112733 33647
L112708 33671
L112660 33696
L112465 33696
L112465 33184
L112635 33184
L112684 33208
L112708 33233
L112733 33281
L112733 33330
L112708 33379
L112684 33403
L112635 33428
L112465 33428
" />
</g>
<g style="fill:#000000; fill-opacity:0.0; 
stroke:#000000; stroke-width:19.685; stroke-opacity:1; 
stroke-linecap:round; stroke-linejoin:round;">
</g>
<g style="fill:#000000; fill-opacity:0.0; 
stroke:#000000; stroke-width:59.0551; stroke-opacity:1; 
stroke-linecap:round; stroke-linejoin:round;">
<path d="M112757 53332
L112733 53356
L112660 53381
L112611 53381
L112538 53356
L112489 53308
L112465 53259
L112440 53161
L112440 53088
L112465 52991
L112489 52942
L112538 52893
L112611 52869
L112660 52869
L112733 52893
L112757 52918
" />
</g>
<g style="fill:#000000; fill-opacity:0.0; 
stroke:#000000; stroke-width:19.685; stroke-opacity:1; 
stroke-linecap:round; stroke-linejoin:round;">
</g>
<g style="fill:#000000; fill-opacity:0.0; 
stroke:#000000; stroke-width:59.0551; stroke-opacity:1; 
stroke-linecap:round; stroke-linejoin:round;">
<path d="M112465 73066
L112465 72554
L112587 72554
L112660 72578
L112708 72627
L112733 72676
L112757 72773
L112757 72846
L112733 72944
L112708 72993
L112660 73041
L112587 73066
L112465 73066
" />
</g>
<g style="fill:#000000; fill-opacity:0.0; 
stroke:#000000; stroke-width:19.685; stroke-opacity:1; 
stroke-linecap:round; stroke-linejoin:round;">
</g>
<g style="fill:#000000; fill-opacity:0.0; 
stroke:#000000; stroke-width:59.0551; stroke-opacity:1; 
stroke-linecap:round; stroke-linejoin:round;">
<path d="M78881 76293
L78881 75703
L79022 75703
L79106 75731
L79162 75787
L79190 75843
L79219 75956
L79219 76040
L79190 76153
L79162 76209
L79106 76265
L79022 76293
L78881 76293
" />
<path d="M79725 76293
L79725 75984
L79697 75928
L79640 75899
L79528 75899
L79472 75928
" />
<path d="M79725 76265
L79669 76293
L79528 76293
L79472 76265
L79444 76209
L79444 76153
L79472 76096
L79528 76068
L79669 76068
L79725 76040
" />
<path d="M79922 75899
L80147 75899
" />
<path d="M80006 75703
L80006 76209
L80034 76265
L80090 76293
L80147 76293
" />
<path d="M80568 76265
L80512 76293
L80400 76293
L80343 76265
L80315 76209
L80315 75984
L80343 75928
L80400 75899
L80512 75899
L80568 75928
L80597 75984
L80597 76040
L80315 76096
" />
<path d="M80850 76237
L80878 76265
L80850 76293
L80822 76265
L80850 76237
L80850 76293
" />
<path d="M80850 75928
L80878 75956
L80850 75984
L80822 75956
L80850 75928
L80850 75984
" />
<path d="M81553 75759
L81581 75731
L81637 75703
L81778 75703
L81834 75731
L81862 75759
L81890 75815
L81890 75871
L81862 75956
L81525 76293
L81890 76293
" />
<path d="M82453 76293
L82115 76293
" />
<path d="M82284 76293
L82284 75703
L82228 75787
L82171 75843
L82115 75871
" />
<path d="M83156 76293
L83156 75703
L83296 75703
L83381 75731
L83437 75787
L83465 75843
L83493 75956
L83493 76040
L83465 76153
L83437 76209
L83381 76265
L83296 76293
L83156 76293
" />
<path d="M83971 76265
L83915 76293
L83802 76293
L83746 76265
L83718 76209
L83718 75984
L83746 75928
L83802 75899
L83915 75899
L83971 75928
L83999 75984
L83999 76040
L83718 76096
" />
<path d="M84505 76265
L84449 76293
L84337 76293
L84280 76265
L84252 76237
L84224 76181
L84224 76012
L84252 75956
L84280 75928
L84337 75899
L84449 75899
L84505 75928
" />
<path d="M84983 76265
L84927 76293
L84815 76293
L84759 76265
L84730 76209
L84730 75984
L84759 75928
L84815 75899
L84927 75899
L84983 75928
L85012 75984
L85012 76040
L84730 76096
" />
<path d="M85265 76293
L85265 75899
" />
<path d="M85265 75956
L85293 75928
L85349 75899
L85433 75899
L85490 75928
L85518 75984
L85518 76293
" />
<path d="M85518 75984
L85546 75928
L85602 75899
L85687 75899
L85743 75928
L85771 75984
L85771 76293
" />
<path d="M86052 76293
L86052 75703
" />
<path d="M86052 75928
L86108 75899
L86221 75899
L86277 75928
L86305 75956
L86333 76012
L86333 76181
L86305 76237
L86277 76265
L86221 76293
L86108 76293
L86052 76265
" />
<path d="M86811 76265
L86755 76293
L86643 76293
L86586 76265
L86558 76209
L86558 75984
L86586 75928
L86643 75899
L86755 75899
L86811 75928
L86840 75984
L86840 76040
L86558 76096
" />
<path d="M87093 76293
L87093 75899
" />
<path d="M87093 76012
L87121 75956
L87149 75928
L87205 75899
L87261 75899
" />
<path d="M87880 75759
L87908 75731
L87964 75703
L88105 75703
L88161 75731
L88189 75759
L88217 75815
L88217 75871
L88189 75956
L87852 76293
L88217 76293
" />
<path d="M88583 75703
L88639 75703
L88696 75731
L88724 75759
L88752 75815
L88780 75928
L88780 76068
L88752 76181
L88724 76237
L88696 76265
L88639 76293
L88583 76293
L88527 76265
L88499 76237
L88471 76181
L88442 76068
L88442 75928
L88471 75815
L88499 75759
L88527 75731
L88583 75703
" />
<path d="M89342 76293
L89005 76293
" />
<path d="M89174 76293
L89174 75703
L89117 75787
L89061 75843
L89005 75871
" />
<path d="M89849 75899
L89849 76293
" />
<path d="M89708 75674
L89567 76096
L89933 76096
" />
</g>
<g style="fill:#000000; fill-opacity:0.0; 
stroke:#000000; stroke-width:19.685; stroke-opacity:1; 
stroke-linecap:round; stroke-linejoin:round;">
</g>
<g style="fill:#000000; fill-opacity:0.0; 
stroke:#000000; stroke-width:59.0551; stroke-opacity:1; 
stroke-linecap:round; stroke-linejoin:round;">
<path d="M69685 76577
L112205 76577
" />
</g>
<g style="fill:#000000; fill-opacity:0.0; 
stroke:#000000; stroke-width:19.685; stroke-opacity:1; 
stroke-linecap:round; stroke-linejoin:round;">
</g>
<g style="fill:#000000; fill-opacity:0.0; 
stroke:#000000; stroke-width:59.0551; stroke-opacity:1; 
stroke-linecap:round; stroke-linejoin:round;">
<path d="M70220 77395
L70220 76805
" />
<path d="M70557 77395
L70304 77058
" />
<path d="M70557 76805
L70220 77142
" />
<path d="M70810 77395
L70810 77002
" />
<path d="M70810 76805
L70782 76833
L70810 76861
L70838 76833
L70810 76805
L70810 76861
" />
<path d="M71429 77339
L71401 77367
L71316 77395
L71260 77395
L71176 77367
L71120 77311
L71091 77255
L71063 77142
L71063 77058
L71091 76946
L71120 76889
L71176 76833
L71260 76805
L71316 76805
L71401 76833
L71429 76861
" />
<path d="M71935 77395
L71935 77086
L71907 77030
L71851 77002
L71738 77002
L71682 77030
" />
<path d="M71935 77367
L71879 77395
L71738 77395
L71682 77367
L71654 77311
L71654 77255
L71682 77199
L71738 77171
L71879 77171
L71935 77142
" />
<path d="M72469 77395
L72469 76805
" />
<path d="M72469 77367
L72413 77395
L72301 77395
L72244 77367
L72216 77339
L72188 77283
L72188 77114
L72216 77058
L72244 77030
L72301 77002
L72413 77002
L72469 77030
" />
<path d="M73201 77086
L73397 77086
" />
<path d="M73482 77395
L73201 77395
L73201 76805
L73482 76805
" />
<path d="M73735 77339
L73763 77367
L73735 77395
L73707 77367
L73735 77339
L73735 77395
" />
<path d="M74016 77395
L74016 76805
L74157 76805
L74241 76833
L74297 76889
L74325 76946
L74354 77058
L74354 77142
L74325 77255
L74297 77311
L74241 77367
L74157 77395
L74016 77395
" />
<path d="M74607 77339
L74635 77367
L74607 77395
L74579 77367
L74607 77339
L74607 77395
" />
<path d="M74860 77227
L75141 77227
" />
<path d="M74804 77395
L75000 76805
L75197 77395
" />
<path d="M75394 77339
L75422 77367
L75394 77395
L75366 77367
L75394 77339
L75394 77395
" />
<path d="M76575 77395
L76575 76805
" />
<path d="M76631 77171
L76800 77395
" />
<path d="M76800 77002
L76575 77227
" />
<path d="M77053 77395
L77053 77002
" />
<path d="M77053 76805
L77025 76833
L77053 76861
L77081 76833
L77053 76805
L77053 76861
" />
<path d="M77588 77367
L77531 77395
L77419 77395
L77363 77367
L77334 77339
L77306 77283
L77306 77114
L77334 77058
L77363 77030
L77419 77002
L77531 77002
L77588 77030
" />
<path d="M78094 77395
L78094 77086
L78066 77030
L78009 77002
L77897 77002
L77841 77030
" />
<path d="M78094 77367
L78037 77395
L77897 77395
L77841 77367
L77813 77311
L77813 77255
L77841 77199
L77897 77171
L78037 77171
L78094 77142
" />
<path d="M78628 77395
L78628 76805
" />
<path d="M78628 77367
L78572 77395
L78459 77395
L78403 77367
L78375 77339
L78347 77283
L78347 77114
L78375 77058
L78403 77030
L78459 77002
L78572 77002
L78628 77030
" />
<path d="M79528 77620
L79500 77592
L79444 77508
L79415 77452
L79387 77367
L79359 77227
L79359 77114
L79387 76974
L79415 76889
L79444 76833
L79500 76749
L79528 76721
" />
<path d="M79725 76861
L79753 76833
L79809 76805
L79950 76805
L80006 76833
L80034 76861
L80062 76917
L80062 76974
L80034 77058
L79697 77395
L80062 77395
" />
<path d="M80428 76805
L80484 76805
L80540 76833
L80568 76861
L80597 76917
L80625 77030
L80625 77171
L80597 77283
L80568 77339
L80540 77367
L80484 77395
L80428 77395
L80372 77367
L80343 77339
L80315 77283
L80287 77171
L80287 77030
L80315 76917
L80343 76861
L80372 76833
L80428 76805
" />
<path d="M81187 77395
L80850 77395
" />
<path d="M81018 77395
L81018 76805
L80962 76889
L80906 76946
L80850 76974
" />
<path d="M81693 77002
L81693 77395
" />
<path d="M81553 76777
L81412 77199
L81778 77199
" />
<path d="M82003 77171
L82453 77171
" />
<path d="M83043 77395
L82706 77395
" />
<path d="M82874 77395
L82874 76805
L82818 76889
L82762 76946
L82706 76974
" />
<path d="M83268 76861
L83296 76833
L83352 76805
L83493 76805
L83549 76833
L83577 76861
L83606 76917
L83606 76974
L83577 77058
L83240 77395
L83606 77395
" />
<path d="M83859 77171
L84309 77171
" />
<path d="M84562 76861
L84590 76833
L84646 76805
L84787 76805
L84843 76833
L84871 76861
L84899 76917
L84899 76974
L84871 77058
L84534 77395
L84899 77395
" />
<path d="M85405 76805
L85293 76805
L85237 76833
L85208 76861
L85152 76946
L85124 77058
L85124 77283
L85152 77339
L85180 77367
L85237 77395
L85349 77395
L85405 77367
L85433 77339
L85462 77283
L85462 77142
L85433 77086
L85405 77058
L85349 77030
L85237 77030
L85180 77058
L85152 77086
L85124 77142
" />
<path d="M86361 77086
L86446 77114
L86474 77142
L86502 77199
L86502 77283
L86474 77339
L86446 77367
L86390 77395
L86165 77395
L86165 76805
L86361 76805
L86418 76833
L86446 76861
L86474 76917
L86474 76974
L86446 77030
L86418 77058
L86361 77086
L86165 77086
" />
<path d="M86699 76805
L87093 76805
L86699 77395
L87093 77395
" />
<path d="M87655 77395
L87458 77114
" />
<path d="M87318 77395
L87318 76805
L87543 76805
L87599 76833
L87627 76861
L87655 76917
L87655 77002
L87627 77058
L87599 77086
L87543 77114
L87318 77114
" />
<path d="M88639 76805
L88358 76805
L88330 77086
L88358 77058
L88414 77030
L88555 77030
L88611 77058
L88639 77086
L88667 77142
L88667 77283
L88639 77339
L88611 77367
L88555 77395
L88414 77395
L88358 77367
L88330 77339
" />
<path d="M88864 76805
L89230 76805
L89033 77030
L89117 77030
L89174 77058
L89202 77086
L89230 77142
L89230 77283
L89202 77339
L89174 77367
L89117 77395
L88949 77395
L88892 77367
L88864 77339
" />
<path d="M89427 76805
L89792 76805
L89595 77030
L89680 77030
L89736 77058
L89764 77086
L89792 77142
L89792 77283
L89764 77339
L89736 77367
L89680 77395
L89511 77395
L89455 77367
L89427 77339
" />
<path d="M90130 77058
L90073 77030
L90045 77002
L90017 76946
L90017 76917
L90045 76861
L90073 76833
L90130 76805
L90242 76805
L90298 76833
L90327 76861
L90355 76917
L90355 76946
L90327 77002
L90298 77030
L90242 77058
L90130 77058
L90073 77086
L90045 77114
L90017 77171
L90017 77283
L90045 77339
L90073 77367
L90130 77395
L90242 77395
L90298 77367
L90327 77339
L90355 77283
L90355 77171
L90327 77114
L90298 77086
L90242 77058
" />
<path d="M90552 77620
L90580 77592
L90636 77508
L90664 77452
L90692 77367
L90720 77227
L90720 77114
L90692 76974
L90664 76889
L90636 76833
L90580 76749
L90552 76721
" />
<path d="M91001 77171
L91451 77171
" />
<path d="M91733 77002
L91733 77592
" />
<path d="M91733 77030
L91789 77002
L91901 77002
L91958 77030
L91986 77058
L92014 77114
L92014 77283
L91986 77339
L91958 77367
L91901 77395
L91789 77395
L91733 77367
" />
<path d="M92267 77395
L92267 77002
" />
<path d="M92267 77114
L92295 77058
L92323 77030
L92379 77002
L92436 77002
" />
<path d="M92717 77395
L92661 77367
L92633 77339
L92604 77283
L92604 77114
L92633 77058
L92661 77030
L92717 77002
L92801 77002
L92858 77030
L92886 77058
L92914 77114
L92914 77283
L92886 77339
L92858 77367
L92801 77395
L92717 77395
" />
<path d="M93420 77395
L93420 76805
" />
<path d="M93420 77367
L93364 77395
L93251 77395
L93195 77367
L93167 77339
L93139 77283
L93139 77114
L93167 77058
L93195 77030
L93251 77002
L93364 77002
L93420 77030
" />
<path d="M93954 77002
L93954 77395
" />
<path d="M93701 77002
L93701 77311
L93729 77367
L93786 77395
L93870 77395
L93926 77367
L93954 77339
" />
<path d="M94489 77367
L94432 77395
L94320 77395
L94264 77367
L94235 77339
L94207 77283
L94207 77114
L94235 77058
L94264 77030
L94320 77002
L94432 77002
L94489 77030
" />
<path d="M94657 77002
L94882 77002
" />
<path d="M94742 76805
L94742 77311
L94770 77367
L94826 77395
L94882 77395
" />
</g>
<g style="fill:#000000; fill-opacity:0.0; 
stroke:#000000; stroke-width:19.685; stroke-opacity:1; 
stroke-linecap:round; stroke-linejoin:round;">
</g>
<g style="fill:#000000; fill-opacity:0.0; 
stroke:#000000; stroke-width:59.0551; stroke-opacity:1; 
stroke-linecap:round; stroke-linejoin:round;">
<path d="M69685 75396
L112205 75396
" />
</g>
<g style="fill:#000000; fill-opacity:0.0; 
stroke:#000000; stroke-width:19.685; stroke-opacity:1; 
stroke-linecap:round; stroke-linejoin:round;">
</g>
<g style="fill:#000000; fill-opacity:0.0; 
stroke:#000000; stroke-width:118.11; stroke-opacity:1; 
stroke-linecap:round; stroke-linejoin:round;">
<path d="M104022 76293
L103825 76012
" />
<path d="M103684 76293
L103684 75703
L103909 75703
L103965 75731
L103994 75759
L104022 75815
L104022 75899
L103994 75956
L103965 75984
L103909 76012
L103684 76012
" />
<path d="M104500 76265
L104444 76293
L104331 76293
L104275 76265
L104247 76209
L104247 75984
L104275 75928
L104331 75899
L104444 75899
L104500 75928
L104528 75984
L104528 76040
L104247 76096
" />
<path d="M104725 75899
L104865 76293
L105006 75899
" />
<path d="M105231 76237
L105259 76265
L105231 76293
L105203 76265
L105231 76237
L105231 76293
" />
<path d="M105231 75928
L105259 75956
L105231 75984
L105203 75956
L105231 75928
L105231 75984
" />
<path d="M106075 75703
L106131 75703
L106187 75731
L106215 75759
L106243 75815
L106271 75928
L106271 76068
L106243 76181
L106215 76237
L106187 76265
L106131 76293
L106075 76293
L106018 76265
L105990 76237
L105962 76181
L105934 76068
L105934 75928
L105962 75815
L105990 75759
L106018 75731
L106075 75703
" />
<path d="M106525 76237
L106553 76265
L106525 76293
L106496 76265
L106525 76237
L106525 76293
" />
<path d="M107115 76293
L106778 76293
" />
<path d="M106946 76293
L106946 75703
L106890 75787
L106834 75843
L106778 75871
" />
</g>
<g style="fill:#000000; fill-opacity:0.0; 
stroke:#000000; stroke-width:19.685; stroke-opacity:1; 
stroke-linecap:round; stroke-linejoin:round;">
</g>
<g style="fill:#000000; fill-opacity:0.0; 
stroke:#000000; stroke-width:59.0551; stroke-opacity:1; 
stroke-linecap:round; stroke-linejoin:round;">
<path d="M70192 76265
L70276 76293
L70417 76293
L70473 76265
L70501 76237
L70529 76181
L70529 76124
L70501 76068
L70473 76040
L70417 76012
L70304 75984
L70248 75956
L70220 75928
L70192 75871
L70192 75815
L70220 75759
L70248 75731
L70304 75703
L70445 75703
L70529 75731
" />
<path d="M70782 76293
L70782 75899
" />
<path d="M70782 75703
L70754 75731
L70782 75759
L70810 75731
L70782 75703
L70782 75759
" />
<path d="M71007 75899
L71316 75899
L71007 76293
L71316 76293
" />
<path d="M71766 76265
L71710 76293
L71598 76293
L71541 76265
L71513 76209
L71513 75984
L71541 75928
L71598 75899
L71710 75899
L71766 75928
L71795 75984
L71795 76040
L71513 76096
" />
<path d="M72048 76237
L72076 76265
L72048 76293
L72019 76265
L72048 76237
L72048 76293
" />
<path d="M72048 75928
L72076 75956
L72048 75984
L72019 75956
L72048 75928
L72048 75984
" />
<path d="M72751 76124
L73032 76124
" />
<path d="M72694 76293
L72891 75703
L73088 76293
" />
<path d="M73538 75899
L73538 76293
" />
<path d="M73397 75674
L73257 76096
L73622 76096
" />
</g>
<g style="fill:#000000; fill-opacity:0.0; 
stroke:#000000; stroke-width:19.685; stroke-opacity:1; 
stroke-linecap:round; stroke-linejoin:round;">
</g>
<g style="fill:#000000; fill-opacity:0.0; 
stroke:#000000; stroke-width:59.0551; stroke-opacity:1; 
stroke-linecap:round; stroke-linejoin:round;">
<path d="M103684 77395
L103684 76805
" />
<path d="M104219 77395
L104219 76805
" />
<path d="M104219 77367
L104162 77395
L104050 77395
L103994 77367
L103965 77339
L103937 77283
L103937 77114
L103965 77058
L103994 77030
L104050 77002
L104162 77002
L104219 77030
" />
<path d="M104500 77339
L104528 77367
L104500 77395
L104472 77367
L104500 77339
L104500 77395
" />
<path d="M104500 77030
L104528 77058
L104500 77086
L104472 77058
L104500 77030
L104500 77086
" />
<path d="M105540 77395
L105203 77395
" />
<path d="M105372 77395
L105372 76805
L105315 76889
L105259 76946
L105203 76974
" />
<path d="M106215 76777
L105709 77536
" />
<path d="M106721 77395
L106384 77395
" />
<path d="M106553 77395
L106553 76805
L106496 76889
L106440 76946
L106384 76974
" />
</g>
<g style="fill:#000000; fill-opacity:0.0; 
stroke:#000000; stroke-width:19.685; stroke-opacity:1; 
stroke-linecap:round; stroke-linejoin:round;">
</g>
<g style="fill:#000000; fill-opacity:0.0; 
stroke:#000000; stroke-width:59.0551; stroke-opacity:1; 
stroke-linecap:round; stroke-linejoin:round;">
<path d="M69685 73821
L112205 73821
" />
</g>
<g style="fill:#000000; fill-opacity:0.0; 
stroke:#000000; stroke-width:19.685; stroke-opacity:1; 
stroke-linecap:round; stroke-linejoin:round;">
</g>
<g style="fill:#000000; fill-opacity:0.0; 
stroke:#000000; stroke-width:157.48; stroke-opacity:1; 
stroke-linecap:round; stroke-linejoin:round;">
<path d="M70257 74099
L70707 74099
" />
<path d="M70384 74886
L70482 74099
" />
<path d="M70871 74886
L70937 74361
" />
<path d="M70970 74099
L70927 74136
L70960 74174
L71002 74136
L70970 74099
L70960 74174
" />
<path d="M71199 74361
L71499 74361
" />
<path d="M71345 74099
L71260 74774
L71288 74849
L71359 74886
L71434 74886
" />
<path d="M71809 74886
L71738 74849
L71710 74774
L71795 74099
" />
<path d="M72413 74849
L72334 74886
L72184 74886
L72113 74849
L72085 74774
L72123 74474
L72169 74399
L72249 74361
L72399 74361
L72469 74399
L72498 74474
L72488 74549
L72104 74624
" />
<path d="M72793 74811
L72826 74849
L72783 74886
L72751 74849
L72793 74811
L72783 74886
" />
<path d="M72844 74399
L72877 74436
L72835 74474
L72802 74436
L72844 74399
L72835 74474
" />
<path d="M74133 74886
L73758 74886
L73857 74099
" />
<path d="M74447 74474
L74710 74474
" />
<path d="M74771 74886
L74396 74886
L74494 74099
L74869 74099
" />
<path d="M75108 74886
L75207 74099
L75394 74099
L75502 74136
L75567 74211
L75596 74286
L75614 74436
L75600 74549
L75544 74699
L75497 74774
L75413 74849
L75296 74886
L75108 74886
" />
<path d="M76810 74474
L76917 74511
L76950 74549
L76978 74624
L76964 74736
L76917 74811
L76875 74849
L76795 74886
L76495 74886
L76594 74099
L76856 74099
L76927 74136
L76959 74174
L76988 74249
L76978 74324
L76931 74399
L76889 74436
L76810 74474
L76547 74474
" />
<path d="M77395 74886
L77325 74849
L77292 74811
L77264 74736
L77292 74511
L77339 74436
L77381 74399
L77461 74361
L77573 74361
L77644 74399
L77677 74436
L77705 74511
L77677 74736
L77630 74811
L77588 74849
L77508 74886
L77395 74886
" />
<path d="M78333 74886
L78384 74474
L78356 74399
L78286 74361
L78136 74361
L78056 74399
" />
<path d="M78337 74849
L78258 74886
L78070 74886
L78000 74849
L77972 74774
L77981 74699
L78028 74624
L78108 74586
L78295 74586
L78375 74549
" />
<path d="M78708 74886
L78773 74361
" />
<path d="M78755 74511
L78801 74436
L78844 74399
L78923 74361
L78998 74361
" />
<path d="M79533 74886
L79631 74099
" />
<path d="M79537 74849
L79458 74886
L79308 74886
L79237 74849
L79205 74811
L79176 74736
L79205 74511
L79251 74436
L79294 74399
L79373 74361
L79523 74361
L79594 74399
" />
<path d="M80507 74886
L80606 74099
L80906 74099
L80976 74136
L81009 74174
L81037 74249
L81023 74361
L80976 74436
L80934 74474
L80854 74511
L80554 74511
" />
<path d="M81754 74811
L81712 74849
L81595 74886
L81520 74886
L81412 74849
L81346 74774
L81318 74699
L81300 74549
L81314 74436
L81370 74286
L81417 74211
L81501 74136
L81618 74099
L81693 74099
L81801 74136
L81834 74174
" />
<path d="M82396 74474
L82504 74511
L82537 74549
L82565 74624
L82551 74736
L82504 74811
L82462 74849
L82382 74886
L82082 74886
L82181 74099
L82443 74099
L82513 74136
L82546 74174
L82574 74249
L82565 74324
L82518 74399
L82476 74436
L82396 74474
L82134 74474
" />
</g>
<g style="fill:#000000; fill-opacity:0.0; 
stroke:#000000; stroke-width:19.685; stroke-opacity:1; 
stroke-linecap:round; stroke-linejoin:round;">
</g>
<g style="fill:#000000; fill-opacity:0.0; 
stroke:#000000; stroke-width:59.0551; stroke-opacity:1; 
stroke-linecap:round; stroke-linejoin:round;">
<path d="M70417 73070
L70220 73070
" />
<path d="M70220 73380
L70220 72789
L70501 72789
" />
<path d="M70726 73380
L70726 72986
" />
<path d="M70726 72789
L70698 72817
L70726 72845
L70754 72817
L70726 72789
L70726 72845
" />
<path d="M71091 73380
L71035 73352
L71007 73295
L71007 72789
" />
<path d="M71541 73352
L71485 73380
L71373 73380
L71316 73352
L71288 73295
L71288 73070
L71316 73014
L71373 72986
L71485 72986
L71541 73014
L71570 73070
L71570 73127
L71288 73183
" />
<path d="M71823 73323
L71851 73352
L71823 73380
L71795 73352
L71823 73323
L71823 73380
" />
<path d="M71823 73014
L71851 73042
L71823 73070
L71795 73042
L71823 73014
L71823 73070
" />
<path d="M72835 73380
L72554 73380
L72554 72789
" />
<path d="M73032 73070
L73229 73070
" />
<path d="M73313 73380
L73032 73380
L73032 72789
L73313 72789
" />
<path d="M73566 73380
L73566 72789
L73707 72789
L73791 72817
L73847 72874
L73876 72930
L73904 73042
L73904 73127
L73876 73239
L73847 73295
L73791 73352
L73707 73380
L73566 73380
" />
<path d="M74016 73436
L74466 73436
" />
<path d="M74804 73070
L74888 73099
L74916 73127
L74944 73183
L74944 73267
L74916 73323
L74888 73352
L74832 73380
L74607 73380
L74607 72789
L74804 72789
L74860 72817
L74888 72845
L74916 72902
L74916 72958
L74888 73014
L74860 73042
L74804 73070
L74607 73070
" />
<path d="M75282 73380
L75225 73352
L75197 73323
L75169 73267
L75169 73099
L75197 73042
L75225 73014
L75282 72986
L75366 72986
L75422 73014
L75450 73042
L75478 73099
L75478 73267
L75450 73323
L75422 73352
L75366 73380
L75282 73380
" />
<path d="M75985 73380
L75985 73070
L75956 73014
L75900 72986
L75788 72986
L75732 73014
" />
<path d="M75985 73352
L75928 73380
L75788 73380
L75732 73352
L75703 73295
L75703 73239
L75732 73183
L75788 73155
L75928 73155
L75985 73127
" />
<path d="M76266 73380
L76266 72986
" />
<path d="M76266 73099
L76294 73042
L76322 73014
L76378 72986
L76435 72986
" />
<path d="M76885 73380
L76885 72789
" />
<path d="M76885 73352
L76828 73380
L76716 73380
L76660 73352
L76631 73323
L76603 73267
L76603 73099
L76631 73042
L76660 73014
L76716 72986
L76828 72986
L76885 73014
" />
<path d="M77025 73436
L77475 73436
" />
<path d="M77616 73380
L77616 72789
L77841 72789
L77897 72817
L77925 72845
L77953 72902
L77953 72986
L77925 73042
L77897 73070
L77841 73099
L77616 73099
" />
<path d="M78544 73323
L78516 73352
L78431 73380
L78375 73380
L78291 73352
L78234 73295
L78206 73239
L78178 73127
L78178 73042
L78206 72930
L78234 72874
L78291 72817
L78375 72789
L78431 72789
L78516 72817
L78544 72845
" />
<path d="M78994 73070
L79078 73099
L79106 73127
L79134 73183
L79134 73267
L79106 73323
L79078 73352
L79022 73380
L78797 73380
L78797 72789
L78994 72789
L79050 72817
L79078 72845
L79106 72902
L79106 72958
L79078 73014
L79050 73042
L78994 73070
L78797 73070
" />
<path d="M79387 73323
L79415 73352
L79387 73380
L79359 73352
L79387 73323
L79387 73380
" />
<path d="M79669 73380
L79669 72789
" />
<path d="M79725 73155
L79894 73380
" />
<path d="M79894 72986
L79669 73211
" />
<path d="M80147 73380
L80147 72986
" />
<path d="M80147 72789
L80118 72817
L80147 72845
L80175 72817
L80147 72789
L80147 72845
" />
<path d="M80681 73352
L80625 73380
L80512 73380
L80456 73352
L80428 73323
L80400 73267
L80400 73099
L80428 73042
L80456 73014
L80512 72986
L80625 72986
L80681 73014
" />
<path d="M81187 73380
L81187 73070
L81159 73014
L81103 72986
L80990 72986
L80934 73014
" />
<path d="M81187 73352
L81131 73380
L80990 73380
L80934 73352
L80906 73295
L80906 73239
L80934 73183
L80990 73155
L81131 73155
L81187 73127
" />
<path d="M81721 73380
L81721 72789
" />
<path d="M81721 73352
L81665 73380
L81553 73380
L81496 73352
L81468 73323
L81440 73267
L81440 73099
L81468 73042
L81496 73014
L81553 72986
L81665 72986
L81721 73014
" />
<path d="M81862 73436
L82312 73436
" />
<path d="M82453 72986
L82453 73577
" />
<path d="M82453 73014
L82509 72986
L82621 72986
L82678 73014
L82706 73042
L82734 73099
L82734 73267
L82706 73323
L82678 73352
L82621 73380
L82509 73380
L82453 73352
" />
<path d="M83240 73352
L83184 73380
L83071 73380
L83015 73352
L82987 73323
L82959 73267
L82959 73099
L82987 73042
L83015 73014
L83071 72986
L83184 72986
L83240 73014
" />
<path d="M83493 73380
L83493 72789
" />
<path d="M83493 73014
L83549 72986
L83662 72986
L83718 73014
L83746 73042
L83774 73099
L83774 73267
L83746 73323
L83718 73352
L83662 73380
L83549 73380
L83493 73352
" />
</g>
<g style="fill:#000000; fill-opacity:0.0; 
stroke:#000000; stroke-width:19.685; stroke-opacity:1; 
stroke-linecap:round; stroke-linejoin:round;">
</g>
<g style="fill:#000000; fill-opacity:0.0; 
stroke:#000000; stroke-width:59.0551; stroke-opacity:1; 
stroke-linecap:round; stroke-linejoin:round;">
<path d="M69685 71459
L112205 71459
" />
</g>
<g style="fill:#000000; fill-opacity:0.0; 
stroke:#000000; stroke-width:19.685; stroke-opacity:1; 
stroke-linecap:round; stroke-linejoin:round;">
</g>
<g style="fill:#000000; fill-opacity:0.0; 
stroke:#000000; stroke-width:59.0551; stroke-opacity:1; 
stroke-linecap:round; stroke-linejoin:round;">
<path d="M70192 72289
L70276 72317
L70417 72317
L70473 72289
L70501 72260
L70529 72204
L70529 72148
L70501 72092
L70473 72064
L70417 72036
L70304 72007
L70248 71979
L70220 71951
L70192 71895
L70192 71839
L70220 71782
L70248 71754
L70304 71726
L70445 71726
L70529 71754
" />
<path d="M70782 72317
L70782 71726
" />
<path d="M71035 72317
L71035 72007
L71007 71951
L70951 71923
L70867 71923
L70810 71951
L70782 71979
" />
<path d="M71541 72289
L71485 72317
L71373 72317
L71316 72289
L71288 72232
L71288 72007
L71316 71951
L71373 71923
L71485 71923
L71541 71951
L71570 72007
L71570 72064
L71288 72120
" />
<path d="M72048 72289
L71991 72317
L71879 72317
L71823 72289
L71795 72232
L71795 72007
L71823 71951
L71879 71923
L71991 71923
L72048 71951
L72076 72007
L72076 72064
L71795 72120
" />
<path d="M72244 71923
L72469 71923
" />
<path d="M72329 71726
L72329 72232
L72357 72289
L72413 72317
L72469 72317
" />
<path d="M72666 72260
L72694 72289
L72666 72317
L72638 72289
L72666 72260
L72666 72317
" />
<path d="M72666 71951
L72694 71979
L72666 72007
L72638 71979
L72666 71951
L72666 72007
" />
</g>
<g style="fill:#000000; fill-opacity:0.0; 
stroke:#000000; stroke-width:19.685; stroke-opacity:1; 
stroke-linecap:round; stroke-linejoin:round;">
</g>
<g style="fill:#000000; fill-opacity:0.0; 
stroke:#000000; stroke-width:118.11; stroke-opacity:1; 
stroke-linecap:round; stroke-linejoin:round;">
<path d="M70192 71108
L70248 71136
L70360 71136
L70417 71108
L70445 71051
L70445 71023
L70417 70967
L70360 70939
L70276 70939
L70220 70911
L70192 70854
L70192 70826
L70220 70770
L70276 70742
L70360 70742
L70417 70770
" />
<path d="M70698 70911
L71148 70911
" />
<path d="M71513 71136
L71457 71108
L71429 71051
L71429 70545
" />
<path d="M71738 71136
L71738 70742
" />
<path d="M71738 70545
L71710 70573
L71738 70601
L71766 70573
L71738 70545
L71738 70601
" />
<path d="M72273 70742
L72273 71220
L72244 71276
L72216 71304
L72160 71332
L72076 71332
L72019 71304
" />
<path d="M72273 71108
L72216 71136
L72104 71136
L72048 71108
L72019 71079
L71991 71023
L71991 70854
L72019 70798
L72048 70770
L72104 70742
L72216 70742
L72273 70770
" />
<path d="M72554 71136
L72554 70545
" />
<path d="M72807 71136
L72807 70826
L72779 70770
L72723 70742
L72638 70742
L72582 70770
L72554 70798
" />
<path d="M73004 70742
L73229 70742
" />
<path d="M73088 70545
L73088 71051
L73116 71108
L73172 71136
L73229 71136
" />
<path d="M73426 71079
L73454 71108
L73426 71136
L73397 71108
L73426 71079
L73426 71136
" />
<path d="M73932 71108
L73876 71136
L73763 71136
L73707 71108
L73679 71051
L73679 70826
L73707 70770
L73763 70742
L73876 70742
L73932 70770
L73960 70826
L73960 70883
L73679 70939
" />
<path d="M74466 70742
L74466 71136
" />
<path d="M74213 70742
L74213 71051
L74241 71108
L74297 71136
L74382 71136
L74438 71108
L74466 71079
" />
</g>
<g style="fill:#000000; fill-opacity:0.0; 
stroke:#000000; stroke-width:19.685; stroke-opacity:1; 
stroke-linecap:round; stroke-linejoin:round;">
</g>
<g style="fill:#000000; fill-opacity:0.0; 
stroke:#000000; stroke-width:59.0551; stroke-opacity:1; 
stroke-linecap:round; stroke-linejoin:round;">
<path d="M77559 75396
L77559 76577
" />
</g>
<g style="fill:#000000; fill-opacity:0.0; 
stroke:#000000; stroke-width:19.685; stroke-opacity:1; 
stroke-linecap:round; stroke-linejoin:round;">
</g>
<g style="fill:#000000; fill-opacity:0.0; 
stroke:#000000; stroke-width:59.0551; stroke-opacity:1; 
stroke-linecap:round; stroke-linejoin:round;">
<path d="M102756 75396
L102756 77955
" />
</g>
<g style="fill:#840000; fill-opacity:0.0; 
stroke:#840000; stroke-width:39.3701; stroke-opacity:1; 
stroke-linecap:round; stroke-linejoin:round;">
<path d="M22225 14524
L22300 14524
" />
<path d="M22253 14459
L22253 14627
L22262 14646
L22281 14655
L22300 14655
" />
<path d="M22394 14655
L22375 14646
L22365 14637
L22356 14618
L22356 14562
L22365 14543
L22375 14534
L22394 14524
L22422 14524
L22440 14534
L22450 14543
L22459 14562
L22459 14618
L22450 14637
L22440 14646
L22422 14655
L22394 14655
" />
<path d="M22544 14524
L22544 14721
" />
<path d="M22544 14534
L22562 14524
L22600 14524
L22619 14534
L22628 14543
L22637 14562
L22637 14618
L22628 14637
L22619 14646
L22600 14655
L22562 14655
L22544 14646
" />
</g>
<g style="fill:#840000; fill-opacity:0.0; 
stroke:#840000; stroke-width:59.0551; stroke-opacity:1; 
stroke-linecap:round; stroke-linejoin:round;">
<path d="M22061 22800
L22061 22913
L21825 22913
" />
<path d="M21937 22722
L21937 22643
" />
<path d="M22061 22609
L22061 22722
L21825 22722
L21825 22609
" />
<path d="M22061 22508
L21825 22508
L21825 22452
L21836 22418
L21859 22395
L21881 22384
L21926 22373
L21960 22373
L22005 22384
L22027 22395
L22050 22418
L22061 22452
L22061 22508
" />
<path d="M22084 22328
L22084 22148
" />
<path d="M21937 22013
L21949 21979
L21960 21968
L21982 21957
L22016 21957
L22039 21968
L22050 21979
L22061 22002
L22061 22092
L21825 22092
L21825 22013
L21836 21991
L21847 21979
L21870 21968
L21892 21968
L21915 21979
L21926 21991
L21937 22013
L21937 22092
" />
<path d="M22061 21822
L22050 21844
L22039 21856
L22016 21867
L21949 21867
L21926 21856
L21915 21844
L21904 21822
L21904 21788
L21915 21766
L21926 21754
L21949 21743
L22016 21743
L22039 21754
L22050 21766
L22061 21788
L22061 21822
" />
<path d="M22061 21541
L21937 21541
L21915 21552
L21904 21574
L21904 21619
L21915 21642
" />
<path d="M22050 21541
L22061 21563
L22061 21619
L22050 21642
L22027 21653
L22005 21653
L21982 21642
L21971 21619
L21971 21563
L21960 21541
" />
<path d="M22061 21428
L21904 21428
" />
<path d="M21949 21428
L21926 21417
L21915 21406
L21904 21383
L21904 21361
" />
<path d="M22061 21181
L21825 21181
" />
<path d="M22050 21181
L22061 21203
L22061 21248
L22050 21271
L22039 21282
L22016 21293
L21949 21293
L21926 21282
L21915 21271
L21904 21248
L21904 21203
L21915 21181
" />
<path d="M22237 23014
L22226 23003
L22215 22980
L22215 22924
L22226 22902
L22237 22890
L22260 22879
L22282 22879
L22316 22890
L22451 23025
L22451 22879
" />
<path d="M22451 22654
L22451 22789
" />
<path d="M22451 22722
L22215 22722
L22248 22744
L22271 22767
L22282 22789
" />
<path d="M22428 22553
L22440 22542
L22451 22553
L22440 22564
L22428 22553
L22451 22553
" />
<path d="M22451 22317
L22451 22452
" />
<path d="M22451 22384
L22215 22384
L22248 22407
L22271 22429
L22282 22452
" />
<path d="M22237 22227
L22226 22215
L22215 22193
L22215 22137
L22226 22114
L22237 22103
L22260 22092
L22282 22092
L22316 22103
L22451 22238
L22451 22092
" />
<path d="M22428 21991
L22440 21979
L22451 21991
L22440 22002
L22428 21991
L22451 21991
" />
<path d="M22237 21889
L22226 21878
L22215 21856
L22215 21799
L22226 21777
L22237 21766
L22260 21754
L22282 21754
L22316 21766
L22451 21901
L22451 21754
" />
<path d="M22215 21608
L22215 21586
L22226 21563
L22237 21552
L22260 21541
L22305 21529
L22361 21529
L22406 21541
L22428 21552
L22440 21563
L22451 21586
L22451 21608
L22440 21631
L22428 21642
L22406 21653
L22361 21664
L22305 21664
L22260 21653
L22237 21642
L22226 21631
L22215 21608
" />
<path d="M22451 21304
L22451 21439
" />
<path d="M22451 21372
L22215 21372
L22248 21394
L22271 21417
L22282 21439
" />
<path d="M22293 21102
L22451 21102
" />
<path d="M22203 21158
L22372 21214
L22372 21068
" />
<path d="M22829 22907
L22841 22885
L22841 22840
L22829 22817
L22807 22806
L22796 22806
L22773 22817
L22762 22840
L22762 22874
L22751 22896
L22728 22907
L22717 22907
L22694 22896
L22683 22874
L22683 22840
L22694 22817
" />
<path d="M22751 22705
L22751 22525
" />
<path d="M22841 22379
L22829 22401
L22807 22412
L22604 22412
" />
<path d="M22841 22289
L22683 22289
" />
<path d="M22604 22289
L22616 22300
L22627 22289
L22616 22277
L22604 22289
L22627 22289
" />
<path d="M22683 22075
L22874 22075
L22897 22086
L22908 22097
L22919 22120
L22919 22154
L22908 22176
" />
<path d="M22829 22075
L22841 22097
L22841 22142
L22829 22165
L22818 22176
L22796 22187
L22728 22187
L22706 22176
L22694 22165
L22683 22142
L22683 22097
L22694 22075
" />
<path d="M22841 21962
L22604 21962
" />
<path d="M22841 21861
L22717 21861
L22694 21872
L22683 21895
L22683 21929
L22694 21951
L22706 21962
" />
<path d="M22683 21782
L22683 21692
" />
<path d="M22604 21749
L22807 21749
L22829 21737
L22841 21715
L22841 21692
" />
<path d="M22818 21614
L22829 21602
L22841 21614
L22829 21625
L22818 21614
L22841 21614
" />
<path d="M22829 21411
L22841 21434
L22841 21479
L22829 21501
L22807 21512
L22717 21512
L22694 21501
L22683 21479
L22683 21434
L22694 21411
L22717 21400
L22739 21400
L22762 21512
" />
<path d="M22683 21197
L22841 21197
" />
<path d="M22683 21299
L22807 21299
L22829 21287
L22841 21265
L22841 21231
L22829 21209
L22818 21197
" />
<path d="M23208 22705
L23219 22716
L23230 22750
L23230 22772
L23219 22806
L23197 22829
L23174 22840
L23129 22851
L23095 22851
L23050 22840
L23028 22829
L23005 22806
L22994 22772
L22994 22750
L23005 22716
L23017 22705
" />
<path d="M23208 22469
L23219 22480
L23230 22514
L23230 22536
L23219 22570
L23197 22592
L23174 22604
L23129 22615
L23095 22615
L23050 22604
L23028 22592
L23005 22570
L22994 22536
L22994 22514
L23005 22480
L23017 22469
" />
<path d="M23107 22109
L23118 22075
L23129 22064
L23152 22052
L23185 22052
L23208 22064
L23219 22075
L23230 22097
L23230 22187
L22994 22187
L22994 22109
L23005 22086
L23017 22075
L23039 22064
L23062 22064
L23084 22075
L23095 22086
L23107 22109
L23107 22187
" />
<path d="M23118 21906
L23230 21906
" />
<path d="M22994 21985
L23118 21906
L22994 21827
" />
<path d="M23219 21580
L23230 21546
L23230 21490
L23219 21467
L23208 21456
L23185 21445
L23163 21445
L23140 21456
L23129 21467
L23118 21490
L23107 21535
L23095 21557
L23084 21569
L23062 21580
L23039 21580
L23017 21569
L23005 21557
L22994 21535
L22994 21479
L23005 21445
" />
<path d="M23163 21355
L23163 21242
" />
<path d="M23230 21377
L22994 21299
L23230 21220
" />
</g>
<g style="fill:#C1C100; fill-opacity:0.0; 
stroke:#C1C100; stroke-width:39.3701; stroke-opacity:1; 
stroke-linecap:round; stroke-linejoin:round;">
<circle cx="19685" cy="19685" r="6692.91" /> 
</g>
<g style="fill:#840000; fill-opacity:0.0; 
stroke:#840000; stroke-width:19.685; stroke-opacity:1; 
stroke-linecap:round; stroke-linejoin:round;">
</g>
<g style="fill:#840000; fill-opacity:1.0; 
stroke:#840000; stroke-width:19.685; stroke-opacity:1; 
stroke-linecap:round; stroke-linejoin:round;">
<circle cx="21929.1" cy="19185" r="320.157" /> 
<circle cx="21929.1" cy="20185" r="320.157" /> 
<polyline style="fill-rule:evenodd;"
points="25587,21975
24806,21975
24806,21315
25587,21315
25587,21975
" /> 
</g>
<g style="fill:#840000; fill-opacity:1.0; 
stroke:#840000; stroke-width:680; stroke-opacity:1; 
stroke-linecap:round; stroke-linejoin:round;">
</g>
<g style="fill:#840000; fill-opacity:0.0; 
stroke:#840000; stroke-width:680; stroke-opacity:1; 
stroke-linecap:round; stroke-linejoin:round;">
<path d="M25136 20645
L25256 20645
" />
<path d="M25136 19645
L25256 19645
" />
<path d="M25136 18645
L25256 18645
" />
<path d="M25136 17645
L25256 17645
" />
</g>
<g style="fill:#840000; fill-opacity:0.0; 
stroke:#840000; stroke-width:19.685; stroke-opacity:1; 
stroke-linecap:round; stroke-linejoin:round;">
</g>
<g style="fill:#840000; fill-opacity:1.0; 
stroke:#840000; stroke-width:19.685; stroke-opacity:1; 
stroke-linecap:round; stroke-linejoin:round;">
<polyline style="fill-rule:evenodd;"
points="16215,14295
16767,14847
16300,15314
15748,14762
16215,14295
" /> 
</g>
<g style="fill:#840000; fill-opacity:1.0; 
stroke:#840000; stroke-width:680; stroke-opacity:1; 
stroke-linecap:round; stroke-linejoin:round;">
</g>
<g style="fill:#840000; fill-opacity:0.0; 
stroke:#840000; stroke-width:680; stroke-opacity:1; 
stroke-linecap:round; stroke-linejoin:round;">
<path d="M15593 15554
L15508 15469
" />
<path d="M14886 16261
L14801 16176
" />
</g>
<g style="fill:#840000; fill-opacity:0.0; 
stroke:#840000; stroke-width:19.685; stroke-opacity:1; 
stroke-linecap:round; stroke-linejoin:round;">
</g>
<g style="fill:#840000; fill-opacity:1.0; 
stroke:#840000; stroke-width:19.685; stroke-opacity:1; 
stroke-linecap:round; stroke-linejoin:round;">
<polyline style="fill-rule:evenodd;"
points="20127,22244
20127,21929
20757,21929
20757,22244
20127,22244
" /> 
<polyline style="fill-rule:evenodd;"
points="20127,21811
20127,21496
20757,21496
20757,21811
20127,21811
" /> 
<polyline style="fill-rule:evenodd;"
points="20127,21377
20127,21062
20757,21062
20757,21377
20127,21377
" /> 
<polyline style="fill-rule:evenodd;"
points="18612,22244
18612,21929
19242,21929
19242,22244
18612,22244
" /> 
<polyline style="fill-rule:evenodd;"
points="18612,21811
18612,21496
19242,21496
19242,21811
18612,21811
" /> 
<polyline style="fill-rule:evenodd;"
points="18612,21377
18612,21062
19242,21062
19242,21377
18612,21377
" /> 
<polyline style="fill-rule:evenodd;"
points="20127,18307
20127,17992
20757,17992
20757,18307
20127,18307
" /> 
<polyline style="fill-rule:evenodd;"
points="20127,17874
20127,17559
20757,17559
20757,17874
20127,17874
" /> 
<polyline style="fill-rule:evenodd;"
points="20127,17440
20127,17125
20757,17125
20757,17440
20127,17440
" /> 
<polyline style="fill-rule:evenodd;"
points="18612,18307
18612,17992
19242,17992
19242,18307
18612,18307
" /> 
<polyline style="fill-rule:evenodd;"
points="18612,17874
18612,17559
19242,17559
19242,17874
18612,17874
" /> 
<polyline style="fill-rule:evenodd;"
points="18612,17440
18612,17125
19242,17125
19242,17440
18612,17440
" /> 
<polyline style="fill-rule:evenodd;"
points="16019,20216
14688,20216
14688,19153
16019,19153
16019,20216
" /> 
<polyline style="fill-rule:evenodd;"
points="16624,20344
14084,20344
14084,19025
16624,19025
16624,20344
" /> 
<polyline style="fill-rule:evenodd;"
points="23159,15402
23159,16092
22864,16092
22864,15402
23159,15402
" /> 
<polyline style="fill-rule:evenodd;"
points="22411,15402
22411,16092
22116,16092
22116,15402
22411,15402
" /> 
<polyline style="fill-rule:evenodd;"
points="22785,16584
22785,17274
22490,17274
22490,16584
22785,16584
" /> 
</g>
<g style="fill:#C1C1C1; fill-opacity:1.0; 
stroke:#C1C1C1; stroke-width:19.685; stroke-opacity:1; 
stroke-linecap:round; stroke-linejoin:round;">
<circle cx="21102.4" cy="17716.5" r="167.323" /> 
<circle cx="21102.4" cy="18149.6" r="167.323" /> 
<circle cx="21102.4" cy="17283.5" r="167.323" /> 
<circle cx="21102.4" cy="21220.5" r="167.323" /> 
<circle cx="21102.4" cy="21653.5" r="167.323" /> 
<circle cx="21102.4" cy="22086.6" r="167.323" /> 
<circle cx="16378" cy="19173.2" r="108.268" /> 
<circle cx="14330.7" cy="19173.2" r="108.268" /> 
<circle cx="15354.3" cy="19173.2" r="108.268" /> 
<circle cx="14842.5" cy="19173.2" r="108.268" /> 
<circle cx="16378" cy="20196.9" r="108.268" /> 
<circle cx="16378" cy="19685" r="108.268" /> 
<circle cx="14330.7" cy="20196.9" r="108.268" /> 
<circle cx="14842.5" cy="20196.9" r="108.268" /> 
<circle cx="15354.3" cy="20196.9" r="108.268" /> 
<circle cx="15866.1" cy="19685" r="108.268" /> 
<circle cx="15354.3" cy="19685" r="108.268" /> 
<circle cx="14842.5" cy="19685" r="108.268" /> 
<circle cx="14330.7" cy="19685" r="108.268" /> 
<circle cx="15866.1" cy="19173.2" r="108.268" /> 
<circle cx="15866.1" cy="20196.9" r="108.268" /> 
<circle cx="20236.2" cy="19685" r="167.323" /> 
<circle cx="22086.6" cy="16417.3" r="167.323" /> 
<circle cx="21535.4" cy="14527.6" r="167.323" /> 
<circle cx="21535.4" cy="23700.8" r="167.323" /> 
<circle cx="21535.4" cy="24842.5" r="167.323" /> 
<circle cx="13740.2" cy="19685" r="167.323" /> 
<circle cx="16889.8" cy="19685" r="167.323" /> 
<circle cx="16850.4" cy="17598.4" r="167.323" /> 
<circle cx="20472.4" cy="16299.2" r="167.323" /> 
<circle cx="23110.2" cy="24842.5" r="167.323" /> 
<circle cx="18582.7" cy="22204.7" r="108.268" /> 
<circle cx="17598.4" cy="22204.7" r="108.268" /> 
<circle cx="19606.3" cy="21692.9" r="108.268" /> 
<circle cx="19606.3" cy="17677.2" r="108.268" /> 
<circle cx="17598.4" cy="17165.4" r="108.268" /> 
<circle cx="18582.7" cy="17165.4" r="108.268" /> 
<circle cx="16653.5" cy="24685" r="108.268" /> 
<circle cx="16220.5" cy="24015.7" r="108.268" /> 
<circle cx="23346.5" cy="16456.7" r="108.268" /> 
<circle cx="22795.3" cy="17598.4" r="108.268" /> 
</g>
<g style="fill:#840000; fill-opacity:1.0; 
stroke:#840000; stroke-width:196.85; stroke-opacity:1; 
stroke-linecap:round; stroke-linejoin:round;">
</g>
<g style="fill:#840000; fill-opacity:0.0; 
stroke:#840000; stroke-width:196.85; stroke-opacity:1; 
stroke-linecap:round; stroke-linejoin:round;">
<path d="M20344 17716
L21102 17716
" />
<path d="M20344 18149
L21102 18149
" />
<path d="M20344 17283
L21102 17283
" />
<path d="M20344 21220
L21102 21220
" />
<path d="M20383 21259
L20423 21220
" />
<path d="M20423 21220
L20851 21220
" />
<path d="M20851 21220
L21102 21220
" />
<path d="M20344 21653
L21102 21653
" />
<path d="M20344 22086
L21102 22086
" />
<path d="M20383 22047
L20423 22086
" />
<path d="M20423 22086
L20851 22086
" />
<path d="M20851 22086
L21102 22086
" />
<path d="M20669 19685
L20669 19291
" />
<path d="M20669 19291
L21535 18425
" />
<path d="M21535 18425
L21535 18031
" />
<path d="M20669 19685
L20669 20078
" />
<path d="M20669 20078
L21535 20944
" />
<path d="M21535 20944
L21535 23450
" />
<path d="M21535 23450
L21535 23700
" />
<path d="M25196 17645
L25188 17645
" />
<path d="M25188 17645
L24803 18031
" />
<path d="M24803 18031
L21535 18031
" />
</g>
<g style="fill:#840000; fill-opacity:0.0; 
stroke:#840000; stroke-width:118.11; stroke-opacity:1; 
stroke-linecap:round; stroke-linejoin:round;">
<path d="M14330 19685
L14330 19409
" />
<path d="M14330 20196
L14330 19685
" />
<path d="M14842 20196
L14330 20196
" />
<path d="M15354 20196
L14842 20196
" />
<path d="M15866 20196
L15354 20196
" />
<path d="M16377 20196
L15866 20196
" />
<path d="M16377 19173
L16377 19685
" />
<path d="M14330 19409
L14330 19173
" />
<path d="M14330 19173
L16377 19173
" />
<path d="M16377 19685
L16377 20196
" />
<path d="M14330 19685
L16377 19685
" />
</g>
<g style="fill:#840000; fill-opacity:0.0; 
stroke:#840000; stroke-width:196.85; stroke-opacity:1; 
stroke-linecap:round; stroke-linejoin:round;">
<path d="M16258 17598
L16258 18781
" />
<path d="M16258 14804
L16258 17598
" />
<path d="M16258 18781
L15354 19685
" />
<path d="M20236 19685
L15354 19685
" />
<path d="M20669 19685
L20236 19685
" />
<path d="M22262 15922
L22262 16241
" />
<path d="M22262 16241
L22086 16417
" />
<path d="M21535 16417
L22086 16417
" />
<path d="M21535 16299
L21535 14527
" />
<path d="M21535 16417
L21535 16299
" />
<path d="M21535 18031
L21535 17637
" />
<path d="M21535 17637
L21535 16417
" />
<path d="M21535 23700
L21535 24803
" />
<path d="M21535 24803
L21535 24842
" />
<path d="M13740 19685
L15354 19685
" />
<path d="M15354 19685
L16889 19685
" />
<path d="M16258 17598
L16850 17598
" />
<path d="M21535 16299
L20472 16299
" />
</g>
<g style="fill:#840000; fill-opacity:0.0; 
stroke:#840000; stroke-width:118.11; stroke-opacity:1; 
stroke-linecap:round; stroke-linejoin:round;">
<path d="M19448 21220
L19606 21377
" />
<path d="M19606 21377
L19606 21692
" />
<path d="M19448 21220
L19025 21220
" />
<path d="M19025 18149
L19448 18149
" />
<path d="M19606 17992
L19606 17677
" />
<path d="M19448 18149
L19606 17992
" />
</g>
<g style="fill:#840000; fill-opacity:0.0; 
stroke:#840000; stroke-width:78.7402; stroke-opacity:1; 
stroke-linecap:round; stroke-linejoin:round;">
<path d="M24468 22931
L21946 25452
" />
<path d="M25196 20645
L25136 20645
" />
<path d="M25136 20645
L24468 21314
" />
<path d="M24468 21314
L24468 22931
" />
<path d="M21946 25452
L17421 25452
" />
<path d="M17421 25452
L16771 24803
" />
<path d="M16771 24803
L16653 24685
" />
<path d="M16387 24015
L16220 24015
" />
<path d="M21889 25314
L17834 25314
" />
<path d="M16535 24015
L16387 24015
" />
<path d="M17834 25314
L16535 24015
" />
<path d="M24330 22874
L21889 25314
" />
<path d="M25136 19645
L24330 20451
" />
<path d="M24330 20451
L24330 22874
" />
<path d="M25196 19645
L25136 19645
" />
<path d="M23346 16456
L23012 16123
" />
<path d="M23012 16123
L23012 15922
" />
</g>
<g style="fill:#840000; fill-opacity:0.0; 
stroke:#840000; stroke-width:118.11; stroke-opacity:1; 
stroke-linecap:round; stroke-linejoin:round;">
<path d="M22637 17440
L22677 17480
" />
<path d="M22637 16754
L22637 17440
" />
<path d="M22677 17480
L22795 17598
" />
</g>
<g style="fill:#840000; fill-opacity:1.0; 
stroke:#840000; stroke-width:59.0551; stroke-opacity:1; 
stroke-linecap:round; stroke-linejoin:round;">
<polyline style="fill-rule:evenodd;"
points="19812,20893
19357,21348
19251,21348
18634,21348
17549,20263
17549,19972
17610,19911
19751,19911
19812,19972
19812,20893
" /> 
<polyline style="fill-rule:evenodd;"
points="19222,21781
18609,21781
17507,22883
17413,22883
17352,22822
17352,20524
17413,20462
17507,20462
18570,21525
19222,21525
19222,21781
" /> 
<polyline style="fill-rule:evenodd;"
points="19812,23334
19751,23395
17610,23395
17549,23334
17549,23043
18634,21958
19251,21958
19357,21958
19812,22413
19812,23334
" /> 
<polyline style="fill-rule:evenodd;"
points="19812,16956
19357,17411
19251,17411
18634,17411
17549,16326
17549,16035
17610,15974
19751,15974
19812,16035
19812,16956
" /> 
<polyline style="fill-rule:evenodd;"
points="19812,19397
19751,19458
17610,19458
17549,19397
17549,19106
18634,18021
19251,18021
19357,18021
19812,18476
19812,19397
" /> 
<polyline style="fill-rule:evenodd;"
points="19222,17844
18609,17844
17507,18946
17413,18946
17352,18885
17352,16587
17413,16525
17507,16525
18570,17588
19222,17588
19222,17844
" /> 
<polyline style="fill-rule:evenodd;"
points="26269,19685
25768,22204
25732,22257
25732,17750
25732,17540
25718,17486
25622,17321
25470,17206
25286,17158
25226,17158
25226,17616
25706,17616
25732,17540
25732,17750
25706,17675
25226,17675
25226,18133
25286,18133
25470,18084
25622,17969
25718,17805
25732,17750
25732,22257
25695,22314
25695,20645
25662,20481
25569,20342
25430,20249
25266,20217
25127,20217
24963,20249
24824,20342
24731,20481
24698,20645
24731,20809
24755,20845
24458,21142
24458,20504
24938,20025
24963,20041
25127,20074
25266,20074
25430,20041
25569,19948
25662,19809
25695,19645
25695,18645
25662,18481
25569,18342
25430,18249
25266,18217
25167,18217
25167,18133
25167,17675
25167,17616
25167,17158
25107,17158
24922,17206
24771,17321
24675,17486
24660,17540
24687,17616
25167,17616
25167,17675
24687,17675
24660,17750
24675,17805
24771,17969
24922,18084
25107,18133
25167,18133
25167,18217
25127,18217
24963,18249
24824,18342
24731,18481
24698,18645
24731,18809
24824,18948
24963,19041
25127,19074
25266,19074
25430,19041
25569,18948
25662,18809
25695,18645
25695,19645
25662,19481
25569,19342
25430,19249
25266,19217
25127,19217
24963,19249
24824,19342
24731,19481
24698,19645
24731,19809
24755,19845
24240,20361
24212,20402
24202,20451
24202,22821
23553,23470
23553,16415
23521,16339
23463,16281
23387,16250
23320,16249
23234,16163
23252,16136
23259,16102
23259,15393
23253,15359
23233,15329
23204,15309
23169,15302
22854,15302
22820,15309
22790,15328
22783,15339
22783,14812
22783,14281
22098,14281
22098,14812
22783,14812
22783,15339
22770,15358
22763,15393
22763,16102
22770,16135
22790,16165
22819,16185
22854,16192
22908,16192
22922,16213
23139,16430
23139,16497
23171,16573
23229,16631
23305,16663
23387,16663
23463,16632
23521,16573
23553,16497
23553,16415
23553,23470
23407,23616
23407,23177
23407,20916
23002,20916
23002,17557
22970,17481
22912,17423
22836,17391
22797,17391
22785,17379
22785,17374
22795,17374
22829,17367
22858,17348
22878,17318
22885,17284
22885,16575
22879,16541
22859,16511
22830,16491
22795,16484
22568,16484
22568,16131
22568,16072
22568,15814
22568,15681
22568,15422
22568,15363
22546,15309
22504,15267
22450,15245
22330,15245
22293,15282
22293,15718
22532,15718
22568,15681
22568,15814
22532,15777
22293,15777
22293,16212
22330,16249
22450,16249
22504,16227
22546,16185
22568,16131
22568,16484
22480,16484
22446,16491
22416,16510
22396,16540
22389,16575
22389,17284
22396,17317
22416,17347
22445,17367
22480,17374
22490,17374
22490,17440
22501,17497
22533,17545
22572,17584
22588,17600
22588,17639
22619,17715
22678,17773
22753,17805
22836,17805
22912,17773
22970,17715
23001,17639
23002,17557
23002,20916
22347,20916
22347,20102
22347,19102
22284,18948
22234,18898
22234,16212
22234,15777
22234,15718
22234,15282
22197,15245
22076,15245
22022,15267
21981,15309
21958,15363
21958,15422
21958,15681
21995,15718
22234,15718
22234,15777
21995,15777
21958,15814
21958,16072
21958,16131
21981,16185
22022,16227
22076,16249
22197,16249
22234,16212
22234,18898
22166,18830
22012,18766
21846,18766
21692,18829
21574,18947
21510,19101
21510,19267
21574,19421
21691,19539
21845,19603
22012,19603
22165,19540
22283,19422
22347,19268
22347,19102
22347,20102
22284,19948
22166,19830
22012,19766
21846,19766
21692,19829
21574,19947
21510,20101
21510,20267
21574,20421
21691,20539
21845,20603
22012,20603
22165,20540
22283,20422
22347,20268
22347,20102
22347,20916
21612,20916
21612,23177
23407,23177
23407,23616
21836,25187
21368,25187
21368,22033
21327,21936
21261,21870
21327,21804
21368,21706
21368,21600
21327,21503
21261,21436
21327,21371
21368,21273
21368,21167
21368,18096
21327,17999
21261,17933
21327,17867
21368,17769
21368,17663
21327,17566
21261,17499
21327,17434
21368,17336
21368,17230
21327,17133
21253,17058
21155,17017
21049,17017
20952,17058
20913,17096
20854,17096
20851,17082
20831,17052
20802,17032
20767,17025
20118,17025
20084,17032
20054,17051
20034,17081
20027,17116
20027,17450
20034,17484
20044,17500
20034,17514
20027,17549
20027,17883
20034,17917
20044,17933
20034,17947
20027,17982
20027,18316
20034,18350
20053,18380
20083,18400
20118,18407
20767,18407
20801,18400
20831,18381
20851,18351
20854,18336
20913,18336
20951,18374
21049,18415
21154,18415
21252,18375
21327,18300
21368,18202
21368,18096
21368,21167
21327,21070
21253,20995
21155,20954
21049,20954
20952,20995
20913,21033
20854,21033
20851,21019
20831,20989
20802,20969
20767,20962
20118,20962
20084,20969
20054,20988
20034,21018
20027,21053
20027,21387
20034,21421
20044,21437
20034,21451
20027,21486
20027,21820
20034,21854
20044,21870
20034,21884
20027,21919
20027,22253
20034,22287
20053,22317
20083,22337
20118,22344
20767,22344
20801,22337
20831,22318
20851,22288
20854,22273
20913,22273
20951,22311
21049,22352
21154,22352
21252,22312
21327,22237
21368,22139
21368,22033
21368,25187
19950,25187
19950,23398
19950,22349
19399,21798
19399,21733
19430,21809
19489,21868
19565,21899
19647,21899
19723,21868
19781,21810
19812,21734
19813,21651
19781,21575
19753,21548
19753,21377
19742,21321
19742,21321
19710,21273
19672,21235
19950,20957
19950,19909
19950,19461
19950,18412
19672,18134
19710,18096
19742,18048
19742,18048
19753,17992
19753,17821
19781,17794
19812,17718
19813,17636
19781,17560
19723,17502
19647,17470
19565,17470
19489,17501
19431,17559
19399,17635
19399,17677
19399,17571
19950,17020
19950,15972
19815,15836
17598,15836
17546,15836
17411,15972
17411,16326
17214,16523
17214,18897
17214,18949
17411,19146
17411,19461
17546,19596
19763,19596
19815,19596
19950,19461
19950,19909
19815,19773
19763,19773
17546,19773
17411,19909
17411,20263
17214,20460
17214,20551
17214,22886
17411,23083
17411,23398
17546,23533
19815,23533
19950,23398
19950,25187
17887,25187
16929,24228
16929,14817
16906,14763
16865,14721
16650,14506
16597,14506
16300,14804
16640,15144
16692,15144
16906,14930
16929,14876
16929,14817
16929,24228
16625,23925
16598,23906
16598,15238
16598,15186
16258,14846
15960,15144
15960,15196
16175,15411
16217,15453
16271,15475
16330,15475
16384,15453
16598,15238
16598,23906
16584,23897
16535,23887
16387,23887
16384,23887
16337,23840
16261,23809
16179,23809
16103,23840
16045,23898
16028,23937
16028,15561
15996,15396
15903,15257
15805,15159
15665,15066
15501,15034
15337,15066
15198,15159
15106,15298
15073,15462
15106,15626
15198,15765
15297,15864
15436,15956
15600,15989
15764,15956
15903,15864
15996,15725
16028,15561
16028,23937
16013,23974
16013,24056
16045,24132
16103,24190
16179,24222
16261,24222
16337,24191
16384,24143
16387,24143
16482,24143
17663,25324
17474,25324
16862,24712
16862,24712
16860,24710
16860,24644
16828,24568
16770,24509
16694,24478
16612,24478
16536,24509
16478,24567
16446,24643
16446,24725
16478,24801
16536,24860
16612,24891
16679,24891
16681,24893
16681,24893
17330,25543
17372,25570
17421,25580
21946,25580
21995,25570
22037,25543
24558,23021
24586,22980
24596,22931
24596,21367
24938,21025
24963,21041
25127,21074
25266,21074
25430,21041
25569,20948
25662,20809
25695,20645
25695,22314
25687,22326
25687,21985
25687,21305
25680,21271
25661,21242
25631,21222
25596,21215
24796,21215
24763,21221
24733,21241
24713,21270
24706,21305
24706,21985
24713,22019
24732,22049
24762,22069
24796,22075
25596,22075
25630,22069
25660,22049
25680,22020
25687,21985
25687,22326
24341,24341
22204,25768
19685,26269
17165,25768
15321,24536
15321,16268
15289,16104
15196,15965
15097,15866
14958,15773
14794,15741
14630,15773
14491,15866
14398,16005
14366,16169
14398,16333
14491,16472
14590,16571
14729,16664
14893,16696
15057,16664
15196,16571
15289,16432
15321,16268
15321,24536
15028,24341
13601,22204
13100,19685
13601,17165
15028,15028
15723,14564
15609,14678
15587,14732
15587,14791
15609,14845
15651,14887
15866,15102
15918,15102
16216,14804
16210,14799
16252,14757
16258,14762
16556,14465
16556,14412
16341,14197
16313,14170
17165,13601
19685,13100
22204,13601
24341,15028
25768,17165
26269,19685
" /> 
</g>
<g style="fill:#FFFFFF; fill-opacity:1.0; 
stroke:#FFFFFF; stroke-width:19.685; stroke-opacity:1; 
stroke-linecap:round; stroke-linejoin:round;">
<circle cx="21102.4" cy="17716.5" r="88.5827" /> 
<circle cx="21102.4" cy="18149.6" r="88.5827" /> 
<circle cx="21102.4" cy="17283.5" r="88.5827" /> 
<circle cx="21102.4" cy="21220.5" r="88.5827" /> 
<circle cx="21102.4" cy="21653.5" r="88.5827" /> 
<circle cx="21102.4" cy="22086.6" r="88.5827" /> 
<circle cx="16378" cy="19173.2" r="49.2126" /> 
<circle cx="14330.7" cy="19173.2" r="49.2126" /> 
<circle cx="15354.3" cy="19173.2" r="49.2126" /> 
<circle cx="14842.5" cy="19173.2" r="49.2126" /> 
<circle cx="16378" cy="20196.9" r="49.2126" /> 
<circle cx="16378" cy="19685" r="49.2126" /> 
<circle cx="14330.7" cy="20196.9" r="49.2126" /> 
<circle cx="14842.5" cy="20196.9" r="49.2126" /> 
<circle cx="15354.3" cy="20196.9" r="49.2126" /> 
<circle cx="15866.1" cy="19685" r="49.2126" /> 
<circle cx="15354.3" cy="19685" r="49.2126" /> 
<circle cx="14842.5" cy="19685" r="49.2126" /> 
<circle cx="14330.7" cy="19685" r="49.2126" /> 
<circle cx="15866.1" cy="19173.2" r="49.2126" /> 
<circle cx="15866.1" cy="20196.9" r="49.2126" /> 
<circle cx="20236.2" cy="19685" r="88.5827" /> 
<circle cx="22086.6" cy="16417.3" r="88.5827" /> 
<circle cx="21535.4" cy="14527.6" r="88.5827" /> 
<circle cx="21535.4" cy="23700.8" r="88.5827" /> 
<circle cx="21535.4" cy="24842.5" r="88.5827" /> 
<circle cx="13740.2" cy="19685" r="88.5827" /> 
<circle cx="16889.8" cy="19685" r="88.5827" /> 
<circle cx="16850.4" cy="17598.4" r="88.5827" /> 
<circle cx="20472.4" cy="16299.2" r="88.5827" /> 
<circle cx="23110.2" cy="24842.5" r="88.5827" /> 
<circle cx="18582.7" cy="22204.7" r="49.2126" /> 
<circle cx="17598.4" cy="22204.7" r="49.2126" /> 
<circle cx="19606.3" cy="21692.9" r="49.2126" /> 
<circle cx="19606.3" cy="17677.2" r="49.2126" /> 
<circle cx="17598.4" cy="17165.4" r="49.2126" /> 
<circle cx="18582.7" cy="17165.4" r="49.2126" /> 
<circle cx="16653.5" cy="24685" r="49.2126" /> 
<circle cx="16220.5" cy="24015.7" r="49.2126" /> 
<circle cx="23346.5" cy="16456.7" r="49.2126" /> 
<circle cx="22795.3" cy="17598.4" r="49.2126" /> 
<circle cx="21929.1" cy="19185" r="150.157" /> 
<circle cx="21929.1" cy="20185" r="150.157" /> 
<circle cx="25196.9" cy="21645.7" r="190.157" /> 
<circle cx="25196.9" cy="20645.7" r="190.157" /> 
<circle cx="25196.9" cy="19645.7" r="190.157" /> 
<circle cx="25196.9" cy="18645.7" r="190.157" /> 
<circle cx="25196.9" cy="17645.7" r="190.157" /> 
<circle cx="16258.3" cy="14804.7" r="190.157" /> 
<circle cx="15551.2" cy="15511.8" r="190.157" /> 
<circle cx="14844.1" cy="16218.9" r="190.157" /> 
</g> 
</svg>
