<?xml version="1.0" standalone="no"?>
 <!DOCTYPE svg PUBLIC "-//W3C//DTD SVG 1.1//EN" 
 "http://www.w3.org/Graphics/SVG/1.1/DTD/svg11.dtd"> 
<svg xmlns="http://www.w3.org/2000/svg" version="1.1" 
    width="29.7002cm" height="21.0007cm" viewBox="0 0 116930 82680 ">
<title>SVG Picture created as LED_Board_PCB-B_SilkS.svg date 2015/01/04 11:24:54 </title>
  <desc>Picture generated by PCBNEW </desc>
<g style="fill:#000000; fill-opacity:1;stroke:#000000; stroke-opacity:1;
stroke-linecap:round; stroke-linejoin:round; "
 transform="translate(0 0) scale(1 1)">
</g>
<g style="fill:#000000; fill-opacity:0.0; 
stroke:#000000; stroke-width:19.685; stroke-opacity:1; 
stroke-linecap:round; stroke-linejoin:round;">
</g>
<g style="fill:#000000; fill-opacity:0.0; 
stroke:#000000; stroke-width:59.0551; stroke-opacity:1; 
stroke-linecap:round; stroke-linejoin:round;">
<rect x="69685.9" y="65357.2" width="42519.7" height="12598.4" rx="0" />
</g>
<g style="fill:#000000; fill-opacity:0.0; 
stroke:#000000; stroke-width:19.685; stroke-opacity:1; 
stroke-linecap:round; stroke-linejoin:round;">
</g>
<g style="fill:#000000; fill-opacity:0.0; 
stroke:#000000; stroke-width:59.0551; stroke-opacity:1; 
stroke-linecap:round; stroke-linejoin:round;">
<rect x="3937.01" y="3937.01" width="109056" height="74806" rx="0" />
</g>
<g style="fill:#000000; fill-opacity:0.0; 
stroke:#000000; stroke-width:19.685; stroke-opacity:1; 
stroke-linecap:round; stroke-linejoin:round;">
</g>
<g style="fill:#000000; fill-opacity:0.0; 
stroke:#000000; stroke-width:59.0551; stroke-opacity:1; 
stroke-linecap:round; stroke-linejoin:round;">
<rect x="4724.41" y="4724.41" width="107481" height="73231.2" rx="0" />
</g>
<g style="fill:#000000; fill-opacity:0.0; 
stroke:#000000; stroke-width:19.685; stroke-opacity:1; 
stroke-linecap:round; stroke-linejoin:round;">
</g>
<g style="fill:#000000; fill-opacity:0.0; 
stroke:#000000; stroke-width:59.0551; stroke-opacity:1; 
stroke-linecap:round; stroke-linejoin:round;">
<path d="M23622 4724
L23622 3937
" />
</g>
<g style="fill:#000000; fill-opacity:0.0; 
stroke:#000000; stroke-width:19.685; stroke-opacity:1; 
stroke-linecap:round; stroke-linejoin:round;">
</g>
<g style="fill:#000000; fill-opacity:0.0; 
stroke:#000000; stroke-width:59.0551; stroke-opacity:1; 
stroke-linecap:round; stroke-linejoin:round;">
<path d="M43307 4724
L43307 3937
" />
</g>
<g style="fill:#000000; fill-opacity:0.0; 
stroke:#000000; stroke-width:19.685; stroke-opacity:1; 
stroke-linecap:round; stroke-linejoin:round;">
</g>
<g style="fill:#000000; fill-opacity:0.0; 
stroke:#000000; stroke-width:59.0551; stroke-opacity:1; 
stroke-linecap:round; stroke-linejoin:round;">
<path d="M62992 4724
L62992 3937
" />
</g>
<g style="fill:#000000; fill-opacity:0.0; 
stroke:#000000; stroke-width:19.685; stroke-opacity:1; 
stroke-linecap:round; stroke-linejoin:round;">
</g>
<g style="fill:#000000; fill-opacity:0.0; 
stroke:#000000; stroke-width:59.0551; stroke-opacity:1; 
stroke-linecap:round; stroke-linejoin:round;">
<path d="M82677 4724
L82677 3937
" />
</g>
<g style="fill:#000000; fill-opacity:0.0; 
stroke:#000000; stroke-width:19.685; stroke-opacity:1; 
stroke-linecap:round; stroke-linejoin:round;">
</g>
<g style="fill:#000000; fill-opacity:0.0; 
stroke:#000000; stroke-width:59.0551; stroke-opacity:1; 
stroke-linecap:round; stroke-linejoin:round;">
<path d="M102362 4724
L102362 3937
" />
</g>
<g style="fill:#000000; fill-opacity:0.0; 
stroke:#000000; stroke-width:19.685; stroke-opacity:1; 
stroke-linecap:round; stroke-linejoin:round;">
</g>
<g style="fill:#000000; fill-opacity:0.0; 
stroke:#000000; stroke-width:59.0551; stroke-opacity:1; 
stroke-linecap:round; stroke-linejoin:round;">
<path d="M14169 4562
L13877 4562
" />
<path d="M14023 4562
L14023 4050
L13974 4123
L13925 4172
L13877 4196
" />
</g>
<g style="fill:#000000; fill-opacity:0.0; 
stroke:#000000; stroke-width:19.685; stroke-opacity:1; 
stroke-linecap:round; stroke-linejoin:round;">
</g>
<g style="fill:#000000; fill-opacity:0.0; 
stroke:#000000; stroke-width:59.0551; stroke-opacity:1; 
stroke-linecap:round; stroke-linejoin:round;">
<path d="M33562 4099
L33586 4074
L33635 4050
L33757 4050
L33805 4074
L33830 4099
L33854 4147
L33854 4196
L33830 4269
L33537 4562
L33854 4562
" />
</g>
<g style="fill:#000000; fill-opacity:0.0; 
stroke:#000000; stroke-width:19.685; stroke-opacity:1; 
stroke-linecap:round; stroke-linejoin:round;">
</g>
<g style="fill:#000000; fill-opacity:0.0; 
stroke:#000000; stroke-width:59.0551; stroke-opacity:1; 
stroke-linecap:round; stroke-linejoin:round;">
<path d="M53222 4050
L53539 4050
L53368 4245
L53442 4245
L53490 4269
L53515 4294
L53539 4342
L53539 4464
L53515 4513
L53490 4537
L53442 4562
L53295 4562
L53247 4537
L53222 4513
" />
</g>
<g style="fill:#000000; fill-opacity:0.0; 
stroke:#000000; stroke-width:19.685; stroke-opacity:1; 
stroke-linecap:round; stroke-linejoin:round;">
</g>
<g style="fill:#000000; fill-opacity:0.0; 
stroke:#000000; stroke-width:59.0551; stroke-opacity:1; 
stroke-linecap:round; stroke-linejoin:round;">
<path d="M73175 4221
L73175 4562
" />
<path d="M73053 4026
L72932 4391
L73248 4391
" />
</g>
<g style="fill:#000000; fill-opacity:0.0; 
stroke:#000000; stroke-width:19.685; stroke-opacity:1; 
stroke-linecap:round; stroke-linejoin:round;">
</g>
<g style="fill:#000000; fill-opacity:0.0; 
stroke:#000000; stroke-width:59.0551; stroke-opacity:1; 
stroke-linecap:round; stroke-linejoin:round;">
<path d="M92885 4050
L92641 4050
L92617 4294
L92641 4269
L92690 4245
L92812 4245
L92860 4269
L92885 4294
L92909 4342
L92909 4464
L92885 4513
L92860 4537
L92812 4562
L92690 4562
L92641 4537
L92617 4513
" />
</g>
<g style="fill:#000000; fill-opacity:0.0; 
stroke:#000000; stroke-width:19.685; stroke-opacity:1; 
stroke-linecap:round; stroke-linejoin:round;">
</g>
<g style="fill:#000000; fill-opacity:0.0; 
stroke:#000000; stroke-width:59.0551; stroke-opacity:1; 
stroke-linecap:round; stroke-linejoin:round;">
<path d="M112545 4050
L112448 4050
L112399 4074
L112375 4099
L112326 4172
L112302 4269
L112302 4464
L112326 4513
L112350 4537
L112399 4562
L112497 4562
L112545 4537
L112570 4513
L112594 4464
L112594 4342
L112570 4294
L112545 4269
L112497 4245
L112399 4245
L112350 4269
L112326 4294
L112302 4342
" />
</g>
<g style="fill:#000000; fill-opacity:0.0; 
stroke:#000000; stroke-width:19.685; stroke-opacity:1; 
stroke-linecap:round; stroke-linejoin:round;">
</g>
<g style="fill:#000000; fill-opacity:0.0; 
stroke:#000000; stroke-width:59.0551; stroke-opacity:1; 
stroke-linecap:round; stroke-linejoin:round;">
<path d="M23622 77955
L23622 78742
" />
</g>
<g style="fill:#000000; fill-opacity:0.0; 
stroke:#000000; stroke-width:19.685; stroke-opacity:1; 
stroke-linecap:round; stroke-linejoin:round;">
</g>
<g style="fill:#000000; fill-opacity:0.0; 
stroke:#000000; stroke-width:59.0551; stroke-opacity:1; 
stroke-linecap:round; stroke-linejoin:round;">
<path d="M43307 77955
L43307 78742
" />
</g>
<g style="fill:#000000; fill-opacity:0.0; 
stroke:#000000; stroke-width:19.685; stroke-opacity:1; 
stroke-linecap:round; stroke-linejoin:round;">
</g>
<g style="fill:#000000; fill-opacity:0.0; 
stroke:#000000; stroke-width:59.0551; stroke-opacity:1; 
stroke-linecap:round; stroke-linejoin:round;">
<path d="M62992 77955
L62992 78742
" />
</g>
<g style="fill:#000000; fill-opacity:0.0; 
stroke:#000000; stroke-width:19.685; stroke-opacity:1; 
stroke-linecap:round; stroke-linejoin:round;">
</g>
<g style="fill:#000000; fill-opacity:0.0; 
stroke:#000000; stroke-width:59.0551; stroke-opacity:1; 
stroke-linecap:round; stroke-linejoin:round;">
<path d="M82677 77955
L82677 78742
" />
</g>
<g style="fill:#000000; fill-opacity:0.0; 
stroke:#000000; stroke-width:19.685; stroke-opacity:1; 
stroke-linecap:round; stroke-linejoin:round;">
</g>
<g style="fill:#000000; fill-opacity:0.0; 
stroke:#000000; stroke-width:59.0551; stroke-opacity:1; 
stroke-linecap:round; stroke-linejoin:round;">
<path d="M102362 77955
L102362 78742
" />
</g>
<g style="fill:#000000; fill-opacity:0.0; 
stroke:#000000; stroke-width:19.685; stroke-opacity:1; 
stroke-linecap:round; stroke-linejoin:round;">
</g>
<g style="fill:#000000; fill-opacity:0.0; 
stroke:#000000; stroke-width:59.0551; stroke-opacity:1; 
stroke-linecap:round; stroke-linejoin:round;">
<path d="M14169 78580
L13877 78580
" />
<path d="M14023 78580
L14023 78069
L13974 78142
L13925 78190
L13877 78215
" />
</g>
<g style="fill:#000000; fill-opacity:0.0; 
stroke:#000000; stroke-width:19.685; stroke-opacity:1; 
stroke-linecap:round; stroke-linejoin:round;">
</g>
<g style="fill:#000000; fill-opacity:0.0; 
stroke:#000000; stroke-width:59.0551; stroke-opacity:1; 
stroke-linecap:round; stroke-linejoin:round;">
<path d="M33562 78117
L33586 78093
L33635 78069
L33757 78069
L33805 78093
L33830 78117
L33854 78166
L33854 78215
L33830 78288
L33537 78580
L33854 78580
" />
</g>
<g style="fill:#000000; fill-opacity:0.0; 
stroke:#000000; stroke-width:19.685; stroke-opacity:1; 
stroke-linecap:round; stroke-linejoin:round;">
</g>
<g style="fill:#000000; fill-opacity:0.0; 
stroke:#000000; stroke-width:59.0551; stroke-opacity:1; 
stroke-linecap:round; stroke-linejoin:round;">
<path d="M53222 78069
L53539 78069
L53368 78263
L53442 78263
L53490 78288
L53515 78312
L53539 78361
L53539 78483
L53515 78532
L53490 78556
L53442 78580
L53295 78580
L53247 78556
L53222 78532
" />
</g>
<g style="fill:#000000; fill-opacity:0.0; 
stroke:#000000; stroke-width:19.685; stroke-opacity:1; 
stroke-linecap:round; stroke-linejoin:round;">
</g>
<g style="fill:#000000; fill-opacity:0.0; 
stroke:#000000; stroke-width:59.0551; stroke-opacity:1; 
stroke-linecap:round; stroke-linejoin:round;">
<path d="M73175 78239
L73175 78580
" />
<path d="M73053 78044
L72932 78410
L73248 78410
" />
</g>
<g style="fill:#000000; fill-opacity:0.0; 
stroke:#000000; stroke-width:19.685; stroke-opacity:1; 
stroke-linecap:round; stroke-linejoin:round;">
</g>
<g style="fill:#000000; fill-opacity:0.0; 
stroke:#000000; stroke-width:59.0551; stroke-opacity:1; 
stroke-linecap:round; stroke-linejoin:round;">
<path d="M92885 78069
L92641 78069
L92617 78312
L92641 78288
L92690 78263
L92812 78263
L92860 78288
L92885 78312
L92909 78361
L92909 78483
L92885 78532
L92860 78556
L92812 78580
L92690 78580
L92641 78556
L92617 78532
" />
</g>
<g style="fill:#000000; fill-opacity:0.0; 
stroke:#000000; stroke-width:19.685; stroke-opacity:1; 
stroke-linecap:round; stroke-linejoin:round;">
</g>
<g style="fill:#000000; fill-opacity:0.0; 
stroke:#000000; stroke-width:59.0551; stroke-opacity:1; 
stroke-linecap:round; stroke-linejoin:round;">
<path d="M112545 78069
L112448 78069
L112399 78093
L112375 78117
L112326 78190
L112302 78288
L112302 78483
L112326 78532
L112350 78556
L112399 78580
L112497 78580
L112545 78556
L112570 78532
L112594 78483
L112594 78361
L112570 78312
L112545 78288
L112497 78263
L112399 78263
L112350 78288
L112326 78312
L112302 78361
" />
</g>
<g style="fill:#000000; fill-opacity:0.0; 
stroke:#000000; stroke-width:19.685; stroke-opacity:1; 
stroke-linecap:round; stroke-linejoin:round;">
</g>
<g style="fill:#000000; fill-opacity:0.0; 
stroke:#000000; stroke-width:59.0551; stroke-opacity:1; 
stroke-linecap:round; stroke-linejoin:round;">
<path d="M3937 23622
L4724 23622
" />
</g>
<g style="fill:#000000; fill-opacity:0.0; 
stroke:#000000; stroke-width:19.685; stroke-opacity:1; 
stroke-linecap:round; stroke-linejoin:round;">
</g>
<g style="fill:#000000; fill-opacity:0.0; 
stroke:#000000; stroke-width:59.0551; stroke-opacity:1; 
stroke-linecap:round; stroke-linejoin:round;">
<path d="M3937 43307
L4724 43307
" />
</g>
<g style="fill:#000000; fill-opacity:0.0; 
stroke:#000000; stroke-width:19.685; stroke-opacity:1; 
stroke-linecap:round; stroke-linejoin:round;">
</g>
<g style="fill:#000000; fill-opacity:0.0; 
stroke:#000000; stroke-width:59.0551; stroke-opacity:1; 
stroke-linecap:round; stroke-linejoin:round;">
<path d="M3937 62992
L4724 62992
" />
</g>
<g style="fill:#000000; fill-opacity:0.0; 
stroke:#000000; stroke-width:19.685; stroke-opacity:1; 
stroke-linecap:round; stroke-linejoin:round;">
</g>
<g style="fill:#000000; fill-opacity:0.0; 
stroke:#000000; stroke-width:59.0551; stroke-opacity:1; 
stroke-linecap:round; stroke-linejoin:round;">
<path d="M4208 13864
L4452 13864
" />
<path d="M4160 14011
L4330 13499
L4501 14011
" />
</g>
<g style="fill:#000000; fill-opacity:0.0; 
stroke:#000000; stroke-width:19.685; stroke-opacity:1; 
stroke-linecap:round; stroke-linejoin:round;">
</g>
<g style="fill:#000000; fill-opacity:0.0; 
stroke:#000000; stroke-width:59.0551; stroke-opacity:1; 
stroke-linecap:round; stroke-linejoin:round;">
<path d="M4367 33428
L4440 33452
L4464 33476
L4489 33525
L4489 33598
L4464 33647
L4440 33671
L4391 33696
L4196 33696
L4196 33184
L4367 33184
L4416 33208
L4440 33233
L4464 33281
L4464 33330
L4440 33379
L4416 33403
L4367 33428
L4196 33428
" />
</g>
<g style="fill:#000000; fill-opacity:0.0; 
stroke:#000000; stroke-width:19.685; stroke-opacity:1; 
stroke-linecap:round; stroke-linejoin:round;">
</g>
<g style="fill:#000000; fill-opacity:0.0; 
stroke:#000000; stroke-width:59.0551; stroke-opacity:1; 
stroke-linecap:round; stroke-linejoin:round;">
<path d="M4489 53332
L4464 53356
L4391 53381
L4342 53381
L4269 53356
L4221 53308
L4196 53259
L4172 53161
L4172 53088
L4196 52991
L4221 52942
L4269 52893
L4342 52869
L4391 52869
L4464 52893
L4489 52918
" />
</g>
<g style="fill:#000000; fill-opacity:0.0; 
stroke:#000000; stroke-width:19.685; stroke-opacity:1; 
stroke-linecap:round; stroke-linejoin:round;">
</g>
<g style="fill:#000000; fill-opacity:0.0; 
stroke:#000000; stroke-width:59.0551; stroke-opacity:1; 
stroke-linecap:round; stroke-linejoin:round;">
<path d="M4196 73066
L4196 72554
L4318 72554
L4391 72578
L4440 72627
L4464 72676
L4489 72773
L4489 72846
L4464 72944
L4440 72993
L4391 73041
L4318 73066
L4196 73066
" />
</g>
<g style="fill:#000000; fill-opacity:0.0; 
stroke:#000000; stroke-width:19.685; stroke-opacity:1; 
stroke-linecap:round; stroke-linejoin:round;">
</g>
<g style="fill:#000000; fill-opacity:0.0; 
stroke:#000000; stroke-width:59.0551; stroke-opacity:1; 
stroke-linecap:round; stroke-linejoin:round;">
<path d="M112992 23622
L112205 23622
" />
</g>
<g style="fill:#000000; fill-opacity:0.0; 
stroke:#000000; stroke-width:19.685; stroke-opacity:1; 
stroke-linecap:round; stroke-linejoin:round;">
</g>
<g style="fill:#000000; fill-opacity:0.0; 
stroke:#000000; stroke-width:59.0551; stroke-opacity:1; 
stroke-linecap:round; stroke-linejoin:round;">
<path d="M112992 43307
L112205 43307
" />
</g>
<g style="fill:#000000; fill-opacity:0.0; 
stroke:#000000; stroke-width:19.685; stroke-opacity:1; 
stroke-linecap:round; stroke-linejoin:round;">
</g>
<g style="fill:#000000; fill-opacity:0.0; 
stroke:#000000; stroke-width:59.0551; stroke-opacity:1; 
stroke-linecap:round; stroke-linejoin:round;">
<path d="M112992 62992
L112205 62992
" />
</g>
<g style="fill:#000000; fill-opacity:0.0; 
stroke:#000000; stroke-width:19.685; stroke-opacity:1; 
stroke-linecap:round; stroke-linejoin:round;">
</g>
<g style="fill:#000000; fill-opacity:0.0; 
stroke:#000000; stroke-width:59.0551; stroke-opacity:1; 
stroke-linecap:round; stroke-linejoin:round;">
<path d="M112477 13864
L112721 13864
" />
<path d="M112428 14011
L112599 13499
L112769 14011
" />
</g>
<g style="fill:#000000; fill-opacity:0.0; 
stroke:#000000; stroke-width:19.685; stroke-opacity:1; 
stroke-linecap:round; stroke-linejoin:round;">
</g>
<g style="fill:#000000; fill-opacity:0.0; 
stroke:#000000; stroke-width:59.0551; stroke-opacity:1; 
stroke-linecap:round; stroke-linejoin:round;">
<path d="M112635 33428
L112708 33452
L112733 33476
L112757 33525
L112757 33598
L112733 33647
L112708 33671
L112660 33696
L112465 33696
L112465 33184
L112635 33184
L112684 33208
L112708 33233
L112733 33281
L112733 33330
L112708 33379
L112684 33403
L112635 33428
L112465 33428
" />
</g>
<g style="fill:#000000; fill-opacity:0.0; 
stroke:#000000; stroke-width:19.685; stroke-opacity:1; 
stroke-linecap:round; stroke-linejoin:round;">
</g>
<g style="fill:#000000; fill-opacity:0.0; 
stroke:#000000; stroke-width:59.0551; stroke-opacity:1; 
stroke-linecap:round; stroke-linejoin:round;">
<path d="M112757 53332
L112733 53356
L112660 53381
L112611 53381
L112538 53356
L112489 53308
L112465 53259
L112440 53161
L112440 53088
L112465 52991
L112489 52942
L112538 52893
L112611 52869
L112660 52869
L112733 52893
L112757 52918
" />
</g>
<g style="fill:#000000; fill-opacity:0.0; 
stroke:#000000; stroke-width:19.685; stroke-opacity:1; 
stroke-linecap:round; stroke-linejoin:round;">
</g>
<g style="fill:#000000; fill-opacity:0.0; 
stroke:#000000; stroke-width:59.0551; stroke-opacity:1; 
stroke-linecap:round; stroke-linejoin:round;">
<path d="M112465 73066
L112465 72554
L112587 72554
L112660 72578
L112708 72627
L112733 72676
L112757 72773
L112757 72846
L112733 72944
L112708 72993
L112660 73041
L112587 73066
L112465 73066
" />
</g>
<g style="fill:#000000; fill-opacity:0.0; 
stroke:#000000; stroke-width:19.685; stroke-opacity:1; 
stroke-linecap:round; stroke-linejoin:round;">
</g>
<g style="fill:#000000; fill-opacity:0.0; 
stroke:#000000; stroke-width:59.0551; stroke-opacity:1; 
stroke-linecap:round; stroke-linejoin:round;">
<path d="M78881 76293
L78881 75703
L79022 75703
L79106 75731
L79162 75787
L79190 75843
L79219 75956
L79219 76040
L79190 76153
L79162 76209
L79106 76265
L79022 76293
L78881 76293
" />
<path d="M79725 76293
L79725 75984
L79697 75928
L79640 75899
L79528 75899
L79472 75928
" />
<path d="M79725 76265
L79669 76293
L79528 76293
L79472 76265
L79444 76209
L79444 76153
L79472 76096
L79528 76068
L79669 76068
L79725 76040
" />
<path d="M79922 75899
L80147 75899
" />
<path d="M80006 75703
L80006 76209
L80034 76265
L80090 76293
L80147 76293
" />
<path d="M80568 76265
L80512 76293
L80400 76293
L80343 76265
L80315 76209
L80315 75984
L80343 75928
L80400 75899
L80512 75899
L80568 75928
L80597 75984
L80597 76040
L80315 76096
" />
<path d="M80850 76237
L80878 76265
L80850 76293
L80822 76265
L80850 76237
L80850 76293
" />
<path d="M80850 75928
L80878 75956
L80850 75984
L80822 75956
L80850 75928
L80850 75984
" />
<path d="M81553 75759
L81581 75731
L81637 75703
L81778 75703
L81834 75731
L81862 75759
L81890 75815
L81890 75871
L81862 75956
L81525 76293
L81890 76293
" />
<path d="M82453 76293
L82115 76293
" />
<path d="M82284 76293
L82284 75703
L82228 75787
L82171 75843
L82115 75871
" />
<path d="M83156 76293
L83156 75703
L83296 75703
L83381 75731
L83437 75787
L83465 75843
L83493 75956
L83493 76040
L83465 76153
L83437 76209
L83381 76265
L83296 76293
L83156 76293
" />
<path d="M83971 76265
L83915 76293
L83802 76293
L83746 76265
L83718 76209
L83718 75984
L83746 75928
L83802 75899
L83915 75899
L83971 75928
L83999 75984
L83999 76040
L83718 76096
" />
<path d="M84505 76265
L84449 76293
L84337 76293
L84280 76265
L84252 76237
L84224 76181
L84224 76012
L84252 75956
L84280 75928
L84337 75899
L84449 75899
L84505 75928
" />
<path d="M84983 76265
L84927 76293
L84815 76293
L84759 76265
L84730 76209
L84730 75984
L84759 75928
L84815 75899
L84927 75899
L84983 75928
L85012 75984
L85012 76040
L84730 76096
" />
<path d="M85265 76293
L85265 75899
" />
<path d="M85265 75956
L85293 75928
L85349 75899
L85433 75899
L85490 75928
L85518 75984
L85518 76293
" />
<path d="M85518 75984
L85546 75928
L85602 75899
L85687 75899
L85743 75928
L85771 75984
L85771 76293
" />
<path d="M86052 76293
L86052 75703
" />
<path d="M86052 75928
L86108 75899
L86221 75899
L86277 75928
L86305 75956
L86333 76012
L86333 76181
L86305 76237
L86277 76265
L86221 76293
L86108 76293
L86052 76265
" />
<path d="M86811 76265
L86755 76293
L86643 76293
L86586 76265
L86558 76209
L86558 75984
L86586 75928
L86643 75899
L86755 75899
L86811 75928
L86840 75984
L86840 76040
L86558 76096
" />
<path d="M87093 76293
L87093 75899
" />
<path d="M87093 76012
L87121 75956
L87149 75928
L87205 75899
L87261 75899
" />
<path d="M87880 75759
L87908 75731
L87964 75703
L88105 75703
L88161 75731
L88189 75759
L88217 75815
L88217 75871
L88189 75956
L87852 76293
L88217 76293
" />
<path d="M88583 75703
L88639 75703
L88696 75731
L88724 75759
L88752 75815
L88780 75928
L88780 76068
L88752 76181
L88724 76237
L88696 76265
L88639 76293
L88583 76293
L88527 76265
L88499 76237
L88471 76181
L88442 76068
L88442 75928
L88471 75815
L88499 75759
L88527 75731
L88583 75703
" />
<path d="M89342 76293
L89005 76293
" />
<path d="M89174 76293
L89174 75703
L89117 75787
L89061 75843
L89005 75871
" />
<path d="M89849 75899
L89849 76293
" />
<path d="M89708 75674
L89567 76096
L89933 76096
" />
</g>
<g style="fill:#000000; fill-opacity:0.0; 
stroke:#000000; stroke-width:19.685; stroke-opacity:1; 
stroke-linecap:round; stroke-linejoin:round;">
</g>
<g style="fill:#000000; fill-opacity:0.0; 
stroke:#000000; stroke-width:59.0551; stroke-opacity:1; 
stroke-linecap:round; stroke-linejoin:round;">
<path d="M69685 76577
L112205 76577
" />
</g>
<g style="fill:#000000; fill-opacity:0.0; 
stroke:#000000; stroke-width:19.685; stroke-opacity:1; 
stroke-linecap:round; stroke-linejoin:round;">
</g>
<g style="fill:#000000; fill-opacity:0.0; 
stroke:#000000; stroke-width:59.0551; stroke-opacity:1; 
stroke-linecap:round; stroke-linejoin:round;">
<path d="M70220 77395
L70220 76805
" />
<path d="M70557 77395
L70304 77058
" />
<path d="M70557 76805
L70220 77142
" />
<path d="M70810 77395
L70810 77002
" />
<path d="M70810 76805
L70782 76833
L70810 76861
L70838 76833
L70810 76805
L70810 76861
" />
<path d="M71429 77339
L71401 77367
L71316 77395
L71260 77395
L71176 77367
L71120 77311
L71091 77255
L71063 77142
L71063 77058
L71091 76946
L71120 76889
L71176 76833
L71260 76805
L71316 76805
L71401 76833
L71429 76861
" />
<path d="M71935 77395
L71935 77086
L71907 77030
L71851 77002
L71738 77002
L71682 77030
" />
<path d="M71935 77367
L71879 77395
L71738 77395
L71682 77367
L71654 77311
L71654 77255
L71682 77199
L71738 77171
L71879 77171
L71935 77142
" />
<path d="M72469 77395
L72469 76805
" />
<path d="M72469 77367
L72413 77395
L72301 77395
L72244 77367
L72216 77339
L72188 77283
L72188 77114
L72216 77058
L72244 77030
L72301 77002
L72413 77002
L72469 77030
" />
<path d="M73201 77086
L73397 77086
" />
<path d="M73482 77395
L73201 77395
L73201 76805
L73482 76805
" />
<path d="M73735 77339
L73763 77367
L73735 77395
L73707 77367
L73735 77339
L73735 77395
" />
<path d="M74016 77395
L74016 76805
L74157 76805
L74241 76833
L74297 76889
L74325 76946
L74354 77058
L74354 77142
L74325 77255
L74297 77311
L74241 77367
L74157 77395
L74016 77395
" />
<path d="M74607 77339
L74635 77367
L74607 77395
L74579 77367
L74607 77339
L74607 77395
" />
<path d="M74860 77227
L75141 77227
" />
<path d="M74804 77395
L75000 76805
L75197 77395
" />
<path d="M75394 77339
L75422 77367
L75394 77395
L75366 77367
L75394 77339
L75394 77395
" />
<path d="M76575 77395
L76575 76805
" />
<path d="M76631 77171
L76800 77395
" />
<path d="M76800 77002
L76575 77227
" />
<path d="M77053 77395
L77053 77002
" />
<path d="M77053 76805
L77025 76833
L77053 76861
L77081 76833
L77053 76805
L77053 76861
" />
<path d="M77588 77367
L77531 77395
L77419 77395
L77363 77367
L77334 77339
L77306 77283
L77306 77114
L77334 77058
L77363 77030
L77419 77002
L77531 77002
L77588 77030
" />
<path d="M78094 77395
L78094 77086
L78066 77030
L78009 77002
L77897 77002
L77841 77030
" />
<path d="M78094 77367
L78037 77395
L77897 77395
L77841 77367
L77813 77311
L77813 77255
L77841 77199
L77897 77171
L78037 77171
L78094 77142
" />
<path d="M78628 77395
L78628 76805
" />
<path d="M78628 77367
L78572 77395
L78459 77395
L78403 77367
L78375 77339
L78347 77283
L78347 77114
L78375 77058
L78403 77030
L78459 77002
L78572 77002
L78628 77030
" />
<path d="M79528 77620
L79500 77592
L79444 77508
L79415 77452
L79387 77367
L79359 77227
L79359 77114
L79387 76974
L79415 76889
L79444 76833
L79500 76749
L79528 76721
" />
<path d="M79725 76861
L79753 76833
L79809 76805
L79950 76805
L80006 76833
L80034 76861
L80062 76917
L80062 76974
L80034 77058
L79697 77395
L80062 77395
" />
<path d="M80428 76805
L80484 76805
L80540 76833
L80568 76861
L80597 76917
L80625 77030
L80625 77171
L80597 77283
L80568 77339
L80540 77367
L80484 77395
L80428 77395
L80372 77367
L80343 77339
L80315 77283
L80287 77171
L80287 77030
L80315 76917
L80343 76861
L80372 76833
L80428 76805
" />
<path d="M81187 77395
L80850 77395
" />
<path d="M81018 77395
L81018 76805
L80962 76889
L80906 76946
L80850 76974
" />
<path d="M81693 77002
L81693 77395
" />
<path d="M81553 76777
L81412 77199
L81778 77199
" />
<path d="M82003 77171
L82453 77171
" />
<path d="M83043 77395
L82706 77395
" />
<path d="M82874 77395
L82874 76805
L82818 76889
L82762 76946
L82706 76974
" />
<path d="M83268 76861
L83296 76833
L83352 76805
L83493 76805
L83549 76833
L83577 76861
L83606 76917
L83606 76974
L83577 77058
L83240 77395
L83606 77395
" />
<path d="M83859 77171
L84309 77171
" />
<path d="M84562 76861
L84590 76833
L84646 76805
L84787 76805
L84843 76833
L84871 76861
L84899 76917
L84899 76974
L84871 77058
L84534 77395
L84899 77395
" />
<path d="M85405 76805
L85293 76805
L85237 76833
L85208 76861
L85152 76946
L85124 77058
L85124 77283
L85152 77339
L85180 77367
L85237 77395
L85349 77395
L85405 77367
L85433 77339
L85462 77283
L85462 77142
L85433 77086
L85405 77058
L85349 77030
L85237 77030
L85180 77058
L85152 77086
L85124 77142
" />
<path d="M86361 77086
L86446 77114
L86474 77142
L86502 77199
L86502 77283
L86474 77339
L86446 77367
L86390 77395
L86165 77395
L86165 76805
L86361 76805
L86418 76833
L86446 76861
L86474 76917
L86474 76974
L86446 77030
L86418 77058
L86361 77086
L86165 77086
" />
<path d="M86699 76805
L87093 76805
L86699 77395
L87093 77395
" />
<path d="M87655 77395
L87458 77114
" />
<path d="M87318 77395
L87318 76805
L87543 76805
L87599 76833
L87627 76861
L87655 76917
L87655 77002
L87627 77058
L87599 77086
L87543 77114
L87318 77114
" />
<path d="M88639 76805
L88358 76805
L88330 77086
L88358 77058
L88414 77030
L88555 77030
L88611 77058
L88639 77086
L88667 77142
L88667 77283
L88639 77339
L88611 77367
L88555 77395
L88414 77395
L88358 77367
L88330 77339
" />
<path d="M88864 76805
L89230 76805
L89033 77030
L89117 77030
L89174 77058
L89202 77086
L89230 77142
L89230 77283
L89202 77339
L89174 77367
L89117 77395
L88949 77395
L88892 77367
L88864 77339
" />
<path d="M89427 76805
L89792 76805
L89595 77030
L89680 77030
L89736 77058
L89764 77086
L89792 77142
L89792 77283
L89764 77339
L89736 77367
L89680 77395
L89511 77395
L89455 77367
L89427 77339
" />
<path d="M90130 77058
L90073 77030
L90045 77002
L90017 76946
L90017 76917
L90045 76861
L90073 76833
L90130 76805
L90242 76805
L90298 76833
L90327 76861
L90355 76917
L90355 76946
L90327 77002
L90298 77030
L90242 77058
L90130 77058
L90073 77086
L90045 77114
L90017 77171
L90017 77283
L90045 77339
L90073 77367
L90130 77395
L90242 77395
L90298 77367
L90327 77339
L90355 77283
L90355 77171
L90327 77114
L90298 77086
L90242 77058
" />
<path d="M90552 77620
L90580 77592
L90636 77508
L90664 77452
L90692 77367
L90720 77227
L90720 77114
L90692 76974
L90664 76889
L90636 76833
L90580 76749
L90552 76721
" />
<path d="M91001 77171
L91451 77171
" />
<path d="M91733 77002
L91733 77592
" />
<path d="M91733 77030
L91789 77002
L91901 77002
L91958 77030
L91986 77058
L92014 77114
L92014 77283
L91986 77339
L91958 77367
L91901 77395
L91789 77395
L91733 77367
" />
<path d="M92267 77395
L92267 77002
" />
<path d="M92267 77114
L92295 77058
L92323 77030
L92379 77002
L92436 77002
" />
<path d="M92717 77395
L92661 77367
L92633 77339
L92604 77283
L92604 77114
L92633 77058
L92661 77030
L92717 77002
L92801 77002
L92858 77030
L92886 77058
L92914 77114
L92914 77283
L92886 77339
L92858 77367
L92801 77395
L92717 77395
" />
<path d="M93420 77395
L93420 76805
" />
<path d="M93420 77367
L93364 77395
L93251 77395
L93195 77367
L93167 77339
L93139 77283
L93139 77114
L93167 77058
L93195 77030
L93251 77002
L93364 77002
L93420 77030
" />
<path d="M93954 77002
L93954 77395
" />
<path d="M93701 77002
L93701 77311
L93729 77367
L93786 77395
L93870 77395
L93926 77367
L93954 77339
" />
<path d="M94489 77367
L94432 77395
L94320 77395
L94264 77367
L94235 77339
L94207 77283
L94207 77114
L94235 77058
L94264 77030
L94320 77002
L94432 77002
L94489 77030
" />
<path d="M94657 77002
L94882 77002
" />
<path d="M94742 76805
L94742 77311
L94770 77367
L94826 77395
L94882 77395
" />
</g>
<g style="fill:#000000; fill-opacity:0.0; 
stroke:#000000; stroke-width:19.685; stroke-opacity:1; 
stroke-linecap:round; stroke-linejoin:round;">
</g>
<g style="fill:#000000; fill-opacity:0.0; 
stroke:#000000; stroke-width:59.0551; stroke-opacity:1; 
stroke-linecap:round; stroke-linejoin:round;">
<path d="M69685 75396
L112205 75396
" />
</g>
<g style="fill:#000000; fill-opacity:0.0; 
stroke:#000000; stroke-width:19.685; stroke-opacity:1; 
stroke-linecap:round; stroke-linejoin:round;">
</g>
<g style="fill:#000000; fill-opacity:0.0; 
stroke:#000000; stroke-width:118.11; stroke-opacity:1; 
stroke-linecap:round; stroke-linejoin:round;">
<path d="M104022 76293
L103825 76012
" />
<path d="M103684 76293
L103684 75703
L103909 75703
L103965 75731
L103994 75759
L104022 75815
L104022 75899
L103994 75956
L103965 75984
L103909 76012
L103684 76012
" />
<path d="M104500 76265
L104444 76293
L104331 76293
L104275 76265
L104247 76209
L104247 75984
L104275 75928
L104331 75899
L104444 75899
L104500 75928
L104528 75984
L104528 76040
L104247 76096
" />
<path d="M104725 75899
L104865 76293
L105006 75899
" />
<path d="M105231 76237
L105259 76265
L105231 76293
L105203 76265
L105231 76237
L105231 76293
" />
<path d="M105231 75928
L105259 75956
L105231 75984
L105203 75956
L105231 75928
L105231 75984
" />
<path d="M106075 75703
L106131 75703
L106187 75731
L106215 75759
L106243 75815
L106271 75928
L106271 76068
L106243 76181
L106215 76237
L106187 76265
L106131 76293
L106075 76293
L106018 76265
L105990 76237
L105962 76181
L105934 76068
L105934 75928
L105962 75815
L105990 75759
L106018 75731
L106075 75703
" />
<path d="M106525 76237
L106553 76265
L106525 76293
L106496 76265
L106525 76237
L106525 76293
" />
<path d="M107115 76293
L106778 76293
" />
<path d="M106946 76293
L106946 75703
L106890 75787
L106834 75843
L106778 75871
" />
</g>
<g style="fill:#000000; fill-opacity:0.0; 
stroke:#000000; stroke-width:19.685; stroke-opacity:1; 
stroke-linecap:round; stroke-linejoin:round;">
</g>
<g style="fill:#000000; fill-opacity:0.0; 
stroke:#000000; stroke-width:59.0551; stroke-opacity:1; 
stroke-linecap:round; stroke-linejoin:round;">
<path d="M70192 76265
L70276 76293
L70417 76293
L70473 76265
L70501 76237
L70529 76181
L70529 76124
L70501 76068
L70473 76040
L70417 76012
L70304 75984
L70248 75956
L70220 75928
L70192 75871
L70192 75815
L70220 75759
L70248 75731
L70304 75703
L70445 75703
L70529 75731
" />
<path d="M70782 76293
L70782 75899
" />
<path d="M70782 75703
L70754 75731
L70782 75759
L70810 75731
L70782 75703
L70782 75759
" />
<path d="M71007 75899
L71316 75899
L71007 76293
L71316 76293
" />
<path d="M71766 76265
L71710 76293
L71598 76293
L71541 76265
L71513 76209
L71513 75984
L71541 75928
L71598 75899
L71710 75899
L71766 75928
L71795 75984
L71795 76040
L71513 76096
" />
<path d="M72048 76237
L72076 76265
L72048 76293
L72019 76265
L72048 76237
L72048 76293
" />
<path d="M72048 75928
L72076 75956
L72048 75984
L72019 75956
L72048 75928
L72048 75984
" />
<path d="M72751 76124
L73032 76124
" />
<path d="M72694 76293
L72891 75703
L73088 76293
" />
<path d="M73538 75899
L73538 76293
" />
<path d="M73397 75674
L73257 76096
L73622 76096
" />
</g>
<g style="fill:#000000; fill-opacity:0.0; 
stroke:#000000; stroke-width:19.685; stroke-opacity:1; 
stroke-linecap:round; stroke-linejoin:round;">
</g>
<g style="fill:#000000; fill-opacity:0.0; 
stroke:#000000; stroke-width:59.0551; stroke-opacity:1; 
stroke-linecap:round; stroke-linejoin:round;">
<path d="M103684 77395
L103684 76805
" />
<path d="M104219 77395
L104219 76805
" />
<path d="M104219 77367
L104162 77395
L104050 77395
L103994 77367
L103965 77339
L103937 77283
L103937 77114
L103965 77058
L103994 77030
L104050 77002
L104162 77002
L104219 77030
" />
<path d="M104500 77339
L104528 77367
L104500 77395
L104472 77367
L104500 77339
L104500 77395
" />
<path d="M104500 77030
L104528 77058
L104500 77086
L104472 77058
L104500 77030
L104500 77086
" />
<path d="M105540 77395
L105203 77395
" />
<path d="M105372 77395
L105372 76805
L105315 76889
L105259 76946
L105203 76974
" />
<path d="M106215 76777
L105709 77536
" />
<path d="M106721 77395
L106384 77395
" />
<path d="M106553 77395
L106553 76805
L106496 76889
L106440 76946
L106384 76974
" />
</g>
<g style="fill:#000000; fill-opacity:0.0; 
stroke:#000000; stroke-width:19.685; stroke-opacity:1; 
stroke-linecap:round; stroke-linejoin:round;">
</g>
<g style="fill:#000000; fill-opacity:0.0; 
stroke:#000000; stroke-width:59.0551; stroke-opacity:1; 
stroke-linecap:round; stroke-linejoin:round;">
<path d="M69685 73821
L112205 73821
" />
</g>
<g style="fill:#000000; fill-opacity:0.0; 
stroke:#000000; stroke-width:19.685; stroke-opacity:1; 
stroke-linecap:round; stroke-linejoin:round;">
</g>
<g style="fill:#000000; fill-opacity:0.0; 
stroke:#000000; stroke-width:157.48; stroke-opacity:1; 
stroke-linecap:round; stroke-linejoin:round;">
<path d="M70257 74099
L70707 74099
" />
<path d="M70384 74886
L70482 74099
" />
<path d="M70871 74886
L70937 74361
" />
<path d="M70970 74099
L70927 74136
L70960 74174
L71002 74136
L70970 74099
L70960 74174
" />
<path d="M71199 74361
L71499 74361
" />
<path d="M71345 74099
L71260 74774
L71288 74849
L71359 74886
L71434 74886
" />
<path d="M71809 74886
L71738 74849
L71710 74774
L71795 74099
" />
<path d="M72413 74849
L72334 74886
L72184 74886
L72113 74849
L72085 74774
L72123 74474
L72169 74399
L72249 74361
L72399 74361
L72469 74399
L72498 74474
L72488 74549
L72104 74624
" />
<path d="M72793 74811
L72826 74849
L72783 74886
L72751 74849
L72793 74811
L72783 74886
" />
<path d="M72844 74399
L72877 74436
L72835 74474
L72802 74436
L72844 74399
L72835 74474
" />
<path d="M74133 74886
L73758 74886
L73857 74099
" />
<path d="M74447 74474
L74710 74474
" />
<path d="M74771 74886
L74396 74886
L74494 74099
L74869 74099
" />
<path d="M75108 74886
L75207 74099
L75394 74099
L75502 74136
L75567 74211
L75596 74286
L75614 74436
L75600 74549
L75544 74699
L75497 74774
L75413 74849
L75296 74886
L75108 74886
" />
<path d="M76810 74474
L76917 74511
L76950 74549
L76978 74624
L76964 74736
L76917 74811
L76875 74849
L76795 74886
L76495 74886
L76594 74099
L76856 74099
L76927 74136
L76959 74174
L76988 74249
L76978 74324
L76931 74399
L76889 74436
L76810 74474
L76547 74474
" />
<path d="M77395 74886
L77325 74849
L77292 74811
L77264 74736
L77292 74511
L77339 74436
L77381 74399
L77461 74361
L77573 74361
L77644 74399
L77677 74436
L77705 74511
L77677 74736
L77630 74811
L77588 74849
L77508 74886
L77395 74886
" />
<path d="M78333 74886
L78384 74474
L78356 74399
L78286 74361
L78136 74361
L78056 74399
" />
<path d="M78337 74849
L78258 74886
L78070 74886
L78000 74849
L77972 74774
L77981 74699
L78028 74624
L78108 74586
L78295 74586
L78375 74549
" />
<path d="M78708 74886
L78773 74361
" />
<path d="M78755 74511
L78801 74436
L78844 74399
L78923 74361
L78998 74361
" />
<path d="M79533 74886
L79631 74099
" />
<path d="M79537 74849
L79458 74886
L79308 74886
L79237 74849
L79205 74811
L79176 74736
L79205 74511
L79251 74436
L79294 74399
L79373 74361
L79523 74361
L79594 74399
" />
<path d="M80507 74886
L80606 74099
L80906 74099
L80976 74136
L81009 74174
L81037 74249
L81023 74361
L80976 74436
L80934 74474
L80854 74511
L80554 74511
" />
<path d="M81754 74811
L81712 74849
L81595 74886
L81520 74886
L81412 74849
L81346 74774
L81318 74699
L81300 74549
L81314 74436
L81370 74286
L81417 74211
L81501 74136
L81618 74099
L81693 74099
L81801 74136
L81834 74174
" />
<path d="M82396 74474
L82504 74511
L82537 74549
L82565 74624
L82551 74736
L82504 74811
L82462 74849
L82382 74886
L82082 74886
L82181 74099
L82443 74099
L82513 74136
L82546 74174
L82574 74249
L82565 74324
L82518 74399
L82476 74436
L82396 74474
L82134 74474
" />
</g>
<g style="fill:#000000; fill-opacity:0.0; 
stroke:#000000; stroke-width:19.685; stroke-opacity:1; 
stroke-linecap:round; stroke-linejoin:round;">
</g>
<g style="fill:#000000; fill-opacity:0.0; 
stroke:#000000; stroke-width:59.0551; stroke-opacity:1; 
stroke-linecap:round; stroke-linejoin:round;">
<path d="M70417 73070
L70220 73070
" />
<path d="M70220 73380
L70220 72789
L70501 72789
" />
<path d="M70726 73380
L70726 72986
" />
<path d="M70726 72789
L70698 72817
L70726 72845
L70754 72817
L70726 72789
L70726 72845
" />
<path d="M71091 73380
L71035 73352
L71007 73295
L71007 72789
" />
<path d="M71541 73352
L71485 73380
L71373 73380
L71316 73352
L71288 73295
L71288 73070
L71316 73014
L71373 72986
L71485 72986
L71541 73014
L71570 73070
L71570 73127
L71288 73183
" />
<path d="M71823 73323
L71851 73352
L71823 73380
L71795 73352
L71823 73323
L71823 73380
" />
<path d="M71823 73014
L71851 73042
L71823 73070
L71795 73042
L71823 73014
L71823 73070
" />
<path d="M72835 73380
L72554 73380
L72554 72789
" />
<path d="M73032 73070
L73229 73070
" />
<path d="M73313 73380
L73032 73380
L73032 72789
L73313 72789
" />
<path d="M73566 73380
L73566 72789
L73707 72789
L73791 72817
L73847 72874
L73876 72930
L73904 73042
L73904 73127
L73876 73239
L73847 73295
L73791 73352
L73707 73380
L73566 73380
" />
<path d="M74016 73436
L74466 73436
" />
<path d="M74804 73070
L74888 73099
L74916 73127
L74944 73183
L74944 73267
L74916 73323
L74888 73352
L74832 73380
L74607 73380
L74607 72789
L74804 72789
L74860 72817
L74888 72845
L74916 72902
L74916 72958
L74888 73014
L74860 73042
L74804 73070
L74607 73070
" />
<path d="M75282 73380
L75225 73352
L75197 73323
L75169 73267
L75169 73099
L75197 73042
L75225 73014
L75282 72986
L75366 72986
L75422 73014
L75450 73042
L75478 73099
L75478 73267
L75450 73323
L75422 73352
L75366 73380
L75282 73380
" />
<path d="M75985 73380
L75985 73070
L75956 73014
L75900 72986
L75788 72986
L75732 73014
" />
<path d="M75985 73352
L75928 73380
L75788 73380
L75732 73352
L75703 73295
L75703 73239
L75732 73183
L75788 73155
L75928 73155
L75985 73127
" />
<path d="M76266 73380
L76266 72986
" />
<path d="M76266 73099
L76294 73042
L76322 73014
L76378 72986
L76435 72986
" />
<path d="M76885 73380
L76885 72789
" />
<path d="M76885 73352
L76828 73380
L76716 73380
L76660 73352
L76631 73323
L76603 73267
L76603 73099
L76631 73042
L76660 73014
L76716 72986
L76828 72986
L76885 73014
" />
<path d="M77025 73436
L77475 73436
" />
<path d="M77616 73380
L77616 72789
L77841 72789
L77897 72817
L77925 72845
L77953 72902
L77953 72986
L77925 73042
L77897 73070
L77841 73099
L77616 73099
" />
<path d="M78544 73323
L78516 73352
L78431 73380
L78375 73380
L78291 73352
L78234 73295
L78206 73239
L78178 73127
L78178 73042
L78206 72930
L78234 72874
L78291 72817
L78375 72789
L78431 72789
L78516 72817
L78544 72845
" />
<path d="M78994 73070
L79078 73099
L79106 73127
L79134 73183
L79134 73267
L79106 73323
L79078 73352
L79022 73380
L78797 73380
L78797 72789
L78994 72789
L79050 72817
L79078 72845
L79106 72902
L79106 72958
L79078 73014
L79050 73042
L78994 73070
L78797 73070
" />
<path d="M79387 73323
L79415 73352
L79387 73380
L79359 73352
L79387 73323
L79387 73380
" />
<path d="M79669 73380
L79669 72789
" />
<path d="M79725 73155
L79894 73380
" />
<path d="M79894 72986
L79669 73211
" />
<path d="M80147 73380
L80147 72986
" />
<path d="M80147 72789
L80118 72817
L80147 72845
L80175 72817
L80147 72789
L80147 72845
" />
<path d="M80681 73352
L80625 73380
L80512 73380
L80456 73352
L80428 73323
L80400 73267
L80400 73099
L80428 73042
L80456 73014
L80512 72986
L80625 72986
L80681 73014
" />
<path d="M81187 73380
L81187 73070
L81159 73014
L81103 72986
L80990 72986
L80934 73014
" />
<path d="M81187 73352
L81131 73380
L80990 73380
L80934 73352
L80906 73295
L80906 73239
L80934 73183
L80990 73155
L81131 73155
L81187 73127
" />
<path d="M81721 73380
L81721 72789
" />
<path d="M81721 73352
L81665 73380
L81553 73380
L81496 73352
L81468 73323
L81440 73267
L81440 73099
L81468 73042
L81496 73014
L81553 72986
L81665 72986
L81721 73014
" />
<path d="M81862 73436
L82312 73436
" />
<path d="M82453 72986
L82453 73577
" />
<path d="M82453 73014
L82509 72986
L82621 72986
L82678 73014
L82706 73042
L82734 73099
L82734 73267
L82706 73323
L82678 73352
L82621 73380
L82509 73380
L82453 73352
" />
<path d="M83240 73352
L83184 73380
L83071 73380
L83015 73352
L82987 73323
L82959 73267
L82959 73099
L82987 73042
L83015 73014
L83071 72986
L83184 72986
L83240 73014
" />
<path d="M83493 73380
L83493 72789
" />
<path d="M83493 73014
L83549 72986
L83662 72986
L83718 73014
L83746 73042
L83774 73099
L83774 73267
L83746 73323
L83718 73352
L83662 73380
L83549 73380
L83493 73352
" />
</g>
<g style="fill:#000000; fill-opacity:0.0; 
stroke:#000000; stroke-width:19.685; stroke-opacity:1; 
stroke-linecap:round; stroke-linejoin:round;">
</g>
<g style="fill:#000000; fill-opacity:0.0; 
stroke:#000000; stroke-width:59.0551; stroke-opacity:1; 
stroke-linecap:round; stroke-linejoin:round;">
<path d="M69685 71459
L112205 71459
" />
</g>
<g style="fill:#000000; fill-opacity:0.0; 
stroke:#000000; stroke-width:19.685; stroke-opacity:1; 
stroke-linecap:round; stroke-linejoin:round;">
</g>
<g style="fill:#000000; fill-opacity:0.0; 
stroke:#000000; stroke-width:59.0551; stroke-opacity:1; 
stroke-linecap:round; stroke-linejoin:round;">
<path d="M70192 72289
L70276 72317
L70417 72317
L70473 72289
L70501 72260
L70529 72204
L70529 72148
L70501 72092
L70473 72064
L70417 72036
L70304 72007
L70248 71979
L70220 71951
L70192 71895
L70192 71839
L70220 71782
L70248 71754
L70304 71726
L70445 71726
L70529 71754
" />
<path d="M70782 72317
L70782 71726
" />
<path d="M71035 72317
L71035 72007
L71007 71951
L70951 71923
L70867 71923
L70810 71951
L70782 71979
" />
<path d="M71541 72289
L71485 72317
L71373 72317
L71316 72289
L71288 72232
L71288 72007
L71316 71951
L71373 71923
L71485 71923
L71541 71951
L71570 72007
L71570 72064
L71288 72120
" />
<path d="M72048 72289
L71991 72317
L71879 72317
L71823 72289
L71795 72232
L71795 72007
L71823 71951
L71879 71923
L71991 71923
L72048 71951
L72076 72007
L72076 72064
L71795 72120
" />
<path d="M72244 71923
L72469 71923
" />
<path d="M72329 71726
L72329 72232
L72357 72289
L72413 72317
L72469 72317
" />
<path d="M72666 72260
L72694 72289
L72666 72317
L72638 72289
L72666 72260
L72666 72317
" />
<path d="M72666 71951
L72694 71979
L72666 72007
L72638 71979
L72666 71951
L72666 72007
" />
</g>
<g style="fill:#000000; fill-opacity:0.0; 
stroke:#000000; stroke-width:19.685; stroke-opacity:1; 
stroke-linecap:round; stroke-linejoin:round;">
</g>
<g style="fill:#000000; fill-opacity:0.0; 
stroke:#000000; stroke-width:118.11; stroke-opacity:1; 
stroke-linecap:round; stroke-linejoin:round;">
<path d="M70192 71108
L70248 71136
L70360 71136
L70417 71108
L70445 71051
L70445 71023
L70417 70967
L70360 70939
L70276 70939
L70220 70911
L70192 70854
L70192 70826
L70220 70770
L70276 70742
L70360 70742
L70417 70770
" />
<path d="M70698 70911
L71148 70911
" />
<path d="M71513 71136
L71457 71108
L71429 71051
L71429 70545
" />
<path d="M71738 71136
L71738 70742
" />
<path d="M71738 70545
L71710 70573
L71738 70601
L71766 70573
L71738 70545
L71738 70601
" />
<path d="M72273 70742
L72273 71220
L72244 71276
L72216 71304
L72160 71332
L72076 71332
L72019 71304
" />
<path d="M72273 71108
L72216 71136
L72104 71136
L72048 71108
L72019 71079
L71991 71023
L71991 70854
L72019 70798
L72048 70770
L72104 70742
L72216 70742
L72273 70770
" />
<path d="M72554 71136
L72554 70545
" />
<path d="M72807 71136
L72807 70826
L72779 70770
L72723 70742
L72638 70742
L72582 70770
L72554 70798
" />
<path d="M73004 70742
L73229 70742
" />
<path d="M73088 70545
L73088 71051
L73116 71108
L73172 71136
L73229 71136
" />
<path d="M73426 71079
L73454 71108
L73426 71136
L73397 71108
L73426 71079
L73426 71136
" />
<path d="M73932 71108
L73876 71136
L73763 71136
L73707 71108
L73679 71051
L73679 70826
L73707 70770
L73763 70742
L73876 70742
L73932 70770
L73960 70826
L73960 70883
L73679 70939
" />
<path d="M74466 70742
L74466 71136
" />
<path d="M74213 70742
L74213 71051
L74241 71108
L74297 71136
L74382 71136
L74438 71108
L74466 71079
" />
</g>
<g style="fill:#000000; fill-opacity:0.0; 
stroke:#000000; stroke-width:19.685; stroke-opacity:1; 
stroke-linecap:round; stroke-linejoin:round;">
</g>
<g style="fill:#000000; fill-opacity:0.0; 
stroke:#000000; stroke-width:59.0551; stroke-opacity:1; 
stroke-linecap:round; stroke-linejoin:round;">
<path d="M77559 75396
L77559 76577
" />
</g>
<g style="fill:#000000; fill-opacity:0.0; 
stroke:#000000; stroke-width:19.685; stroke-opacity:1; 
stroke-linecap:round; stroke-linejoin:round;">
</g>
<g style="fill:#000000; fill-opacity:0.0; 
stroke:#000000; stroke-width:59.0551; stroke-opacity:1; 
stroke-linecap:round; stroke-linejoin:round;">
<path d="M102756 75396
L102756 77955
" />
</g>
<g style="fill:#C1C100; fill-opacity:0.0; 
stroke:#C1C100; stroke-width:39.3701; stroke-opacity:1; 
stroke-linecap:round; stroke-linejoin:round;">
<circle cx="19685" cy="19685" r="6692.91" /> 
</g>
<g style="fill:#840084; fill-opacity:0.0; 
stroke:#840084; stroke-width:59.0551; stroke-opacity:1; 
stroke-linecap:round; stroke-linejoin:round;">
<path d="M18569 20140
L18588 20159
L18644 20178
L18682 20178
L18738 20159
L18775 20121
L18794 20084
L18813 20009
L18813 19953
L18794 19878
L18775 19840
L18738 19803
L18682 19784
L18644 19784
L18588 19803
L18569 19821
" />
<path d="M18194 20178
L18419 20178
" />
<path d="M18307 20178
L18307 19784
L18344 19840
L18382 19878
L18419 19896
" />
<path d="M19113 18367
L19338 18367
" />
<path d="M19225 18367
L19225 17973
L19263 18029
L19300 18067
L19338 18085
" />
<path d="M18869 17973
L18832 17973
L18794 17992
L18775 18010
L18757 18048
L18738 18123
L18738 18217
L18757 18292
L18775 18329
L18794 18348
L18832 18367
L18869 18367
L18907 18348
L18925 18329
L18944 18292
L18963 18217
L18963 18123
L18944 18048
L18925 18010
L18907 17992
L18869 17973
" />
<path d="M18494 17973
L18457 17973
L18419 17992
L18400 18010
L18382 18048
L18363 18123
L18363 18217
L18382 18292
L18400 18329
L18419 18348
L18457 18367
L18494 18367
L18532 18348
L18550 18329
L18569 18292
L18588 18217
L18588 18123
L18569 18048
L18550 18010
L18532 17992
L18494 17973
" />
<path d="M18194 18104
L18194 18367
" />
<path d="M18194 18142
L18175 18123
L18138 18104
L18082 18104
L18044 18123
L18025 18160
L18025 18367
" />
<path d="M17707 18160
L17838 18160
" />
<path d="M17838 18367
L17838 17973
L17650 17973
" />
<path d="M18569 19548
L18700 19360
" />
<path d="M18794 19548
L18794 19154
L18644 19154
L18607 19173
L18588 19191
L18569 19229
L18569 19285
L18588 19323
L18607 19341
L18644 19360
L18794 19360
" />
<path d="M18194 19548
L18419 19548
" />
<path d="M18307 19548
L18307 19154
L18344 19210
L18382 19248
L18419 19266
" />
<path d="M19056 21002
L19038 20984
L19000 20965
L18907 20965
L18869 20984
L18850 21002
L18832 21040
L18832 21077
L18850 21134
L19075 21359
L18832 21359
" />
<path d="M18644 21340
L18644 21359
L18663 21396
L18682 21415
" />
<path d="M18513 20965
L18250 20965
L18419 21359
" />
<path d="M18100 21359
L18100 20965
" />
<path d="M18063 21209
L17950 21359
" />
<path d="M17950 21096
L18100 21246
" />
<path d="M22776 16391
L22589 16259
" />
<path d="M22776 16166
L22382 16166
L22382 16316
L22401 16353
L22420 16372
L22457 16391
L22514 16391
L22551 16372
L22570 16353
L22589 16316
L22589 16166
" />
<path d="M22420 16541
L22401 16559
L22382 16597
L22382 16691
L22401 16728
L22420 16747
L22457 16766
L22495 16766
L22551 16747
L22776 16522
L22776 16766
" />
<path d="M24587 16409
L24587 16184
" />
<path d="M24587 16297
L24193 16297
L24250 16259
L24287 16222
L24306 16184
" />
<path d="M24587 16578
L24193 16578
" />
<path d="M24437 16616
L24587 16728
" />
<path d="M24325 16728
L24475 16578
" />
<path d="M22739 22847
L22757 22829
L22776 22772
L22776 22735
L22757 22679
L22720 22641
L22682 22622
L22607 22604
L22551 22604
L22476 22622
L22439 22641
L22401 22679
L22382 22735
L22382 22772
L22401 22829
L22420 22847
" />
<path d="M22382 22979
L22382 23222
L22532 23091
L22532 23147
L22551 23185
L22570 23203
L22607 23222
L22701 23222
L22739 23203
L22757 23185
L22776 23147
L22776 23035
L22757 22997
L22739 22979
" />
<path d="M24587 22491
L24587 22266
" />
<path d="M24587 22379
L24193 22379
L24250 22341
L24287 22304
L24306 22266
" />
<path d="M24193 22735
L24193 22772
L24212 22810
L24231 22829
L24268 22847
L24343 22866
L24437 22866
L24512 22847
L24550 22829
L24568 22810
L24587 22772
L24587 22735
L24568 22697
L24550 22679
L24512 22660
L24437 22641
L24343 22641
L24268 22660
L24231 22679
L24212 22697
L24193 22735
" />
<path d="M24325 23203
L24587 23203
" />
<path d="M24325 23035
L24531 23035
L24568 23053
L24587 23091
L24587 23147
L24568 23185
L24550 23203
" />
<path d="M24381 23522
L24381 23391
" />
<path d="M24587 23391
L24193 23391
L24193 23578
" />
<path d="M21321 22847
L21340 22829
L21359 22772
L21359 22735
L21340 22679
L21302 22641
L21265 22622
L21190 22604
L21134 22604
L21059 22622
L21021 22641
L20984 22679
L20965 22735
L20965 22772
L20984 22829
L21002 22847
" />
<path d="M21096 23185
L21359 23185
" />
<path d="M20946 23091
L21227 22997
L21227 23241
" />
<path d="M23170 22304
L23170 22079
" />
<path d="M23170 22191
L22776 22191
L22832 22154
L22870 22116
L22889 22079
" />
<path d="M22776 22547
L22776 22585
L22795 22622
L22814 22641
L22851 22660
L22926 22679
L23020 22679
L23095 22660
L23132 22641
L23151 22622
L23170 22585
L23170 22547
L23151 22510
L23132 22491
L23095 22472
L23020 22454
L22926 22454
L22851 22472
L22814 22491
L22795 22510
L22776 22547
" />
<path d="M22776 22922
L22776 22960
L22795 22997
L22814 23016
L22851 23035
L22926 23053
L23020 23053
L23095 23035
L23132 23016
L23151 22997
L23170 22960
L23170 22922
L23151 22885
L23132 22866
L23095 22847
L23020 22829
L22926 22829
L22851 22847
L22814 22866
L22795 22885
L22776 22922
" />
<path d="M22907 23222
L23170 23222
" />
<path d="M22945 23222
L22926 23241
L22907 23278
L22907 23335
L22926 23372
L22964 23391
L23170 23391
" />
<path d="M22964 23710
L22964 23578
" />
<path d="M23170 23578
L22776 23578
L22776 23766
" />
<path d="M21359 16391
L21171 16259
" />
<path d="M21359 16166
L20965 16166
L20965 16316
L20984 16353
L21002 16372
L21040 16391
L21096 16391
L21134 16372
L21152 16353
L21171 16316
L21171 16166
" />
<path d="M20965 16522
L20965 16766
L21115 16634
L21115 16691
L21134 16728
L21152 16747
L21190 16766
L21284 16766
L21321 16747
L21340 16728
L21359 16691
L21359 16578
L21340 16541
L21321 16522
" />
<path d="M23170 16034
L23170 15809
" />
<path d="M23170 15922
L22776 15922
L22832 15884
L22870 15847
L22889 15809
" />
<path d="M22776 16278
L22776 16316
L22795 16353
L22814 16372
L22851 16391
L22926 16409
L23020 16409
L23095 16391
L23132 16372
L23151 16353
L23170 16316
L23170 16278
L23151 16241
L23132 16222
L23095 16203
L23020 16184
L22926 16184
L22851 16203
L22814 16222
L22795 16241
L22776 16278
" />
<path d="M22776 16653
L22776 16691
L22795 16728
L22814 16747
L22851 16766
L22926 16784
L23020 16784
L23095 16766
L23132 16747
L23151 16728
L23170 16691
L23170 16653
L23151 16616
L23132 16597
L23095 16578
L23020 16559
L22926 16559
L22851 16578
L22814 16597
L22795 16616
L22776 16653
" />
<path d="M23170 16953
L22776 16953
" />
<path d="M23020 16991
L23170 17103
" />
<path d="M22907 17103
L23057 16953
" />
<path d="M24863 19619
L24675 19488
" />
<path d="M24863 19394
L24469 19394
L24469 19544
L24488 19581
L24506 19600
L24544 19619
L24600 19619
L24638 19600
L24656 19581
L24675 19544
L24675 19394
" />
<path d="M24600 19956
L24863 19956
" />
<path d="M24450 19863
L24731 19769
L24731 20013
" />
<path d="M22658 19169
L22658 19413
L22808 19281
L22808 19338
L22827 19375
L22845 19394
L22883 19413
L22977 19413
L23014 19394
L23033 19375
L23052 19338
L23052 19225
L23033 19188
L23014 19169
" />
<path d="M23052 19600
L23052 19675
L23033 19713
L23014 19731
L22958 19769
L22883 19788
L22733 19788
L22695 19769
L22677 19750
L22658 19713
L22658 19638
L22677 19600
L22695 19581
L22733 19563
L22827 19563
L22864 19581
L22883 19600
L22902 19638
L22902 19713
L22883 19750
L22864 19769
L22827 19788
" />
<path d="M23052 20181
L22864 20050
" />
<path d="M23052 19956
L22658 19956
L22658 20106
L22677 20144
L22695 20163
L22733 20181
L22789 20181
L22827 20163
L22845 20144
L22864 20106
L22864 19956
" />
<path d="M24474 19355
L24081 19355
L24081 19505
L24100 19542
L24118 19561
L24156 19580
L24212 19580
L24249 19561
L24268 19542
L24287 19505
L24287 19355
" />
<path d="M24474 19955
L24474 19730
" />
<path d="M24474 19842
L24081 19842
L24137 19805
L24174 19767
L24193 19730
" />
<path d="M16518 16068
L16240 15790
L16134 15896
L16121 15936
L16121 15962
L16134 16002
L16174 16042
L16214 16055
L16240 16055
L16280 16042
L16386 15936
" />
<path d="M16001 16081
L15975 16081
L15935 16095
L15869 16161
L15856 16201
L15856 16227
L15869 16267
L15895 16294
L15948 16320
L16267 16320
L16094 16492
" />
</g>
<g style="fill:#840084; fill-opacity:0.0; 
stroke:#840084; stroke-width:31.4961; stroke-opacity:1; 
stroke-linecap:round; stroke-linejoin:round;">
<path d="M19830 23553
L19830 23356
L19783 23356
L19755 23366
L19736 23384
L19727 23403
L19717 23441
L19717 23469
L19727 23506
L19736 23525
L19755 23544
L19783 23553
L19830 23553
" />
<path d="M19642 23375
L19633 23366
L19614 23356
L19567 23356
L19549 23366
L19539 23375
L19530 23394
L19530 23413
L19539 23441
L19652 23553
L19530 23553
" />
<path d="M20181 25482
L20275 25482
L20275 25285
" />
<path d="M20116 25379
L20050 25379
" />
<path d="M20022 25482
L20116 25482
L20116 25285
L20022 25285
" />
<path d="M19938 25482
L19938 25285
L19891 25285
L19863 25295
L19844 25314
L19835 25332
L19825 25370
L19825 25398
L19835 25435
L19844 25454
L19863 25473
L19891 25482
L19938 25482
" />
<path d="M19788 25501
L19638 25501
" />
<path d="M19478 25482
L19544 25389
" />
<path d="M19591 25482
L19591 25285
L19516 25285
L19497 25295
L19488 25304
L19478 25323
L19478 25351
L19488 25370
L19497 25379
L19516 25389
L19591 25389
" />
<path d="M19291 25295
L19310 25285
L19338 25285
L19366 25295
L19385 25314
L19394 25332
L19403 25370
L19403 25398
L19394 25435
L19385 25454
L19366 25473
L19338 25482
L19319 25482
L19291 25473
L19281 25464
L19281 25398
L19319 25398
" />
<path d="M19131 25379
L19103 25389
L19094 25398
L19085 25417
L19085 25445
L19094 25464
L19103 25473
L19122 25482
L19197 25482
L19197 25285
L19131 25285
L19113 25295
L19103 25304
L19094 25323
L19094 25342
L19103 25360
L19113 25370
L19131 25379
L19197 25379
" />
</g>
<g style="fill:#840084; fill-opacity:0.0; 
stroke:#840084; stroke-width:49.2126; stroke-opacity:1; 
stroke-linecap:round; stroke-linejoin:round;">
<path d="M19820 24104
L19886 24011
" />
<path d="M19933 24104
L19933 23907
L19858 23907
L19839 23917
L19830 23926
L19820 23945
L19820 23973
L19830 23992
L19839 24001
L19858 24011
L19933 24011
" />
<path d="M19830 24311
L19849 24301
L19877 24301
L19905 24311
L19924 24329
L19933 24348
L19942 24386
L19942 24414
L19933 24451
L19924 24470
L19905 24489
L19877 24498
L19858 24498
L19830 24489
L19820 24479
L19820 24414
L19858 24414
" />
<path d="M19867 24789
L19839 24798
L19830 24807
L19820 24826
L19820 24854
L19830 24873
L19839 24882
L19858 24892
L19933 24892
L19933 24695
L19867 24695
L19849 24704
L19839 24714
L19830 24732
L19830 24751
L19839 24770
L19849 24779
L19867 24789
L19933 24789
" />
</g>
<g style="fill:#840084; fill-opacity:0.0; 
stroke:#840084; stroke-width:31.4961; stroke-opacity:1; 
stroke-linecap:round; stroke-linejoin:round;">
<path d="M19830 14104
L19830 13907
L19783 13907
L19755 13917
L19736 13936
L19727 13954
L19717 13992
L19717 14020
L19727 14057
L19736 14076
L19755 14095
L19783 14104
L19830 14104
" />
<path d="M19652 13907
L19530 13907
L19595 13982
L19567 13982
L19549 13992
L19539 14001
L19530 14020
L19530 14067
L19539 14086
L19549 14095
L19567 14104
L19624 14104
L19642 14095
L19652 14086
" />
<path d="M20181 16033
L20275 16033
L20275 15837
" />
<path d="M20116 15930
L20050 15930
" />
<path d="M20022 16033
L20116 16033
L20116 15837
L20022 15837
" />
<path d="M19938 16033
L19938 15837
L19891 15837
L19863 15846
L19844 15865
L19835 15883
L19825 15921
L19825 15949
L19835 15987
L19844 16005
L19863 16024
L19891 16033
L19938 16033
" />
<path d="M19788 16052
L19638 16052
" />
<path d="M19478 16033
L19544 15940
" />
<path d="M19591 16033
L19591 15837
L19516 15837
L19497 15846
L19488 15855
L19478 15874
L19478 15902
L19488 15921
L19497 15930
L19516 15940
L19591 15940
" />
<path d="M19291 15846
L19310 15837
L19338 15837
L19366 15846
L19385 15865
L19394 15883
L19403 15921
L19403 15949
L19394 15987
L19385 16005
L19366 16024
L19338 16033
L19319 16033
L19291 16024
L19281 16015
L19281 15949
L19319 15949
" />
<path d="M19131 15930
L19103 15940
L19094 15949
L19085 15968
L19085 15996
L19094 16015
L19103 16024
L19122 16033
L19197 16033
L19197 15837
L19131 15837
L19113 15846
L19103 15855
L19094 15874
L19094 15893
L19103 15912
L19113 15921
L19131 15930
L19197 15930
" />
</g>
<g style="fill:#840084; fill-opacity:0.0; 
stroke:#840084; stroke-width:49.2126; stroke-opacity:1; 
stroke-linecap:round; stroke-linejoin:round;">
<path d="M19820 14655
L19886 14562
" />
<path d="M19933 14655
L19933 14459
L19858 14459
L19839 14468
L19830 14477
L19820 14496
L19820 14524
L19830 14543
L19839 14552
L19858 14562
L19933 14562
" />
<path d="M19830 14862
L19849 14852
L19877 14852
L19905 14862
L19924 14880
L19933 14899
L19942 14937
L19942 14965
L19933 15002
L19924 15021
L19905 15040
L19877 15049
L19858 15049
L19830 15040
L19820 15030
L19820 14965
L19858 14965
" />
<path d="M19867 15340
L19839 15349
L19830 15359
L19820 15377
L19820 15405
L19830 15424
L19839 15434
L19858 15443
L19933 15443
L19933 15246
L19867 15246
L19849 15255
L19839 15265
L19830 15284
L19830 15302
L19839 15321
L19849 15330
L19867 15340
L19933 15340
" />
</g>
<g style="fill:#840084; fill-opacity:0.0; 
stroke:#840084; stroke-width:78.7402; stroke-opacity:1; 
stroke-linecap:round; stroke-linejoin:round;">
<path d="M13215 19325
L13598 19325
L13643 19347
L13665 19370
L13688 19415
L13688 19505
L13665 19550
L13643 19572
L13598 19595
L13215 19595
" />
<path d="M13688 20067
L13688 19797
" />
<path d="M13688 19932
L13215 19932
L13283 19887
L13328 19842
L13350 19797
" />
</g>
<g style="fill:#840084; fill-opacity:0.0; 
stroke:#840084; stroke-width:39.3701; stroke-opacity:1; 
stroke-linecap:round; stroke-linejoin:round;">
<path d="M17061 18710
L17061 18890
" />
<path d="M17376 18800
L17061 18800
" />
<path d="M17376 19145
L17376 18995
L17061 18995
" />
<path d="M17346 19430
L17361 19415
L17376 19370
L17376 19340
L17361 19295
L17331 19265
L17301 19250
L17241 19235
L17196 19235
L17136 19250
L17106 19265
L17076 19295
L17061 19340
L17061 19370
L17076 19415
L17091 19430
" />
<path d="M17061 19715
L17061 19565
L17211 19550
L17196 19565
L17181 19595
L17181 19670
L17196 19700
L17211 19715
L17241 19730
L17316 19730
L17346 19715
L17361 19700
L17376 19670
L17376 19595
L17361 19565
L17346 19550
" />
<path d="M17376 19880
L17376 19940
L17361 19970
L17346 19985
L17301 20014
L17241 20029
L17121 20029
L17091 20014
L17076 20000
L17061 19970
L17061 19910
L17076 19880
L17091 19865
L17121 19850
L17196 19850
L17226 19865
L17241 19880
L17256 19910
L17256 19970
L17241 20000
L17226 20014
L17196 20029
" />
<path d="M17061 20134
L17061 20344
L17376 20209
" />
<path d="M17376 20629
L17376 20449
" />
<path d="M17376 20539
L17061 20539
L17106 20509
L17136 20479
L17151 20449
" />
</g>
<g style="fill:#840084; fill-opacity:0.0; 
stroke:#840084; stroke-width:59.0551; stroke-opacity:1; 
stroke-linecap:round; stroke-linejoin:round;">
<path d="M18897 19498
L18110 19498
" />
<path d="M18110 18690
L18897 18690
" />
<path d="M18110 20698
L18897 20698
" />
<path d="M18897 19852
L18110 19852
" />
<path d="M23927 16850
L23927 16062
" />
<path d="M23080 16062
L23080 16850
" />
<path d="M23100 23307
L23100 22519
" />
<path d="M23907 22519
L23907 23307
" />
<path d="M21683 23307
L21683 22519
" />
<path d="M22490 22519
L22490 23307
" />
<path d="M22509 16850
L22509 16062
" />
<path d="M21663 16062
L21663 16850
" />
<path d="M23356 19291
L23356 20078
" />
<path d="M24202 20078
L24202 19291
" />
<path d="M24696 21145
L24696 17145
" />
<path d="M24696 17145
L25696 17145
" />
<path d="M25696 17145
L25696 21145
" />
<path d="M24696 22145
L24696 21145
" />
<path d="M24696 21145
L25696 21145
" />
<path d="M24696 22145
L25696 22145
" />
<path d="M25696 22145
L25696 21145
" />
<path d="M15551 14804
L14136 16218
" />
<path d="M14136 16218
L14844 16926
" />
<path d="M14844 16926
L16258 15511
" />
<path d="M16965 14804
L16258 15511
" />
<path d="M16258 15511
L15551 14804
" />
<path d="M16965 14804
L16258 14097
" />
<path d="M16258 14097
L15551 14804
" />
</g>
<g style="fill:#840084; fill-opacity:0.0; 
stroke:#840084; stroke-width:49.2126; stroke-opacity:1; 
stroke-linecap:round; stroke-linejoin:round;">
<path d="M19370 23976
L19468 24035
" />
<path d="M19468 24035
L19468 23917
" />
<path d="M19468 23917
L19370 23976
" />
<path d="M19370 23976
L19547 23976
" />
<path d="M19370 24035
L19370 23917
" />
<path d="M19311 23976
L19370 23976
" />
<path d="M19370 24409
L19468 24468
" />
<path d="M19468 24468
L19468 24350
" />
<path d="M19468 24350
L19370 24409
" />
<path d="M19370 24409
L19547 24409
" />
<path d="M19370 24468
L19370 24350
" />
<path d="M19311 24409
L19370 24409
" />
<path d="M19389 24842
L19468 24901
" />
<path d="M19468 24901
L19468 24783
" />
<path d="M19468 24783
L19389 24842
" />
<path d="M19389 24842
L19547 24842
" />
<path d="M19311 24842
L19350 24842
" />
<path d="M19370 24901
L19370 24783
" />
<circle cx="19232.3" cy="25177.2" r="78.7402" /> 
<path d="M19330 25000
L19133 24803
" />
<path d="M19133 25000
L20236 25000
" />
<path d="M20236 25000
L20236 23818
" />
<path d="M20236 23818
L19133 23818
" />
<path d="M19133 23818
L19133 25000
" />
<path d="M19370 14527
L19468 14586
" />
<path d="M19468 14586
L19468 14468
" />
<path d="M19468 14468
L19370 14527
" />
<path d="M19370 14527
L19547 14527
" />
<path d="M19370 14586
L19370 14468
" />
<path d="M19311 14527
L19370 14527
" />
<path d="M19370 14960
L19468 15019
" />
<path d="M19468 15019
L19468 14901
" />
<path d="M19468 14901
L19370 14960
" />
<path d="M19370 14960
L19547 14960
" />
<path d="M19370 15019
L19370 14901
" />
<path d="M19311 14960
L19370 14960
" />
<path d="M19389 15393
L19468 15452
" />
<path d="M19468 15452
L19468 15334
" />
<path d="M19468 15334
L19389 15393
" />
<path d="M19389 15393
L19547 15393
" />
<path d="M19311 15393
L19350 15393
" />
<path d="M19370 15452
L19370 15334
" />
<circle cx="19232.3" cy="15728.3" r="78.7402" /> 
<path d="M19330 15551
L19133 15354
" />
<path d="M19133 15551
L20236 15551
" />
<path d="M20236 15551
L20236 14370
" />
<path d="M20236 14370
L19133 14370
" />
<path d="M19133 14370
L19133 15551
" />
</g>
<g style="fill:#840084; fill-opacity:0.0; 
stroke:#840084; stroke-width:78.7402; stroke-opacity:1; 
stroke-linecap:round; stroke-linejoin:round;">
<path d="M16761 19960
L16368 20354
" />
<path d="M16368 20354
L13946 20354
" />
<path d="M13946 20354
L13946 19015
" />
<path d="M13946 19015
L16761 19015
" />
<path d="M16761 19015
L16761 19960
" />
</g>
<g style="fill:#840000; fill-opacity:0.0; 
stroke:#840000; stroke-width:19.685; stroke-opacity:1; 
stroke-linecap:round; stroke-linejoin:round;">
</g>
<g style="fill:#840000; fill-opacity:1.0; 
stroke:#840000; stroke-width:19.685; stroke-opacity:1; 
stroke-linecap:round; stroke-linejoin:round;">
<polyline style="fill-rule:evenodd;"
points="25587,21975
24806,21975
24806,21315
25587,21315
25587,21975
" /> 
</g>
<g style="fill:#840000; fill-opacity:1.0; 
stroke:#840000; stroke-width:680; stroke-opacity:1; 
stroke-linecap:round; stroke-linejoin:round;">
</g>
<g style="fill:#840000; fill-opacity:0.0; 
stroke:#840000; stroke-width:680; stroke-opacity:1; 
stroke-linecap:round; stroke-linejoin:round;">
<path d="M25136 20645
L25256 20645
" />
<path d="M25136 19645
L25256 19645
" />
<path d="M25136 18645
L25256 18645
" />
<path d="M25136 17645
L25256 17645
" />
</g>
<g style="fill:#840000; fill-opacity:0.0; 
stroke:#840000; stroke-width:19.685; stroke-opacity:1; 
stroke-linecap:round; stroke-linejoin:round;">
</g>
<g style="fill:#840000; fill-opacity:1.0; 
stroke:#840000; stroke-width:19.685; stroke-opacity:1; 
stroke-linecap:round; stroke-linejoin:round;">
<polyline style="fill-rule:evenodd;"
points="16215,14295
16767,14847
16300,15314
15748,14762
16215,14295
" /> 
</g>
<g style="fill:#840000; fill-opacity:1.0; 
stroke:#840000; stroke-width:680; stroke-opacity:1; 
stroke-linecap:round; stroke-linejoin:round;">
</g>
<g style="fill:#840000; fill-opacity:0.0; 
stroke:#840000; stroke-width:680; stroke-opacity:1; 
stroke-linecap:round; stroke-linejoin:round;">
<path d="M15593 15554
L15508 15469
" />
<path d="M14886 16261
L14801 16176
" />
</g> 
</svg>
